{"glyphs":{"0":{"ha":900,"x_min":103,"x_max":797,"o":"m 450 -17 q 241 59 317 -17 q 134 251 165 135 q 103 486 103 367 q 132 714 103 597 q 237 910 161 831 q 450 989 313 989 q 659 913 583 989 q 766 722 735 838 q 797 486 797 606 q 768 258 797 375 q 663 63 739 142 q 450 -17 588 -17 m 450 122 q 573 178 531 122 q 631 317 615 233 q 647 486 647 401 q 631 660 647 576 q 571 797 614 743 q 450 850 528 850 q 327 794 369 850 q 269 655 285 739 q 253 486 253 571 q 269 313 253 396 q 329 176 286 229 q 450 122 372 122 z "},"1":{"ha":558,"x_min":47,"x_max":351,"o":"m 207 0 l 207 754 l 47 754 l 47 861 q 169 885 118 861 q 240 972 219 908 l 351 972 l 351 0 l 207 0 z "},"2":{"ha":853,"x_min":89,"x_max":760,"o":"m 89 0 q 139 232 89 133 q 269 400 189 331 q 439 515 349 469 q 551 591 501 547 q 601 706 601 635 q 554 808 601 767 q 432 850 507 850 q 306 815 353 850 q 236 721 258 781 l 104 781 q 226 931 139 874 q 433 989 314 989 q 666 908 581 989 q 751 701 751 826 q 681 512 751 578 q 500 388 610 446 q 344 278 404 336 q 265 142 283 219 l 760 142 l 760 0 l 89 0 z "},"3":{"ha":838,"x_min":67,"x_max":749,"o":"m 408 -17 q 193 44 279 -17 q 67 207 107 106 l 201 261 q 291 153 235 185 q 408 122 347 122 q 542 160 486 122 q 599 281 599 197 q 555 390 599 344 q 413 436 511 436 l 338 436 l 338 575 l 413 575 q 522 612 481 575 q 563 707 563 649 q 523 812 563 774 q 408 850 483 850 q 299 817 339 850 q 236 740 258 783 l 101 792 q 215 935 136 881 q 413 989 294 989 q 628 910 544 989 q 713 721 713 831 q 682 597 713 653 q 588 510 651 542 q 705 424 661 481 q 749 286 749 368 q 652 61 749 139 q 408 -17 556 -17 z "},"4":{"ha":896,"x_min":19,"x_max":814,"o":"m 543 0 l 543 221 l 19 221 l 19 314 l 517 972 l 688 972 l 688 354 l 814 354 l 814 221 l 688 221 l 688 0 l 543 0 m 543 354 l 543 797 l 211 354 l 543 354 z "},"5":{"ha":839,"x_min":82,"x_max":751,"o":"m 379 -17 q 189 13 261 -17 q 82 72 117 42 l 168 188 q 250 143 203 164 q 379 122 297 122 q 540 178 479 122 q 601 322 601 233 q 552 455 601 410 q 422 500 503 500 q 333 482 372 500 q 267 433 294 464 l 110 492 l 143 972 l 689 972 l 689 833 l 278 833 l 257 586 q 335 624 288 608 q 443 639 383 639 q 675 542 599 639 q 751 326 751 444 q 647 76 751 169 q 379 -17 542 -17 z "},"6":{"ha":831,"x_min":89,"x_max":763,"o":"m 426 -17 q 172 92 256 -17 q 89 360 89 200 q 146 653 89 522 q 320 871 203 783 q 621 989 438 958 l 621 850 q 400 758 500 831 q 261 542 300 685 q 340 590 289 569 q 461 611 392 611 q 678 524 593 611 q 763 296 763 436 q 669 69 763 156 q 426 -17 576 -17 m 426 122 q 560 168 508 122 q 613 296 613 214 q 560 426 613 381 q 426 472 508 472 q 292 426 344 472 q 239 296 239 381 q 292 168 239 214 q 426 122 344 122 z "},"7":{"ha":743,"x_min":33,"x_max":689,"o":"m 250 0 q 323 442 253 249 q 529 831 393 636 l 33 831 l 33 972 l 689 972 l 689 815 q 517 540 581 689 q 427 250 454 392 q 400 0 400 108 l 250 0 z "},"8":{"ha":851,"x_min":89,"x_max":763,"o":"m 425 -17 q 181 68 274 -17 q 89 285 89 153 q 134 436 89 375 q 251 532 179 497 q 163 614 194 564 q 131 735 131 664 q 211 916 131 843 q 425 989 292 989 q 640 916 558 989 q 721 735 721 843 q 689 615 721 665 q 599 532 657 565 q 717 436 672 497 q 763 285 763 375 q 669 68 763 153 q 425 -17 576 -17 m 425 122 q 559 169 506 122 q 613 289 613 215 q 559 410 613 360 q 425 461 506 461 q 291 410 343 461 q 239 289 239 360 q 291 169 239 215 q 425 122 343 122 m 425 600 q 532 638 490 600 q 574 726 574 675 q 532 817 574 783 q 425 850 490 850 q 319 817 360 850 q 278 726 278 783 q 319 638 278 675 q 425 600 360 600 z "},"9":{"ha":831,"x_min":68,"x_max":742,"o":"m 238 -17 l 238 131 q 445 197 349 136 q 574 432 542 258 q 502 384 551 407 q 381 361 453 361 q 156 447 244 361 q 68 676 68 533 q 162 903 68 817 q 406 989 256 989 q 661 881 581 989 q 742 613 742 772 q 688 292 742 431 q 522 72 633 153 q 238 -17 410 -8 m 404 508 q 538 553 488 508 q 589 678 589 599 q 538 797 589 753 q 406 842 486 842 q 273 797 325 842 q 221 676 221 753 q 271 552 221 596 q 404 508 321 508 z "},"Ð":{"ha":951,"x_min":35,"x_max":861,"o":"m 125 419 l 35 419 l 35 553 l 125 553 l 125 972 l 397 972 q 669 901 567 972 q 816 717 771 829 q 861 486 861 606 q 818 263 861 375 q 672 75 775 150 q 392 0 569 0 l 125 0 l 125 419 m 415 136 q 591 190 526 136 q 683 324 656 243 q 711 486 711 404 q 683 653 711 574 q 592 785 654 733 q 431 836 531 836 l 269 836 l 269 553 l 479 553 l 479 419 l 269 419 l 269 136 l 415 136 z "},"ð":{"ha":788,"x_min":69,"x_max":718,"o":"m 393 -17 q 161 75 253 -17 q 69 307 69 167 q 161 542 69 450 q 379 633 253 633 q 495 606 443 633 q 569 536 547 579 q 517 678 553 617 q 429 782 481 740 l 343 692 l 267 764 l 336 836 q 186 867 269 863 l 186 989 q 316 972 256 986 q 428 933 376 958 l 508 1017 l 585 943 l 519 875 q 669 662 621 793 q 718 374 718 531 q 639 97 718 211 q 393 -17 560 -17 m 393 119 q 522 173 469 119 q 574 306 574 226 q 522 443 574 389 q 392 497 471 497 q 264 444 314 497 q 214 307 214 392 q 266 173 214 226 q 393 119 318 119 z "},"Ł":{"ha":779,"x_min":28,"x_max":744,"o":"m 125 0 l 125 331 l 28 257 l 28 417 l 125 490 l 125 972 l 269 972 l 269 601 l 451 740 l 451 581 l 269 442 l 269 139 l 744 139 l 744 0 l 125 0 z "},"ł":{"ha":367,"x_min":28,"x_max":339,"o":"m 111 0 l 111 332 l 28 268 l 28 403 l 111 467 l 111 935 l 256 1003 l 256 576 l 339 640 l 339 506 l 256 442 l 256 0 l 111 0 z "},"Š":{"ha":839,"x_min":69,"x_max":756,"o":"m 424 -17 q 199 47 293 -17 q 69 219 106 111 l 206 269 q 294 163 236 204 q 429 122 351 122 q 557 160 508 122 q 606 272 606 199 q 539 388 606 351 q 386 456 472 425 q 254 511 319 481 q 146 594 189 542 q 103 735 103 646 q 183 913 103 838 q 413 989 264 989 q 612 934 536 989 q 713 796 688 879 l 579 751 q 517 822 561 793 q 401 850 472 850 q 292 819 332 850 q 253 733 253 789 q 311 644 253 674 q 449 586 369 614 q 590 526 519 561 q 708 433 661 492 q 756 274 756 375 q 660 58 756 133 q 424 -17 564 -17 m 486 1063 l 340 1063 l 144 1279 l 283 1279 l 414 1169 l 544 1279 l 683 1279 l 486 1063 z "},"š":{"ha":660,"x_min":50,"x_max":590,"o":"m 324 -17 q 167 15 240 -17 q 56 99 93 46 l 158 186 q 221 140 181 165 q 321 114 261 114 q 410 131 375 114 q 446 190 446 147 q 402 257 446 233 q 299 303 358 281 q 129 392 186 340 q 72 531 72 444 q 144 676 72 625 q 319 726 217 726 q 472 694 411 726 q 568 619 533 661 l 464 536 q 410 576 444 556 q 319 596 375 596 q 247 578 274 596 q 219 531 219 561 q 260 474 219 494 q 357 431 300 453 q 485 374 433 406 q 564 298 538 342 q 590 190 590 254 q 517 36 590 89 q 324 -17 444 -17 m 392 800 l 246 800 l 50 1017 l 189 1017 l 319 907 l 450 1017 l 589 1017 l 392 800 z "},"Ý":{"ha":925,"x_min":49,"x_max":876,"o":"m 390 0 l 390 381 l 49 972 l 214 972 l 463 528 l 711 972 l 876 972 l 535 382 l 535 0 l 390 0 m 314 1063 l 511 1279 l 708 1279 l 461 1063 l 314 1063 z "},"ý":{"ha":747,"x_min":35,"x_max":713,"o":"m 190 -269 l 300 13 l 35 710 l 178 710 l 353 246 q 364 213 360 226 q 372 183 368 200 q 381 213 376 200 q 392 246 385 226 l 568 710 l 713 710 l 338 -269 l 190 -269 m 199 800 l 396 1017 l 593 1017 l 346 800 l 199 800 z "},"Þ":{"ha":892,"x_min":125,"x_max":836,"o":"m 125 0 l 125 972 l 269 972 l 269 792 l 515 792 q 765 698 694 792 q 836 494 836 604 q 804 358 836 426 q 701 243 772 289 q 515 197 631 197 l 269 197 l 269 0 l 125 0 m 524 336 q 650 388 614 336 q 686 494 686 439 q 653 599 686 546 q 524 653 619 653 l 269 653 l 269 336 l 524 336 z "},"þ":{"ha":781,"x_min":104,"x_max":711,"o":"m 419 -17 q 316 6 357 -17 q 249 61 275 29 l 249 -212 l 104 -279 l 104 921 l 249 989 l 249 653 q 317 705 276 683 q 419 726 358 726 q 633 628 554 726 q 711 354 711 529 q 631 81 711 179 q 419 -17 550 -17 m 399 119 q 524 180 481 119 q 567 354 567 240 q 523 524 567 457 q 399 590 479 590 q 310 569 349 590 q 249 510 272 549 l 249 201 q 310 144 272 169 q 399 119 347 119 z "},"Ž":{"ha":919,"x_min":76,"x_max":829,"o":"m 76 0 l 76 117 l 638 833 l 108 833 l 108 972 l 829 972 l 829 856 l 267 139 l 829 139 l 829 0 l 76 0 m 563 1063 l 417 1063 l 221 1279 l 360 1279 l 490 1169 l 621 1279 l 760 1279 l 563 1063 z "},"ž":{"ha":710,"x_min":76,"x_max":626,"o":"m 76 0 l 76 118 l 453 582 l 104 582 l 104 710 l 626 710 l 626 596 l 250 128 l 625 128 l 625 0 l 76 0 m 428 800 l 282 800 l 86 1017 l 225 1017 l 356 907 l 486 1017 l 625 1017 l 428 800 z "},"½":{"ha":1014,"x_min":14,"x_max":961,"o":"m 14 -17 l 678 989 l 810 989 l 146 -17 l 14 -17 m 97 393 l 97 857 l 21 857 l 21 942 q 85 951 64 942 q 119 979 107 960 l 211 979 l 211 393 l 97 393 m 553 0 q 614 206 553 125 q 757 329 675 286 q 815 366 790 347 q 840 419 840 385 q 820 467 840 447 q 761 488 800 488 q 697 464 722 488 q 664 397 672 440 l 551 424 q 624 547 567 497 q 761 596 682 596 q 908 545 854 596 q 961 417 961 494 q 915 301 961 339 q 803 229 869 264 q 729 173 756 204 q 688 108 703 142 l 960 108 l 960 0 l 553 0 z "},"¼":{"ha":953,"x_min":14,"x_max":921,"o":"m 14 -17 l 678 989 l 810 989 l 146 -17 l 14 -17 m 97 393 l 97 857 l 21 857 l 21 942 q 85 951 64 942 q 119 979 107 960 l 211 979 l 211 393 l 97 393 m 735 0 l 735 119 l 440 119 l 440 193 l 739 588 l 846 588 l 846 226 l 921 226 l 921 119 l 846 119 l 846 0 l 735 0 m 735 226 l 735 424 l 583 226 l 735 226 z "},"¹":{"ha":278,"x_min":14,"x_max":204,"o":"m 90 617 l 90 1081 l 14 1081 l 14 1165 q 79 1174 58 1165 q 113 1203 100 1183 l 204 1203 l 204 617 l 90 617 z "},"¾":{"ha":1119,"x_min":17,"x_max":1088,"o":"m 181 -17 l 844 989 l 976 989 l 313 -17 l 181 -17 m 229 382 q 94 427 149 382 q 17 553 39 472 l 131 583 q 172 513 142 535 q 233 490 201 490 q 293 510 269 490 q 317 565 317 529 q 296 617 317 594 q 228 640 275 640 l 185 640 l 185 749 l 226 749 q 279 767 263 749 q 296 814 296 786 q 278 861 296 842 q 229 881 261 881 q 178 862 197 881 q 149 813 158 843 l 38 853 q 113 951 63 914 q 232 989 163 989 q 367 939 318 989 q 415 819 415 889 q 397 751 415 783 q 347 699 378 718 q 413 644 389 681 q 436 564 436 607 q 378 431 436 481 q 229 382 321 382 m 901 0 l 901 119 l 607 119 l 607 193 l 906 588 l 1013 588 l 1013 226 l 1088 226 l 1088 119 l 1013 119 l 1013 0 l 901 0 m 901 226 l 901 424 l 750 226 l 901 226 z "},"³":{"ha":482,"x_min":17,"x_max":436,"o":"m 229 606 q 94 651 149 606 q 17 776 39 696 l 131 807 q 172 736 142 758 q 233 714 201 714 q 293 733 269 714 q 317 789 317 753 q 296 841 317 818 q 228 864 275 864 l 185 864 l 185 972 l 226 972 q 279 992 263 972 q 296 1038 296 1011 q 278 1085 296 1065 q 229 1104 261 1104 q 178 1085 197 1104 q 149 1036 158 1067 l 38 1076 q 113 1175 63 1138 q 232 1213 163 1213 q 367 1162 318 1213 q 415 1043 415 1111 q 397 975 415 1008 q 347 922 378 942 q 413 867 389 903 q 436 788 436 831 q 378 655 436 704 q 229 606 321 606 z "},"²":{"ha":496,"x_min":33,"x_max":443,"o":"m 35 617 q 96 822 35 742 q 239 946 157 903 q 297 983 272 964 q 322 1036 322 1001 q 302 1084 322 1064 q 243 1104 282 1104 q 146 1014 164 1104 l 33 1040 q 106 1163 47 1114 q 243 1213 164 1213 q 390 1162 336 1213 q 443 1033 443 1111 q 397 918 443 956 q 285 846 351 881 q 210 790 236 821 q 169 725 183 758 l 442 725 l 442 617 l 35 617 z "},"¦":{"ha":381,"x_min":118,"x_max":263,"o":"m 118 508 l 118 1146 l 263 1146 l 263 508 l 118 508 m 118 -312 l 118 325 l 263 325 l 263 -312 l 118 -312 z "},"−":{"ha":875,"x_min":111,"x_max":764,"o":"m 111 407 l 111 546 l 764 546 l 764 407 l 111 407 z "},"×":{"ha":875,"x_min":115,"x_max":760,"o":"m 439 375 l 219 154 l 115 258 l 336 478 l 117 697 l 217 797 l 436 578 l 656 799 l 760 694 l 539 475 l 758 256 l 658 156 l 439 375 z "}," ":{"ha":333,"x_min":0,"x_max":0,"o":""},"!":{"ha":383,"x_min":88,"x_max":297,"o":"m 160 268 l 119 681 l 119 989 l 264 989 l 264 681 l 224 268 l 160 268 m 192 -17 q 117 13 147 -17 q 88 85 88 43 q 117 157 88 126 q 192 188 147 188 q 267 157 236 188 q 297 85 297 126 q 267 13 297 43 q 192 -17 236 -17 z "},"\"":{"ha":583,"x_min":63,"x_max":521,"o":"m 63 972 l 243 972 l 214 583 l 92 583 l 63 972 m 340 972 l 521 972 l 492 583 l 369 583 l 340 972 z "},"#":{"ha":944,"x_min":58,"x_max":886,"o":"m 176 0 l 217 263 l 58 263 l 76 382 l 235 382 l 269 611 l 111 611 l 129 731 l 288 731 l 325 972 l 449 972 l 411 731 l 604 731 l 642 972 l 765 972 l 728 731 l 886 731 l 868 611 l 710 611 l 675 382 l 833 382 l 815 263 l 657 263 l 617 0 l 493 0 l 533 263 l 340 263 l 300 0 l 176 0 m 358 382 l 551 382 l 586 611 l 393 611 l 358 382 z "},"$":{"ha":811,"x_min":69,"x_max":728,"o":"m 332 -136 l 332 -10 q 167 69 236 8 q 69 219 99 129 l 206 269 q 288 163 233 204 q 414 122 342 122 q 533 160 488 122 q 578 272 578 199 q 515 388 578 351 q 371 456 453 425 q 245 511 307 481 q 143 594 183 542 q 103 735 103 646 q 163 894 103 825 q 332 983 222 964 l 332 1096 l 476 1096 l 476 982 q 613 915 560 965 q 685 796 665 864 l 551 751 q 494 822 535 793 q 389 850 453 850 q 253 733 253 850 q 308 644 253 674 q 436 586 363 614 q 570 527 503 561 q 683 434 638 493 q 728 274 728 375 q 656 79 728 151 q 476 -11 583 7 l 476 -136 l 332 -136 z "},"%":{"ha":1182,"x_min":63,"x_max":1119,"o":"m 290 494 q 114 574 165 494 q 63 742 63 654 q 85 853 63 796 q 156 950 107 911 q 290 989 206 989 q 467 909 415 989 q 518 742 518 829 q 497 631 518 689 q 425 534 475 574 q 290 494 375 494 m 290 606 q 374 646 347 606 q 401 742 401 686 q 374 840 401 801 q 290 878 347 878 q 206 838 233 878 q 179 742 179 797 q 206 644 179 682 q 290 606 233 606 m 325 -17 l 193 -17 l 857 989 l 989 989 l 325 -17 m 892 -17 q 715 63 767 -17 q 664 231 664 143 q 686 342 664 285 q 758 439 708 400 q 892 478 808 478 q 1068 398 1017 478 q 1119 231 1119 318 q 1069 67 1119 150 q 892 -17 1019 -17 m 892 94 q 976 135 949 94 q 1003 231 1003 175 q 975 328 1003 290 q 892 367 947 367 q 808 326 835 367 q 781 231 781 286 q 808 133 781 171 q 892 94 836 94 z "},"&":{"ha":974,"x_min":83,"x_max":942,"o":"m 372 -17 q 164 58 244 -17 q 83 257 83 133 q 151 440 83 374 q 300 554 218 507 q 225 663 250 615 q 200 769 200 710 q 269 931 200 872 q 439 989 339 989 q 606 926 539 989 q 674 767 674 864 q 624 623 674 679 q 506 525 574 567 l 658 342 q 678 408 671 375 q 685 471 685 442 l 825 471 q 807 347 824 411 q 757 222 790 282 l 942 0 l 750 0 l 667 103 q 538 16 611 49 q 372 -17 464 -17 m 392 119 q 494 145 447 119 q 579 211 542 171 l 383 451 q 281 372 324 415 q 239 264 239 328 q 281 160 239 200 q 392 119 322 119 m 435 861 q 366 836 393 861 q 339 771 339 811 q 366 697 339 733 q 425 622 393 661 q 503 684 472 651 q 535 761 535 717 q 505 835 535 808 q 435 861 475 861 z "},"'":{"ha":306,"x_min":63,"x_max":243,"o":"m 63 972 l 243 972 l 214 583 l 92 583 l 63 972 z "},"(":{"ha":479,"x_min":97,"x_max":424,"o":"m 267 -181 q 150 43 203 -97 q 97 394 97 183 q 155 756 97 606 q 282 989 213 906 l 424 989 q 353 872 396 956 q 276 667 310 789 q 242 394 242 544 q 274 126 242 243 q 345 -69 306 8 q 408 -181 385 -147 l 267 -181 z "},")":{"ha":479,"x_min":56,"x_max":382,"o":"m 71 -181 q 134 -69 94 -147 q 206 126 174 8 q 238 394 238 243 q 203 667 238 544 q 126 872 169 789 q 56 989 83 956 l 197 989 q 324 756 267 906 q 382 394 382 606 q 329 43 382 183 q 213 -181 276 -97 l 71 -181 z "},"*":{"ha":736,"x_min":69,"x_max":667,"o":"m 400 536 l 368 632 l 336 536 l 240 407 l 136 483 l 231 613 l 308 671 l 213 671 l 69 718 l 110 842 l 253 796 l 329 742 l 303 832 l 303 989 l 433 989 l 433 832 l 406 740 l 483 796 l 626 842 l 667 718 l 524 671 l 426 671 l 506 613 l 600 483 l 496 407 l 400 536 z "},"+":{"ha":875,"x_min":111,"x_max":764,"o":"m 510 407 l 510 150 l 365 150 l 365 407 l 111 407 l 111 546 l 365 546 l 365 803 l 510 803 l 510 546 l 764 546 l 764 407 l 510 407 z "},",":{"ha":310,"x_min":49,"x_max":261,"o":"m 57 -161 q 106 -103 75 -144 q 142 -17 136 -62 q 77 13 106 -14 q 49 81 49 39 q 80 157 49 128 q 151 186 111 186 q 228 155 194 186 q 261 60 261 124 q 217 -89 261 -21 q 111 -196 172 -157 l 57 -161 z "},"-":{"ha":549,"x_min":104,"x_max":444,"o":"m 104 343 l 104 482 l 444 482 l 444 343 l 104 343 z "},".":{"ha":310,"x_min":50,"x_max":260,"o":"m 154 -17 q 80 13 110 -17 q 50 85 50 43 q 80 157 50 126 q 154 188 110 188 q 228 157 197 188 q 260 85 260 126 q 228 13 260 43 q 154 -17 197 -17 z "},"/":{"ha":685,"x_min":-21,"x_max":671,"o":"m -21 -181 l 525 989 l 671 989 l 125 -181 l -21 -181 z "},":":{"ha":310,"x_min":50,"x_max":260,"o":"m 154 468 q 80 498 110 468 q 50 569 50 528 q 80 642 50 611 q 154 672 110 672 q 228 642 197 672 q 260 569 260 611 q 228 498 260 528 q 154 468 197 468 m 154 -17 q 80 13 110 -17 q 50 85 50 43 q 80 157 50 126 q 154 188 110 188 q 228 157 197 188 q 260 85 260 126 q 228 13 260 43 q 154 -17 197 -17 z "},";":{"ha":310,"x_min":49,"x_max":261,"o":"m 153 468 q 78 498 108 468 q 49 569 49 528 q 78 642 49 611 q 153 672 108 672 q 228 642 197 672 q 258 569 258 611 q 228 498 258 528 q 153 468 197 468 m 57 -161 q 106 -103 75 -144 q 142 -17 136 -62 q 77 13 106 -14 q 49 81 49 39 q 80 157 49 128 q 151 186 111 186 q 228 155 194 186 q 261 60 261 124 q 217 -89 261 -21 q 111 -196 172 -157 l 57 -161 z "},"<":{"ha":875,"x_min":111,"x_max":764,"o":"m 764 150 l 111 415 l 111 538 l 764 803 l 764 657 l 308 476 l 764 296 l 764 150 z "},"=":{"ha":875,"x_min":111,"x_max":764,"o":"m 111 272 l 111 411 l 764 411 l 764 272 l 111 272 m 111 542 l 111 681 l 764 681 l 764 542 l 111 542 z "},">":{"ha":875,"x_min":111,"x_max":764,"o":"m 764 415 l 111 150 l 111 296 l 567 476 l 111 657 l 111 803 l 764 538 l 764 415 z "},"?":{"ha":696,"x_min":28,"x_max":647,"o":"m 263 264 l 263 292 q 299 446 263 390 q 383 538 335 501 q 467 612 431 574 q 503 714 503 650 q 463 814 503 775 q 350 853 424 853 q 219 803 265 853 q 172 664 172 753 l 28 664 q 118 903 28 817 q 350 989 208 989 q 571 910 494 989 q 647 714 647 831 q 611 578 647 628 q 527 492 575 529 q 443 411 479 456 q 407 290 407 367 l 407 264 l 263 264 m 333 -17 q 259 13 289 -17 q 229 85 229 43 q 259 157 229 126 q 333 188 289 188 q 408 157 378 188 q 439 85 439 126 q 408 13 439 43 q 333 -17 378 -17 z "},"@":{"ha":1138,"x_min":83,"x_max":1054,"o":"m 578 -17 q 224 110 364 -17 q 83 468 83 236 q 151 738 83 621 q 335 922 219 856 q 592 989 450 989 q 928 866 803 989 q 1054 571 1054 743 q 975 322 1054 419 q 792 225 896 225 q 726 246 756 225 q 690 307 697 267 q 621 241 663 263 q 528 219 579 219 q 383 285 439 219 q 328 457 328 350 q 397 653 328 561 q 579 744 465 744 q 660 726 625 744 q 717 664 694 707 l 728 726 l 851 726 l 807 492 q 793 415 799 447 q 788 364 788 382 q 811 329 788 329 q 897 400 857 329 q 938 569 938 471 q 848 786 938 697 q 597 875 758 875 q 319 757 426 875 q 211 467 211 639 q 310 194 211 292 q 583 97 410 97 q 673 102 631 97 q 754 117 715 107 l 725 -7 q 655 -15 692 -12 q 578 -17 618 -17 m 549 339 q 649 394 613 339 q 685 510 685 450 q 660 593 685 561 q 590 625 636 625 q 492 575 531 625 q 453 456 453 525 q 478 371 453 403 q 549 339 504 339 z "},"A":{"ha":967,"x_min":58,"x_max":908,"o":"m 758 0 l 681 224 l 288 224 l 208 0 l 58 0 l 410 972 l 558 972 l 908 0 l 758 0 m 636 351 l 518 682 q 500 736 510 706 q 485 792 490 767 q 469 736 478 767 q 451 682 460 706 l 332 351 l 636 351 z "},"B":{"ha":925,"x_min":125,"x_max":835,"o":"m 125 972 l 493 972 q 733 892 667 972 q 800 713 800 811 q 767 598 800 653 q 667 511 733 543 q 796 416 757 479 q 835 285 835 353 q 804 153 835 219 q 703 44 774 88 q 514 0 633 0 l 125 0 l 125 972 m 525 133 q 654 180 621 133 q 688 278 688 226 q 647 388 688 339 q 483 438 606 438 l 269 438 l 269 133 l 525 133 m 469 571 q 607 608 561 571 q 653 706 653 646 q 624 796 653 753 q 497 839 594 839 l 269 839 l 269 571 l 469 571 z "},"C":{"ha":903,"x_min":90,"x_max":826,"o":"m 494 -17 q 256 59 344 -17 q 128 251 167 135 q 90 486 90 367 q 129 714 90 597 q 256 910 168 831 q 494 989 344 989 q 714 928 632 989 q 825 796 796 868 l 693 735 q 614 820 658 790 q 494 850 569 850 q 342 792 397 850 q 263 651 286 735 q 240 486 240 567 q 267 316 240 400 q 349 177 293 232 q 494 122 406 122 q 613 157 567 122 q 692 247 658 192 l 826 196 q 705 42 786 101 q 494 -17 624 -17 z "},"D":{"ha":951,"x_min":125,"x_max":861,"o":"m 125 972 l 397 972 q 669 901 567 972 q 816 717 771 829 q 861 486 861 606 q 818 263 861 375 q 672 75 775 150 q 392 0 569 0 l 125 0 l 125 972 m 415 136 q 591 190 526 136 q 683 324 656 243 q 711 486 711 404 q 683 653 711 574 q 592 785 654 733 q 431 836 531 836 l 269 836 l 269 136 l 415 136 z "},"E":{"ha":835,"x_min":125,"x_max":758,"o":"m 125 0 l 125 972 l 728 972 l 728 836 l 269 836 l 269 569 l 565 569 l 565 433 l 269 433 l 269 136 l 758 136 l 758 0 l 125 0 z "},"F":{"ha":776,"x_min":125,"x_max":728,"o":"m 125 0 l 125 972 l 728 972 l 728 836 l 269 836 l 269 569 l 565 569 l 565 433 l 269 433 l 269 0 l 125 0 z "},"G":{"ha":958,"x_min":90,"x_max":868,"o":"m 514 -17 q 271 56 364 -17 q 134 244 178 129 q 90 486 90 358 q 135 721 90 606 q 275 913 181 836 q 514 989 369 989 q 727 933 653 989 q 846 804 801 876 l 715 729 q 635 813 682 778 q 514 847 589 847 q 349 790 408 847 q 265 650 289 733 q 240 486 240 567 q 269 310 240 393 q 357 176 297 228 q 514 125 417 125 q 663 185 606 125 q 719 331 719 244 l 719 350 l 544 350 l 544 486 l 868 486 l 868 360 q 766 80 868 176 q 514 -17 664 -17 z "},"H":{"ha":982,"x_min":125,"x_max":857,"o":"m 713 0 l 713 433 l 269 433 l 269 0 l 125 0 l 125 972 l 269 972 l 269 569 l 713 569 l 713 972 l 857 972 l 857 0 l 713 0 z "},"I":{"ha":408,"x_min":132,"x_max":276,"o":"m 132 0 l 132 972 l 276 972 l 276 0 l 132 0 z "},"J":{"ha":785,"x_min":35,"x_max":667,"o":"m 343 -17 q 158 30 239 -17 q 35 167 76 76 l 160 228 q 233 148 186 174 q 343 122 279 122 q 467 164 411 122 q 522 346 522 206 l 522 972 l 667 972 l 667 326 q 617 116 667 190 q 492 13 567 42 q 343 -17 417 -17 z "},"K":{"ha":940,"x_min":125,"x_max":885,"o":"m 715 0 l 442 508 l 269 300 l 269 0 l 125 0 l 125 972 l 269 972 l 269 501 l 644 972 l 811 972 l 539 631 l 885 0 l 715 0 z "},"L":{"ha":779,"x_min":125,"x_max":744,"o":"m 125 0 l 125 972 l 269 972 l 269 139 l 744 139 l 744 0 l 125 0 z "},"M":{"ha":1117,"x_min":125,"x_max":992,"o":"m 992 0 l 847 0 l 847 532 q 849 617 847 568 q 854 689 851 667 q 826 608 843 654 q 794 528 808 563 l 560 -17 l 324 532 q 291 610 308 565 q 263 689 274 654 q 267 617 265 667 q 269 532 269 568 l 269 0 l 125 0 l 125 972 l 271 972 l 532 365 q 546 327 539 347 q 558 289 553 307 q 572 327 564 307 q 586 365 579 347 l 846 972 l 992 972 l 992 0 z "},"N":{"ha":986,"x_min":125,"x_max":861,"o":"m 861 0 l 725 0 l 304 660 q 285 694 294 676 q 265 732 275 713 q 268 697 267 715 q 269 660 269 678 l 269 0 l 125 0 l 125 972 l 271 972 l 681 324 q 701 288 692 306 q 721 249 711 269 q 718 287 719 269 q 717 322 717 304 l 717 972 l 861 972 l 861 0 z "},"O":{"ha":1028,"x_min":90,"x_max":938,"o":"m 514 -17 q 265 59 358 -17 q 131 251 172 135 q 90 486 90 367 q 131 722 90 606 q 265 913 172 838 q 514 989 358 989 q 763 913 669 989 q 897 722 856 838 q 938 486 938 606 q 897 251 938 367 q 763 59 856 135 q 514 -17 669 -17 m 514 122 q 675 181 615 122 q 761 323 735 239 q 788 486 788 407 q 761 655 788 571 q 675 794 735 739 q 514 850 615 850 q 353 792 413 850 q 267 649 293 733 q 240 486 240 565 q 267 317 240 401 q 353 178 293 233 q 514 122 413 122 z "},"P":{"ha":878,"x_min":125,"x_max":836,"o":"m 125 0 l 125 972 l 515 972 q 765 878 694 972 q 836 675 836 785 q 804 538 836 607 q 701 424 772 469 q 515 378 631 378 l 269 378 l 269 0 l 125 0 m 524 517 q 650 568 614 517 q 686 675 686 619 q 653 780 686 726 q 524 833 619 833 l 269 833 l 269 517 l 524 517 z "},"Q":{"ha":1028,"x_min":90,"x_max":938,"o":"m 514 -17 q 265 59 358 -17 q 131 251 172 135 q 90 486 90 367 q 131 722 90 606 q 265 913 172 838 q 514 989 358 989 q 763 913 669 989 q 897 722 856 838 q 938 486 938 606 q 902 263 938 374 q 786 79 867 153 l 851 -18 l 740 -93 l 671 10 q 597 -10 636 -3 q 514 -17 558 -17 m 514 122 q 552 124 533 122 q 588 132 571 126 l 514 243 l 628 318 l 700 208 q 767 340 747 264 q 788 486 788 415 q 761 655 788 571 q 675 794 735 739 q 514 850 615 850 q 353 792 413 850 q 267 649 293 733 q 240 486 240 565 q 267 317 240 401 q 353 178 293 233 q 514 122 413 122 z "},"R":{"ha":939,"x_min":125,"x_max":849,"o":"m 125 0 l 125 972 l 535 972 q 781 883 714 972 q 849 685 849 794 q 799 519 849 600 q 638 410 749 439 l 838 0 l 672 0 l 481 397 l 269 397 l 269 0 l 125 0 m 269 536 l 538 536 q 663 582 628 536 q 699 685 699 628 q 666 785 699 736 q 538 833 633 833 l 269 833 l 269 536 z "},"S":{"ha":839,"x_min":69,"x_max":756,"o":"m 424 -17 q 199 47 293 -17 q 69 219 106 111 l 206 269 q 294 163 236 204 q 429 122 351 122 q 557 160 508 122 q 606 272 606 199 q 539 388 606 351 q 386 456 472 425 q 254 511 319 481 q 146 594 189 542 q 103 735 103 646 q 183 913 103 838 q 413 989 264 989 q 612 934 536 989 q 713 796 688 879 l 579 751 q 517 822 561 793 q 401 850 472 850 q 292 819 332 850 q 253 733 253 789 q 311 644 253 674 q 449 586 369 614 q 590 526 519 561 q 708 433 661 492 q 756 274 756 375 q 660 58 756 133 q 424 -17 564 -17 z "},"T":{"ha":819,"x_min":63,"x_max":757,"o":"m 482 833 l 482 0 l 338 0 l 338 833 l 63 833 l 63 972 l 757 972 l 757 833 l 482 833 z "},"U":{"ha":968,"x_min":118,"x_max":850,"o":"m 483 -17 q 300 19 383 -17 q 167 140 217 56 q 118 368 118 224 l 118 972 l 263 972 l 263 368 q 326 172 263 222 q 483 122 389 122 q 642 172 578 122 q 706 368 706 222 l 706 972 l 850 972 l 850 368 q 801 141 850 225 q 670 20 753 57 q 483 -17 588 -17 z "},"V":{"ha":921,"x_min":56,"x_max":865,"o":"m 389 0 l 56 972 l 211 972 l 432 294 q 447 246 439 275 q 463 183 456 217 q 478 246 469 217 q 493 294 486 275 l 711 972 l 865 972 l 533 0 l 389 0 z "},"W":{"ha":1183,"x_min":63,"x_max":1121,"o":"m 271 0 l 63 972 l 211 972 l 332 374 q 345 306 340 332 q 353 261 350 281 q 361 306 356 281 q 378 374 367 331 l 531 972 l 651 972 l 808 375 q 825 308 819 333 q 833 264 831 283 q 840 309 836 283 q 853 375 844 335 l 975 972 l 1121 972 l 911 0 l 781 0 l 613 631 q 597 693 603 669 q 589 736 592 717 q 581 693 586 717 q 565 631 575 669 l 401 0 l 271 0 z "},"X":{"ha":903,"x_min":69,"x_max":833,"o":"m 667 0 l 451 363 l 236 0 l 69 0 l 368 503 l 90 972 l 257 972 l 451 643 l 646 972 l 813 972 l 535 503 l 833 0 l 667 0 z "},"Y":{"ha":925,"x_min":49,"x_max":876,"o":"m 390 0 l 390 381 l 49 972 l 214 972 l 463 528 l 711 972 l 876 972 l 535 382 l 535 0 l 390 0 z "},"Z":{"ha":919,"x_min":76,"x_max":829,"o":"m 76 0 l 76 117 l 638 833 l 108 833 l 108 972 l 829 972 l 829 856 l 267 139 l 829 139 l 829 0 l 76 0 z "},"[":{"ha":517,"x_min":139,"x_max":461,"o":"m 139 -181 l 139 989 l 461 989 l 461 853 l 283 853 l 283 -44 l 461 -44 l 461 -181 l 139 -181 z "},"\\":{"ha":685,"x_min":-21,"x_max":671,"o":"m 525 -181 l -21 989 l 125 989 l 671 -181 l 525 -181 z "},"]":{"ha":517,"x_min":56,"x_max":378,"o":"m 378 -181 l 56 -181 l 56 -44 l 233 -44 l 233 853 l 56 853 l 56 989 l 378 989 l 378 -181 z "},"^":{"ha":875,"x_min":97,"x_max":778,"o":"m 629 486 l 438 806 l 246 486 l 97 486 l 376 989 l 499 989 l 778 486 l 629 486 z "},"_":{"ha":694,"x_min":-7,"x_max":701,"o":"m -7 -246 l -7 -121 l 701 -121 l 701 -246 l -7 -246 z "},"`":{"ha":556,"x_min":58,"x_max":453,"o":"m 306 800 l 58 1017 l 256 1017 l 453 800 l 306 800 z "},"a":{"ha":739,"x_min":63,"x_max":649,"o":"m 510 0 l 510 61 q 435 8 483 33 q 315 -17 386 -17 q 135 43 207 -17 q 63 221 63 103 q 147 400 63 344 q 335 456 231 456 q 429 445 383 456 q 510 414 475 435 l 510 453 q 473 566 510 533 q 358 599 436 599 q 243 581 292 599 q 156 535 194 564 l 113 653 q 223 705 156 683 q 378 726 290 726 q 501 709 439 726 q 606 635 564 692 q 649 460 649 578 l 649 0 l 510 0 m 342 111 q 440 133 397 111 q 510 188 482 156 l 510 296 q 440 321 481 311 q 358 331 400 331 q 248 305 294 331 q 201 221 201 279 q 237 141 201 171 q 342 111 272 111 z "},"b":{"ha":781,"x_min":104,"x_max":711,"o":"m 417 -17 q 316 4 356 -17 q 249 57 276 25 l 249 0 l 104 0 l 104 936 l 249 1003 l 249 656 q 317 706 275 686 q 417 726 358 726 q 629 628 547 726 q 711 356 711 531 q 632 79 711 175 q 417 -17 553 -17 m 399 119 q 524 183 481 119 q 567 356 567 247 q 399 590 567 590 q 304 563 343 590 q 249 510 265 536 l 249 200 q 311 140 272 161 q 399 119 350 119 z "},"c":{"ha":719,"x_min":69,"x_max":650,"o":"m 379 -17 q 153 81 236 -17 q 69 354 69 179 q 153 628 69 529 q 379 726 236 726 q 547 682 478 726 q 647 543 617 638 l 510 496 q 463 562 494 536 q 385 588 431 588 q 260 525 303 588 q 217 354 217 463 q 260 184 217 246 q 379 122 303 122 q 513 226 482 122 l 650 183 q 553 34 622 85 q 379 -17 485 -17 z "},"d":{"ha":781,"x_min":69,"x_max":676,"o":"m 364 -17 q 149 82 229 -17 q 69 356 69 181 q 151 628 69 531 q 364 726 233 726 q 464 707 422 726 q 532 660 506 688 l 532 936 l 676 1003 l 676 0 l 532 0 l 532 50 q 464 1 504 19 q 364 -17 424 -17 m 385 119 q 532 200 482 119 l 532 513 q 478 565 515 539 q 385 590 440 590 q 214 356 214 590 q 259 186 214 253 q 385 119 304 119 z "},"e":{"ha":760,"x_min":69,"x_max":697,"o":"m 392 -17 q 157 82 244 -17 q 69 356 69 181 q 158 628 69 531 q 392 726 246 726 q 608 645 518 726 q 697 394 697 564 q 696 346 697 372 q 692 301 694 319 l 214 301 q 271 163 217 214 q 393 111 325 111 q 475 129 436 111 q 540 183 514 147 l 635 86 q 535 12 596 40 q 392 -17 475 -17 m 214 418 l 553 418 q 499 558 550 517 q 392 599 449 599 q 272 558 324 599 q 214 418 219 517 z "},"f":{"ha":465,"x_min":49,"x_max":458,"o":"m 299 585 l 299 0 l 154 0 l 154 585 l 49 585 l 49 710 l 154 710 l 154 824 q 205 956 154 922 q 317 989 256 989 q 393 980 358 989 q 458 956 428 971 l 458 836 q 403 856 426 850 q 357 861 379 861 q 310 843 322 861 q 299 797 299 825 l 299 710 l 458 710 l 458 585 l 299 585 z "},"g":{"ha":781,"x_min":69,"x_max":676,"o":"m 342 -278 l 269 -167 q 478 -114 425 -157 q 532 -6 532 -71 l 532 57 q 459 1 501 19 q 361 -17 417 -17 q 154 76 239 -17 q 69 356 69 169 q 151 628 69 531 q 364 726 233 726 q 467 705 426 726 q 532 660 508 683 l 532 710 l 676 710 l 676 46 q 638 -135 676 -67 q 526 -236 600 -203 q 342 -278 451 -269 m 388 119 q 469 142 431 119 q 532 203 508 164 l 532 510 q 470 567 510 544 q 388 590 431 590 q 214 356 214 590 q 260 183 214 247 q 388 119 307 119 z "},"h":{"ha":785,"x_min":104,"x_max":688,"o":"m 104 0 l 104 936 l 249 1003 l 249 642 q 432 726 315 726 q 564 697 506 726 q 655 601 622 668 q 688 424 688 535 l 688 0 l 543 0 l 543 424 q 502 552 543 514 q 401 590 461 590 q 292 554 336 590 q 249 426 249 518 l 249 0 l 104 0 z "},"i":{"ha":356,"x_min":90,"x_max":265,"o":"m 106 0 l 106 710 l 250 710 l 250 0 l 106 0 m 178 821 q 116 847 142 821 q 90 908 90 872 q 116 970 90 944 q 178 996 142 996 q 240 970 214 996 q 265 908 265 944 q 240 847 265 872 q 178 821 214 821 z "},"j":{"ha":356,"x_min":-87,"x_max":265,"o":"m -18 -297 l -87 -190 q 64 -129 22 -167 q 106 -15 106 -92 l 106 710 l 250 710 l 250 33 q 238 -88 250 -29 q 183 -192 225 -147 q 82 -265 135 -243 q -18 -297 29 -286 m 178 821 q 116 847 142 821 q 90 908 90 872 q 116 970 90 944 q 178 996 142 996 q 240 970 214 996 q 265 908 265 944 q 240 847 265 872 q 178 821 214 821 z "},"k":{"ha":764,"x_min":104,"x_max":708,"o":"m 708 0 l 550 0 l 340 408 l 249 317 l 249 0 l 104 0 l 104 935 l 249 1003 l 249 490 l 458 710 l 636 710 l 442 513 l 708 0 z "},"l":{"ha":367,"x_min":111,"x_max":256,"o":"m 111 0 l 111 935 l 256 1003 l 256 0 l 111 0 z "},"m":{"ha":1179,"x_min":104,"x_max":1082,"o":"m 938 0 l 938 425 q 905 547 938 504 q 807 590 872 590 q 707 547 749 590 q 665 418 665 503 l 665 0 l 521 0 l 521 425 q 488 547 521 504 q 390 590 456 590 q 290 547 332 590 q 249 418 249 503 l 249 0 l 104 0 l 104 710 l 249 710 l 249 644 q 326 708 279 689 q 428 726 374 726 q 536 703 486 726 q 617 625 586 679 q 703 702 650 678 q 826 726 757 726 q 1008 663 935 726 q 1082 458 1082 599 l 1082 0 l 938 0 z "},"n":{"ha":785,"x_min":104,"x_max":688,"o":"m 543 0 l 543 424 q 502 552 543 514 q 401 590 461 590 q 292 554 336 590 q 249 426 249 518 l 249 0 l 104 0 l 104 710 l 249 710 l 249 642 q 432 726 315 726 q 564 697 506 726 q 655 601 622 668 q 688 424 688 535 l 688 0 l 543 0 z "},"o":{"ha":788,"x_min":69,"x_max":718,"o":"m 393 -17 q 157 81 244 -17 q 69 354 69 179 q 157 628 69 529 q 393 726 244 726 q 630 628 542 726 q 718 354 718 529 q 630 81 718 179 q 393 -17 542 -17 m 393 119 q 525 182 476 119 q 574 354 574 244 q 525 527 574 464 q 393 590 476 590 q 263 527 311 590 q 214 354 214 464 q 263 182 214 244 q 393 119 311 119 z "},"p":{"ha":781,"x_min":104,"x_max":711,"o":"m 419 -17 q 316 6 357 -17 q 249 61 275 29 l 249 -212 l 104 -279 l 104 710 l 249 710 l 249 653 q 317 705 276 683 q 419 726 358 726 q 633 628 554 726 q 711 354 711 529 q 631 81 711 179 q 419 -17 550 -17 m 399 119 q 567 354 567 119 q 523 524 567 457 q 399 590 479 590 q 310 569 349 590 q 249 510 272 549 l 249 201 q 310 144 272 169 q 399 119 347 119 z "},"q":{"ha":781,"x_min":69,"x_max":676,"o":"m 364 -17 q 151 81 233 -17 q 69 354 69 179 q 149 628 69 529 q 364 726 229 726 q 464 705 424 726 q 532 653 504 683 l 532 710 l 676 710 l 676 -212 l 532 -278 l 532 61 q 463 5 504 26 q 364 -17 422 -17 m 382 119 q 475 147 438 119 q 532 201 513 175 l 532 510 q 469 570 507 550 q 382 590 431 590 q 258 524 301 590 q 214 354 214 457 q 382 119 214 119 z "},"r":{"ha":551,"x_min":104,"x_max":526,"o":"m 104 0 l 104 710 l 249 710 l 249 624 q 314 702 274 678 q 407 726 354 726 q 472 715 442 726 q 526 683 503 704 l 506 550 q 459 574 486 564 q 393 585 432 585 q 297 547 344 585 q 249 399 249 508 l 249 0 l 104 0 z "},"s":{"ha":660,"x_min":56,"x_max":590,"o":"m 324 -17 q 167 15 240 -17 q 56 99 93 46 l 158 186 q 221 140 181 165 q 321 114 261 114 q 410 131 375 114 q 446 190 446 147 q 402 257 446 233 q 299 303 358 281 q 129 392 186 340 q 72 531 72 444 q 144 676 72 625 q 319 726 217 726 q 472 694 411 726 q 568 619 533 661 l 464 536 q 410 576 444 556 q 319 596 375 596 q 247 578 274 596 q 219 531 219 561 q 260 474 219 494 q 357 431 300 453 q 485 374 433 406 q 564 298 538 342 q 590 190 590 254 q 517 36 590 89 q 324 -17 444 -17 z "},"t":{"ha":526,"x_min":42,"x_max":471,"o":"m 310 -17 q 188 31 225 -17 q 151 160 151 79 l 151 585 l 42 585 l 42 710 l 151 710 l 151 933 l 296 1003 l 296 710 l 464 710 l 464 585 l 296 585 l 296 197 q 310 139 296 161 q 365 117 324 117 q 418 125 392 117 q 471 150 444 133 l 453 15 q 388 -8 424 0 q 310 -17 353 -17 z "},"u":{"ha":785,"x_min":97,"x_max":681,"o":"m 536 0 l 536 68 q 456 4 501 25 q 353 -17 411 -17 q 220 13 278 -17 q 130 108 163 42 q 97 286 97 175 l 97 710 l 242 710 l 242 286 q 282 158 242 197 q 383 119 322 119 q 492 156 447 119 q 536 283 536 192 l 536 710 l 681 710 l 681 0 l 536 0 z "},"v":{"ha":724,"x_min":35,"x_max":689,"o":"m 294 0 l 35 710 l 179 710 l 343 244 q 354 212 350 225 q 363 182 358 199 q 371 212 367 199 q 382 244 375 225 l 544 710 l 689 710 l 429 0 l 294 0 z "},"w":{"ha":1008,"x_min":49,"x_max":960,"o":"m 238 0 l 49 710 l 190 710 l 290 268 q 299 228 296 244 q 304 196 303 211 q 310 229 306 211 q 319 268 314 247 l 438 710 l 571 710 l 689 268 q 699 229 694 247 q 704 196 703 211 q 709 228 706 211 q 718 268 713 244 l 818 710 l 960 710 l 771 0 l 643 0 l 525 413 q 512 462 518 436 q 503 501 506 488 q 494 461 500 488 q 482 411 489 435 l 365 0 l 238 0 z "},"x":{"ha":736,"x_min":49,"x_max":688,"o":"m 49 0 l 285 369 l 68 710 l 233 710 l 332 556 q 352 521 343 536 q 368 492 361 506 q 384 522 375 506 q 404 556 393 538 l 503 710 l 668 710 l 450 369 l 688 0 l 522 0 l 404 183 q 384 217 393 201 q 368 247 375 233 q 352 217 361 233 q 332 183 343 201 l 214 0 l 49 0 z "},"y":{"ha":747,"x_min":35,"x_max":713,"o":"m 190 -269 l 300 13 l 35 710 l 178 710 l 353 246 q 364 213 360 226 q 372 183 368 200 q 381 213 376 200 q 392 246 385 226 l 568 710 l 713 710 l 338 -269 l 190 -269 z "},"z":{"ha":710,"x_min":76,"x_max":626,"o":"m 76 0 l 76 118 l 453 582 l 104 582 l 104 710 l 626 710 l 626 596 l 250 128 l 625 128 l 625 0 l 76 0 z "},"{":{"ha":508,"x_min":56,"x_max":453,"o":"m 453 -181 q 240 -97 321 -178 q 160 143 160 -17 l 160 225 q 138 310 160 278 q 76 342 117 342 l 56 342 l 56 468 l 76 468 q 138 501 117 468 q 160 585 160 533 l 160 665 q 240 906 160 825 q 453 989 321 986 l 453 861 q 304 690 304 854 l 304 600 q 270 456 304 497 q 172 404 236 414 q 270 353 236 394 q 304 208 304 311 l 304 118 q 453 -53 304 -46 l 453 -181 z "},"|":{"ha":381,"x_min":118,"x_max":263,"o":"m 118 -525 l 118 1475 l 263 1475 l 263 -525 l 118 -525 z "},"}":{"ha":508,"x_min":56,"x_max":453,"o":"m 56 -181 l 56 -53 q 204 118 204 -46 l 204 208 q 238 353 204 311 q 336 404 272 394 q 238 456 272 414 q 204 600 204 497 l 204 690 q 56 861 204 854 l 56 989 q 268 906 188 986 q 349 665 349 825 l 349 585 q 370 501 349 533 q 432 468 392 468 l 453 468 l 453 342 l 432 342 q 370 310 392 342 q 349 225 349 278 l 349 143 q 268 -97 349 -17 q 56 -181 188 -178 z "},"~":{"ha":875,"x_min":111,"x_max":764,"o":"m 578 367 q 424 407 489 367 q 299 447 358 447 q 240 425 261 447 q 215 367 218 403 l 111 367 q 153 519 111 453 q 297 586 196 586 q 451 546 386 586 q 576 506 517 506 q 635 528 614 506 q 660 586 657 550 l 764 586 q 722 433 764 500 q 578 367 679 367 z "},"Ä":{"ha":967,"x_min":58,"x_max":908,"o":"m 758 0 l 681 224 l 288 224 l 208 0 l 58 0 l 410 972 l 558 972 l 908 0 l 758 0 m 636 351 l 518 682 q 500 736 510 706 q 485 792 490 767 q 469 736 478 767 q 451 682 460 706 l 332 351 l 636 351 m 358 1083 q 297 1109 322 1083 q 271 1171 271 1135 q 297 1233 271 1207 q 358 1258 322 1258 q 420 1233 394 1258 q 446 1171 446 1207 q 420 1109 446 1135 q 358 1083 394 1083 m 608 1083 q 547 1109 572 1083 q 521 1171 521 1135 q 547 1233 521 1207 q 608 1258 572 1258 q 670 1233 644 1258 q 696 1171 696 1207 q 670 1109 696 1135 q 608 1083 644 1083 z "},"Å":{"ha":967,"x_min":58,"x_max":908,"o":"m 58 0 l 381 893 q 331 952 350 917 q 313 1029 313 988 q 363 1148 313 1099 q 483 1197 414 1197 q 603 1148 553 1197 q 654 1029 654 1099 q 635 952 654 988 q 586 894 617 917 l 908 0 l 758 0 l 681 224 l 288 224 l 208 0 l 58 0 m 332 351 l 636 351 l 518 682 q 500 736 510 706 q 485 792 490 767 q 469 736 478 767 q 451 682 460 706 l 332 351 m 483 964 q 528 983 510 964 q 546 1029 546 1001 q 528 1076 546 1057 q 483 1094 510 1094 q 439 1076 457 1094 q 421 1029 421 1057 q 439 983 421 1001 q 483 964 457 964 z "},"Ç":{"ha":903,"x_min":90,"x_max":826,"o":"m 481 -332 q 397 -317 431 -332 q 342 -279 363 -303 l 413 -228 q 467 -249 429 -249 q 517 -231 497 -249 q 536 -187 536 -214 q 515 -144 536 -161 q 461 -128 493 -128 q 406 -142 428 -128 l 378 -107 l 451 -14 q 238 74 317 -3 q 125 261 160 150 q 90 486 90 372 q 129 714 90 597 q 256 910 168 831 q 494 989 344 989 q 714 928 632 989 q 825 796 796 868 l 693 735 q 614 820 658 790 q 494 850 569 850 q 342 792 397 850 q 263 651 286 735 q 240 486 240 567 q 267 316 240 400 q 349 177 293 232 q 494 122 406 122 q 613 157 567 122 q 692 247 658 192 l 826 196 q 718 52 789 108 q 536 -14 647 -4 l 503 -69 q 619 -106 583 -69 q 656 -189 656 -142 q 608 -292 656 -251 q 481 -332 561 -332 z "},"É":{"ha":835,"x_min":125,"x_max":758,"o":"m 125 0 l 125 972 l 728 972 l 728 836 l 269 836 l 269 569 l 565 569 l 565 433 l 269 433 l 269 136 l 758 136 l 758 0 l 125 0 m 274 1063 l 471 1279 l 668 1279 l 421 1063 l 274 1063 z "},"Ñ":{"ha":986,"x_min":125,"x_max":861,"o":"m 861 0 l 725 0 l 304 660 q 285 694 294 676 q 265 732 275 713 q 268 697 267 715 q 269 660 269 678 l 269 0 l 125 0 l 125 972 l 271 972 l 681 324 q 701 288 692 306 q 721 249 711 269 q 718 287 719 269 q 717 322 717 304 l 717 972 l 861 972 l 861 0 m 617 1078 q 492 1111 543 1078 q 388 1144 440 1144 q 342 1130 361 1144 q 322 1083 324 1115 l 251 1083 q 285 1215 251 1167 q 397 1264 318 1264 q 522 1231 471 1264 q 626 1197 574 1197 q 672 1212 653 1197 q 692 1258 690 1226 l 763 1258 q 729 1126 763 1175 q 617 1078 696 1078 z "},"Ö":{"ha":1028,"x_min":90,"x_max":938,"o":"m 514 -17 q 265 59 358 -17 q 131 251 172 135 q 90 486 90 367 q 131 722 90 606 q 265 913 172 838 q 514 989 358 989 q 763 913 669 989 q 897 722 856 838 q 938 486 938 606 q 897 251 938 367 q 763 59 856 135 q 514 -17 669 -17 m 514 122 q 675 181 615 122 q 761 323 735 239 q 788 486 788 407 q 761 655 788 571 q 675 794 735 739 q 514 850 615 850 q 353 792 413 850 q 267 649 293 733 q 240 486 240 565 q 267 317 240 401 q 353 178 293 233 q 514 122 413 122 m 389 1083 q 327 1109 353 1083 q 301 1171 301 1135 q 327 1233 301 1207 q 389 1258 353 1258 q 451 1233 425 1258 q 476 1171 476 1207 q 451 1109 476 1135 q 389 1083 425 1083 m 639 1083 q 577 1109 603 1083 q 551 1171 551 1135 q 577 1233 551 1207 q 639 1258 603 1258 q 701 1233 675 1258 q 726 1171 726 1207 q 701 1109 726 1135 q 639 1083 675 1083 z "},"Ü":{"ha":968,"x_min":118,"x_max":850,"o":"m 483 -17 q 300 19 383 -17 q 167 140 217 56 q 118 368 118 224 l 118 972 l 263 972 l 263 368 q 326 172 263 222 q 483 122 389 122 q 642 172 578 122 q 706 368 706 222 l 706 972 l 850 972 l 850 368 q 801 141 850 225 q 670 20 753 57 q 483 -17 588 -17 m 360 1083 q 298 1109 324 1083 q 272 1171 272 1135 q 298 1233 272 1207 q 360 1258 324 1258 q 422 1233 396 1258 q 447 1171 447 1207 q 422 1109 447 1135 q 360 1083 396 1083 m 610 1083 q 548 1109 574 1083 q 522 1171 522 1135 q 548 1233 522 1207 q 610 1258 574 1258 q 672 1233 646 1258 q 697 1171 697 1207 q 672 1109 697 1135 q 610 1083 646 1083 z "},"á":{"ha":739,"x_min":63,"x_max":649,"o":"m 510 0 l 510 61 q 435 8 483 33 q 315 -17 386 -17 q 135 43 207 -17 q 63 221 63 103 q 147 400 63 344 q 335 456 231 456 q 429 445 383 456 q 510 414 475 435 l 510 453 q 473 566 510 533 q 358 599 436 599 q 243 581 292 599 q 156 535 194 564 l 113 653 q 223 705 156 683 q 378 726 290 726 q 501 709 439 726 q 606 635 564 692 q 649 460 649 578 l 649 0 l 510 0 m 342 111 q 440 133 397 111 q 510 188 482 156 l 510 296 q 440 321 481 311 q 358 331 400 331 q 248 305 294 331 q 201 221 201 279 q 237 141 201 171 q 342 111 272 111 m 232 800 l 429 1017 l 626 1017 l 379 800 l 232 800 z "},"à":{"ha":739,"x_min":63,"x_max":649,"o":"m 510 0 l 510 61 q 435 8 483 33 q 315 -17 386 -17 q 135 43 207 -17 q 63 221 63 103 q 147 400 63 344 q 335 456 231 456 q 429 445 383 456 q 510 414 475 435 l 510 453 q 473 566 510 533 q 358 599 436 599 q 243 581 292 599 q 156 535 194 564 l 113 653 q 223 705 156 683 q 378 726 290 726 q 501 709 439 726 q 606 635 564 692 q 649 460 649 578 l 649 0 l 510 0 m 342 111 q 440 133 397 111 q 510 188 482 156 l 510 296 q 440 321 481 311 q 358 331 400 331 q 248 305 294 331 q 201 221 201 279 q 237 141 201 171 q 342 111 272 111 m 364 800 l 117 1017 l 314 1017 l 511 800 l 364 800 z "},"â":{"ha":739,"x_min":63,"x_max":649,"o":"m 510 0 l 510 61 q 435 8 483 33 q 315 -17 386 -17 q 135 43 207 -17 q 63 221 63 103 q 147 400 63 344 q 335 456 231 456 q 429 445 383 456 q 510 414 475 435 l 510 453 q 473 566 510 533 q 358 599 436 599 q 243 581 292 599 q 156 535 194 564 l 113 653 q 223 705 156 683 q 378 726 290 726 q 501 709 439 726 q 606 635 564 692 q 649 460 649 578 l 649 0 l 510 0 m 342 111 q 440 133 397 111 q 510 188 482 156 l 510 296 q 440 321 481 311 q 358 331 400 331 q 248 305 294 331 q 201 221 201 279 q 237 141 201 171 q 342 111 272 111 m 508 800 l 378 910 l 247 800 l 108 800 l 306 1017 l 451 1017 l 647 800 l 508 800 z "},"ä":{"ha":739,"x_min":63,"x_max":649,"o":"m 510 0 l 510 61 q 435 8 483 33 q 315 -17 386 -17 q 135 43 207 -17 q 63 221 63 103 q 147 400 63 344 q 335 456 231 456 q 429 445 383 456 q 510 414 475 435 l 510 453 q 473 566 510 533 q 358 599 436 599 q 243 581 292 599 q 156 535 194 564 l 113 653 q 223 705 156 683 q 378 726 290 726 q 501 709 439 726 q 606 635 564 692 q 649 460 649 578 l 649 0 l 510 0 m 342 111 q 440 133 397 111 q 510 188 482 156 l 510 296 q 440 321 481 311 q 358 331 400 331 q 248 305 294 331 q 201 221 201 279 q 237 141 201 171 q 342 111 272 111 m 253 821 q 191 847 217 821 q 165 908 165 872 q 191 970 165 944 q 253 996 217 996 q 315 970 289 996 q 340 908 340 944 q 315 847 340 872 q 253 821 289 821 m 503 821 q 441 847 467 821 q 415 908 415 872 q 441 970 415 944 q 503 996 467 996 q 565 970 539 996 q 590 908 590 944 q 565 847 590 872 q 503 821 539 821 z "},"ã":{"ha":739,"x_min":63,"x_max":649,"o":"m 510 0 l 510 61 q 435 8 483 33 q 315 -17 386 -17 q 135 43 207 -17 q 63 221 63 103 q 147 400 63 344 q 335 456 231 456 q 429 445 383 456 q 510 414 475 435 l 510 453 q 473 566 510 533 q 358 599 436 599 q 243 581 292 599 q 156 535 194 564 l 113 653 q 223 705 156 683 q 378 726 290 726 q 501 709 439 726 q 606 635 564 692 q 649 460 649 578 l 649 0 l 510 0 m 342 111 q 440 133 397 111 q 510 188 482 156 l 510 296 q 440 321 481 311 q 358 331 400 331 q 248 305 294 331 q 201 221 201 279 q 237 141 201 171 q 342 111 272 111 m 488 815 q 363 849 414 815 q 258 882 311 882 q 213 867 232 882 q 193 821 194 853 l 122 821 q 156 953 122 904 q 268 1001 189 1001 q 393 968 342 1001 q 497 935 444 935 q 542 949 524 935 q 563 996 561 964 l 633 996 q 600 864 633 913 q 488 815 567 815 z "},"å":{"ha":739,"x_min":63,"x_max":649,"o":"m 510 0 l 510 61 q 435 8 483 33 q 315 -17 386 -17 q 135 43 207 -17 q 63 221 63 103 q 147 400 63 344 q 335 456 231 456 q 429 445 383 456 q 510 414 475 435 l 510 453 q 473 566 510 533 q 358 599 436 599 q 243 581 292 599 q 156 535 194 564 l 113 653 q 223 705 156 683 q 378 726 290 726 q 501 709 439 726 q 606 635 564 692 q 649 460 649 578 l 649 0 l 510 0 m 342 111 q 440 133 397 111 q 510 188 482 156 l 510 296 q 440 321 481 311 q 358 331 400 331 q 248 305 294 331 q 201 221 201 279 q 237 141 201 171 q 342 111 272 111 m 378 788 q 258 838 308 788 q 207 957 207 888 q 258 1076 207 1026 q 378 1125 308 1125 q 498 1076 447 1125 q 549 957 549 1026 q 498 838 549 888 q 378 788 447 788 m 378 892 q 422 910 404 892 q 440 957 440 929 q 422 1003 440 985 q 378 1022 404 1022 q 333 1003 351 1022 q 315 957 315 985 q 333 910 315 929 q 378 892 351 892 z "},"ç":{"ha":719,"x_min":69,"x_max":650,"o":"m 358 -332 q 274 -317 308 -332 q 219 -279 240 -303 l 290 -228 q 344 -249 307 -249 q 394 -231 375 -249 q 414 -187 414 -214 q 392 -144 414 -161 q 339 -128 371 -128 q 283 -142 306 -128 l 256 -107 l 331 -12 q 139 99 208 3 q 69 354 69 194 q 153 628 69 529 q 379 726 236 726 q 547 682 478 726 q 647 543 617 638 l 510 496 q 463 562 494 536 q 385 588 431 588 q 260 525 303 588 q 217 354 217 463 q 260 184 217 246 q 379 122 303 122 q 513 226 482 122 l 650 183 q 414 -15 597 1 l 381 -69 q 497 -106 461 -69 q 533 -189 533 -142 q 486 -292 533 -251 q 358 -332 439 -332 z "},"é":{"ha":760,"x_min":69,"x_max":697,"o":"m 392 -17 q 157 82 244 -17 q 69 356 69 181 q 158 628 69 531 q 392 726 246 726 q 608 645 518 726 q 697 394 697 564 q 696 346 697 372 q 692 301 694 319 l 214 301 q 271 163 217 214 q 393 111 325 111 q 475 129 436 111 q 540 183 514 147 l 635 86 q 535 12 596 40 q 392 -17 475 -17 m 214 418 l 553 418 q 499 558 550 517 q 392 599 449 599 q 272 558 324 599 q 214 418 219 517 m 218 800 l 415 1017 l 613 1017 l 365 800 l 218 800 z "},"è":{"ha":760,"x_min":69,"x_max":697,"o":"m 392 -17 q 157 82 244 -17 q 69 356 69 181 q 158 628 69 531 q 392 726 246 726 q 608 645 518 726 q 697 394 697 564 q 696 346 697 372 q 692 301 694 319 l 214 301 q 271 163 217 214 q 393 111 325 111 q 475 129 436 111 q 540 183 514 147 l 635 86 q 535 12 596 40 q 392 -17 475 -17 m 214 418 l 553 418 q 499 558 550 517 q 392 599 449 599 q 272 558 324 599 q 214 418 219 517 m 419 800 l 172 1017 l 369 1017 l 567 800 l 419 800 z "},"ê":{"ha":760,"x_min":69,"x_max":697,"o":"m 392 -17 q 157 82 244 -17 q 69 356 69 181 q 158 628 69 531 q 392 726 246 726 q 608 645 518 726 q 697 394 697 564 q 696 346 697 372 q 692 301 694 319 l 214 301 q 271 163 217 214 q 393 111 325 111 q 475 129 436 111 q 540 183 514 147 l 635 86 q 535 12 596 40 q 392 -17 475 -17 m 214 418 l 553 418 q 499 558 550 517 q 392 599 449 599 q 272 558 324 599 q 214 418 219 517 m 522 800 l 392 910 l 261 800 l 122 800 l 319 1017 l 465 1017 l 661 800 l 522 800 z "},"ë":{"ha":760,"x_min":69,"x_max":697,"o":"m 392 -17 q 157 82 244 -17 q 69 356 69 181 q 158 628 69 531 q 392 726 246 726 q 608 645 518 726 q 697 394 697 564 q 696 346 697 372 q 692 301 694 319 l 214 301 q 271 163 217 214 q 393 111 325 111 q 475 129 436 111 q 540 183 514 147 l 635 86 q 535 12 596 40 q 392 -17 475 -17 m 214 418 l 553 418 q 499 558 550 517 q 392 599 449 599 q 272 558 324 599 q 214 418 219 517 m 267 821 q 205 847 231 821 q 179 908 179 872 q 205 970 179 944 q 267 996 231 996 q 328 970 303 996 q 354 908 354 944 q 328 847 354 872 q 267 821 303 821 m 517 821 q 455 847 481 821 q 429 908 429 872 q 455 970 429 944 q 517 996 481 996 q 578 970 553 996 q 604 908 604 944 q 578 847 604 872 q 517 821 553 821 z "},"í":{"ha":356,"x_min":31,"x_max":425,"o":"m 106 0 l 106 710 l 250 710 l 250 0 l 106 0 m 31 800 l 228 1017 l 425 1017 l 178 800 l 31 800 z "},"ì":{"ha":356,"x_min":-69,"x_max":325,"o":"m 106 0 l 106 710 l 250 710 l 250 0 l 106 0 m 178 800 l -69 1017 l 128 1017 l 325 800 l 178 800 z "},"î":{"ha":356,"x_min":-92,"x_max":447,"o":"m 106 0 l 106 710 l 250 710 l 250 0 l 106 0 m 308 800 l 178 910 l 47 800 l -92 800 l 106 1017 l 251 1017 l 447 800 l 308 800 z "},"ï":{"ha":356,"x_min":-35,"x_max":390,"o":"m 106 0 l 106 710 l 250 710 l 250 0 l 106 0 m 53 821 q -9 847 17 821 q -35 908 -35 872 q -9 970 -35 944 q 53 996 17 996 q 115 970 89 996 q 140 908 140 944 q 115 847 140 872 q 53 821 89 821 m 303 821 q 241 847 267 821 q 215 908 215 872 q 241 970 215 944 q 303 996 267 996 q 365 970 339 996 q 390 908 390 944 q 365 847 390 872 q 303 821 339 821 z "},"ñ":{"ha":785,"x_min":104,"x_max":688,"o":"m 543 0 l 543 424 q 502 552 543 514 q 401 590 461 590 q 292 554 336 590 q 249 426 249 518 l 249 0 l 104 0 l 104 710 l 249 710 l 249 642 q 432 726 315 726 q 564 697 506 726 q 655 601 622 668 q 688 424 688 535 l 688 0 l 543 0 m 511 815 q 386 849 438 815 q 282 882 335 882 q 237 867 256 882 q 217 821 218 853 l 146 821 q 179 953 146 904 q 292 1001 213 1001 q 417 968 365 1001 q 521 935 468 935 q 566 949 547 935 q 586 996 585 964 l 657 996 q 624 864 657 913 q 511 815 590 815 z "},"ó":{"ha":788,"x_min":69,"x_max":718,"o":"m 393 -17 q 157 81 244 -17 q 69 354 69 179 q 157 628 69 529 q 393 726 244 726 q 630 628 542 726 q 718 354 718 529 q 630 81 718 179 q 393 -17 542 -17 m 393 119 q 525 182 476 119 q 574 354 574 244 q 525 527 574 464 q 393 590 476 590 q 263 527 311 590 q 214 354 214 464 q 263 182 214 244 q 393 119 311 119 m 221 800 l 418 1017 l 615 1017 l 368 800 l 221 800 z "},"ò":{"ha":788,"x_min":69,"x_max":718,"o":"m 393 -17 q 157 81 244 -17 q 69 354 69 179 q 157 628 69 529 q 393 726 244 726 q 630 628 542 726 q 718 354 718 529 q 630 81 718 179 q 393 -17 542 -17 m 393 119 q 525 182 476 119 q 574 354 574 244 q 525 527 574 464 q 393 590 476 590 q 263 527 311 590 q 214 354 214 464 q 263 182 214 244 q 393 119 311 119 m 422 800 l 175 1017 l 372 1017 l 569 800 l 422 800 z "},"ô":{"ha":788,"x_min":69,"x_max":718,"o":"m 393 -17 q 157 81 244 -17 q 69 354 69 179 q 157 628 69 529 q 393 726 244 726 q 630 628 542 726 q 718 354 718 529 q 630 81 718 179 q 393 -17 542 -17 m 393 119 q 525 182 476 119 q 574 354 574 244 q 525 527 574 464 q 393 590 476 590 q 263 527 311 590 q 214 354 214 464 q 263 182 214 244 q 393 119 311 119 m 525 800 l 394 910 l 264 800 l 125 800 l 322 1017 l 468 1017 l 664 800 l 525 800 z "},"ö":{"ha":788,"x_min":69,"x_max":718,"o":"m 393 -17 q 157 81 244 -17 q 69 354 69 179 q 157 628 69 529 q 393 726 244 726 q 630 628 542 726 q 718 354 718 529 q 630 81 718 179 q 393 -17 542 -17 m 393 119 q 525 182 476 119 q 574 354 574 244 q 525 527 574 464 q 393 590 476 590 q 263 527 311 590 q 214 354 214 464 q 263 182 214 244 q 393 119 311 119 m 269 821 q 208 847 233 821 q 182 908 182 872 q 208 970 182 944 q 269 996 233 996 q 331 970 306 996 q 357 908 357 944 q 331 847 357 872 q 269 821 306 821 m 519 821 q 458 847 483 821 q 432 908 432 872 q 458 970 432 944 q 519 996 483 996 q 581 970 556 996 q 607 908 607 944 q 581 847 607 872 q 519 821 556 821 z "},"õ":{"ha":788,"x_min":69,"x_max":718,"o":"m 393 -17 q 157 81 244 -17 q 69 354 69 179 q 157 628 69 529 q 393 726 244 726 q 630 628 542 726 q 718 354 718 529 q 630 81 718 179 q 393 -17 542 -17 m 393 119 q 525 182 476 119 q 574 354 574 244 q 525 527 574 464 q 393 590 476 590 q 263 527 311 590 q 214 354 214 464 q 263 182 214 244 q 393 119 311 119 m 504 815 q 379 849 431 815 q 275 882 328 882 q 230 867 249 882 q 210 821 211 853 l 139 821 q 172 953 139 904 q 285 1001 206 1001 q 410 968 358 1001 q 514 935 461 935 q 559 949 540 935 q 579 996 578 964 l 650 996 q 617 864 650 913 q 504 815 583 815 z "},"ú":{"ha":785,"x_min":97,"x_max":681,"o":"m 536 0 l 536 68 q 456 4 501 25 q 353 -17 411 -17 q 220 13 278 -17 q 130 108 163 42 q 97 286 97 175 l 97 710 l 242 710 l 242 286 q 282 158 242 197 q 383 119 322 119 q 492 156 447 119 q 536 283 536 192 l 536 710 l 681 710 l 681 0 l 536 0 m 213 800 l 410 1017 l 607 1017 l 360 800 l 213 800 z "},"ù":{"ha":785,"x_min":97,"x_max":681,"o":"m 536 0 l 536 68 q 456 4 501 25 q 353 -17 411 -17 q 220 13 278 -17 q 130 108 163 42 q 97 286 97 175 l 97 710 l 242 710 l 242 286 q 282 158 242 197 q 383 119 322 119 q 492 156 447 119 q 536 283 536 192 l 536 710 l 681 710 l 681 0 l 536 0 m 414 800 l 167 1017 l 364 1017 l 561 800 l 414 800 z "},"û":{"ha":785,"x_min":97,"x_max":681,"o":"m 536 0 l 536 68 q 456 4 501 25 q 353 -17 411 -17 q 220 13 278 -17 q 130 108 163 42 q 97 286 97 175 l 97 710 l 242 710 l 242 286 q 282 158 242 197 q 383 119 322 119 q 492 156 447 119 q 536 283 536 192 l 536 710 l 681 710 l 681 0 l 536 0 m 517 800 l 386 910 l 256 800 l 117 800 l 314 1017 l 460 1017 l 656 800 l 517 800 z "},"ü":{"ha":785,"x_min":97,"x_max":681,"o":"m 536 0 l 536 68 q 456 4 501 25 q 353 -17 411 -17 q 220 13 278 -17 q 130 108 163 42 q 97 286 97 175 l 97 710 l 242 710 l 242 286 q 282 158 242 197 q 383 119 322 119 q 492 156 447 119 q 536 283 536 192 l 536 710 l 681 710 l 681 0 l 536 0 m 261 821 q 199 847 225 821 q 174 908 174 872 q 199 970 174 944 q 261 996 225 996 q 323 970 297 996 q 349 908 349 944 q 323 847 349 872 q 261 821 297 821 m 511 821 q 449 847 475 821 q 424 908 424 872 q 449 970 424 944 q 511 996 475 996 q 573 970 547 996 q 599 908 599 944 q 573 847 599 872 q 511 821 547 821 z "},"†":{"ha":778,"x_min":90,"x_max":688,"o":"m 447 610 l 461 467 l 418 -196 l 363 -196 l 317 467 l 329 610 l 167 588 l 90 588 l 90 726 l 167 726 l 328 703 l 317 815 l 317 989 l 461 989 l 461 815 l 449 703 l 611 726 l 688 726 l 688 588 l 611 588 l 447 610 z "},"°":{"ha":556,"x_min":33,"x_max":521,"o":"m 278 629 q 104 699 175 629 q 33 871 33 769 q 104 1042 33 974 q 278 1111 175 1111 q 451 1042 381 1111 q 521 871 521 974 q 451 699 521 769 q 278 629 381 629 m 278 763 q 351 794 322 763 q 379 871 379 825 q 351 948 379 918 q 278 978 322 978 q 204 948 233 978 q 175 871 175 918 q 204 794 175 825 q 278 763 233 763 z "},"¢":{"ha":719,"x_min":69,"x_max":650,"o":"m 294 -17 l 294 125 q 129 246 189 153 q 69 486 69 339 q 129 726 69 633 q 294 847 189 819 l 294 989 l 433 989 l 433 854 q 647 675 596 831 l 510 628 q 463 694 494 668 q 385 719 431 719 q 260 657 303 719 q 217 486 217 594 q 260 316 217 378 q 379 254 303 254 q 513 358 482 254 l 650 315 q 570 181 625 231 q 433 119 515 131 l 433 -17 l 294 -17 z "},"£":{"ha":818,"x_min":104,"x_max":776,"o":"m 111 0 l 111 144 q 197 237 171 172 q 228 358 222 301 q 229 376 229 368 q 229 393 229 385 l 104 393 l 104 521 l 196 521 q 162 601 178 557 q 146 710 146 644 q 224 903 146 817 q 468 989 303 989 q 632 964 564 989 q 764 892 700 939 l 707 754 q 619 817 672 785 q 468 850 567 850 q 336 806 376 850 q 296 710 296 761 q 317 616 296 658 q 357 521 339 574 l 589 521 l 589 393 l 379 393 q 379 376 379 385 q 378 358 379 367 q 348 242 372 297 q 276 139 324 186 l 776 139 l 776 0 l 111 0 z "},"§":{"ha":726,"x_min":69,"x_max":657,"o":"m 368 -167 q 190 -131 267 -167 q 69 -37 113 -94 l 175 53 q 247 1 199 29 q 367 -28 294 -28 q 467 -7 426 -28 q 507 67 507 14 q 474 131 507 104 q 390 178 442 157 q 286 224 339 200 q 149 299 211 256 q 86 439 86 343 q 112 529 86 490 q 179 589 138 568 q 86 768 86 651 q 165 932 86 875 q 358 989 244 989 q 526 953 460 989 q 629 872 592 918 l 519 785 q 460 828 499 807 q 358 850 422 850 q 236 768 236 850 q 297 692 236 722 q 435 632 357 663 q 588 552 519 599 q 657 397 657 506 q 576 247 657 294 q 657 71 657 181 q 580 -104 657 -42 q 368 -167 503 -167 m 458 314 q 507 386 507 333 q 449 465 507 436 q 314 521 390 494 q 236 449 236 507 q 302 374 236 401 q 458 314 368 347 z "},"•":{"ha":564,"x_min":83,"x_max":481,"o":"m 281 296 q 140 351 196 296 q 83 486 83 407 q 140 622 83 565 q 281 679 196 679 q 423 622 365 679 q 481 486 481 565 q 423 351 481 407 q 281 296 365 296 z "},"¶":{"ha":872,"x_min":28,"x_max":761,"o":"m 353 -278 l 353 383 q 165 428 236 383 q 60 542 93 474 q 28 678 28 610 q 99 880 28 788 q 349 972 169 972 l 761 972 l 761 -100 l 617 -165 l 617 833 l 497 833 l 497 -212 l 353 -278 z "},"ß":{"ha":775,"x_min":90,"x_max":719,"o":"m 90 -278 l 90 657 q 183 914 90 839 q 385 989 275 989 q 590 919 511 989 q 669 735 669 850 q 638 615 669 669 q 539 535 607 560 q 672 444 625 508 q 719 293 719 379 q 635 65 719 146 q 425 -17 551 -17 q 293 6 351 -17 l 367 125 q 396 119 381 121 q 426 117 411 117 q 526 158 478 117 q 575 289 575 200 q 531 408 575 354 q 383 461 486 461 l 353 461 l 353 594 l 383 594 q 485 628 444 594 q 525 726 525 661 q 489 821 525 786 q 386 856 453 856 q 278 811 321 856 q 235 661 235 767 l 235 -211 l 90 -278 z "},"®":{"ha":1172,"x_min":83,"x_max":1089,"o":"m 586 -17 q 331 50 444 -17 q 150 231 217 117 q 83 486 83 344 q 150 742 83 628 q 331 922 217 856 q 586 989 444 989 q 842 922 728 989 q 1022 742 956 856 q 1089 486 1089 628 q 1022 231 1089 344 q 842 50 956 117 q 586 -17 728 -17 m 586 83 q 870 199 758 83 q 982 486 982 314 q 870 774 982 658 q 586 889 758 889 q 302 774 414 889 q 190 486 190 658 q 302 199 190 314 q 586 83 414 83 m 388 193 l 388 779 l 618 779 q 769 725 728 779 q 811 604 811 671 q 782 505 811 553 q 689 438 753 457 l 822 193 l 700 193 l 582 428 l 490 428 l 490 193 l 388 193 m 490 526 l 618 526 q 685 549 667 526 q 703 604 703 572 q 686 656 703 631 q 618 681 669 681 l 490 681 l 490 526 z "},"©":{"ha":1172,"x_min":83,"x_max":1089,"o":"m 586 -17 q 331 50 444 -17 q 150 231 217 117 q 83 486 83 344 q 150 742 83 628 q 331 922 217 856 q 586 989 444 989 q 842 922 728 989 q 1022 742 956 856 q 1089 486 1089 628 q 1022 231 1089 344 q 842 50 956 117 q 586 -17 728 -17 m 586 83 q 870 199 758 83 q 982 486 982 314 q 870 774 982 658 q 586 889 758 889 q 302 774 414 889 q 190 486 190 658 q 302 199 190 314 q 586 83 414 83 m 592 183 q 401 281 454 183 q 347 486 347 378 q 371 623 347 553 q 448 741 394 693 q 592 789 501 789 q 727 749 676 789 q 796 664 778 710 l 704 621 q 658 672 682 654 q 592 689 633 689 q 484 622 514 689 q 454 486 454 554 q 487 349 454 414 q 592 283 519 283 q 657 304 631 283 q 704 356 683 325 l 797 322 q 721 222 771 261 q 592 183 671 183 z "},"™":{"ha":1113,"x_min":28,"x_max":1015,"o":"m 1015 386 l 913 386 l 913 728 l 900 693 l 756 378 l 610 693 l 596 732 l 596 386 l 492 386 l 492 972 l 593 972 l 744 646 l 754 618 l 764 646 l 915 972 l 1015 972 l 1015 386 m 183 386 l 183 872 l 28 872 l 28 972 l 442 972 l 442 872 l 288 872 l 288 386 l 183 386 z "},"´":{"ha":556,"x_min":104,"x_max":499,"o":"m 104 800 l 301 1017 l 499 1017 l 251 800 l 104 800 z "},"¨":{"ha":556,"x_min":65,"x_max":490,"o":"m 153 821 q 91 847 117 821 q 65 908 65 872 q 91 970 65 944 q 153 996 117 996 q 215 970 189 996 q 240 908 240 944 q 215 847 240 872 q 153 821 189 821 m 403 821 q 341 847 367 821 q 315 908 315 872 q 341 970 315 944 q 403 996 367 996 q 465 970 439 996 q 490 908 490 944 q 465 847 490 872 q 403 821 439 821 z "},"≠":{"ha":875,"x_min":111,"x_max":764,"o":"m 417 271 l 361 150 l 208 150 l 264 271 l 111 271 l 111 413 l 331 413 l 390 540 l 111 540 l 111 682 l 456 682 l 513 803 l 665 803 l 608 682 l 764 682 l 764 540 l 543 540 l 483 413 l 764 413 l 764 271 l 417 271 z "},"Æ":{"ha":1178,"x_min":-17,"x_max":1121,"o":"m -17 0 l 547 972 l 1090 972 l 1090 836 l 710 836 l 710 569 l 928 569 l 928 433 l 710 433 l 710 136 l 1121 136 l 1121 0 l 565 0 l 565 224 l 265 224 l 139 0 l -17 0 m 340 353 l 565 353 l 565 758 q 538 703 554 733 q 508 649 522 672 l 340 353 z "},"Ø":{"ha":1014,"x_min":83,"x_max":931,"o":"m 90 -17 l 189 128 q 108 295 133 200 q 83 486 83 390 q 124 722 83 606 q 258 913 165 838 q 507 989 350 989 q 633 972 576 989 q 735 926 690 956 l 778 989 l 924 989 l 824 843 q 906 675 881 769 q 931 486 931 581 q 890 251 931 367 q 756 59 849 135 q 507 -17 664 -17 q 381 0 438 -17 q 279 46 324 17 l 236 -17 l 90 -17 m 507 122 q 668 181 608 122 q 754 323 728 239 q 781 486 781 407 q 769 601 781 542 q 732 708 758 660 l 361 167 q 507 122 424 122 m 282 263 l 653 806 q 507 850 590 850 q 346 792 406 850 q 260 649 286 733 q 233 486 233 565 q 244 371 233 429 q 282 263 256 313 z "},"∞":{"ha":1389,"x_min":49,"x_max":1340,"o":"m 1010 164 q 818 222 894 164 q 694 363 742 279 q 570 222 646 279 q 379 164 494 164 q 144 248 240 164 q 49 486 49 332 q 144 725 49 640 q 379 810 240 810 q 570 751 494 810 q 694 610 646 693 q 817 751 742 693 q 1007 810 892 810 q 1244 725 1147 810 q 1340 486 1340 640 q 1244 248 1340 332 q 1010 164 1149 164 m 1003 300 q 1140 349 1085 300 q 1196 486 1196 397 q 1140 624 1196 575 q 1003 674 1085 674 q 859 617 919 674 q 757 486 799 560 q 859 356 799 413 q 1003 300 919 300 m 386 300 q 530 356 469 300 q 632 486 590 413 q 530 617 590 560 q 386 674 469 674 q 249 624 304 674 q 193 486 193 575 q 249 349 193 397 q 386 300 304 300 z "},"±":{"ha":875,"x_min":111,"x_max":764,"o":"m 510 490 l 510 275 l 365 275 l 365 490 l 111 490 l 111 629 l 365 629 l 365 844 l 510 844 l 510 629 l 764 629 l 764 490 l 510 490 m 111 0 l 111 139 l 764 139 l 764 0 l 111 0 z "},"≤":{"ha":875,"x_min":111,"x_max":764,"o":"m 764 239 l 111 476 l 111 599 l 764 836 l 764 690 l 308 538 l 764 385 l 764 239 m 111 0 l 111 139 l 764 139 l 764 0 l 111 0 z "},"≥":{"ha":875,"x_min":111,"x_max":764,"o":"m 111 239 l 111 385 l 567 538 l 111 690 l 111 836 l 764 599 l 764 476 l 111 239 m 111 0 l 111 139 l 764 139 l 764 0 l 111 0 z "},"¥":{"ha":796,"x_min":21,"x_max":775,"o":"m 476 457 l 668 457 l 668 332 l 469 332 l 469 240 l 668 240 l 668 115 l 469 115 l 469 0 l 325 0 l 325 115 l 121 115 l 121 240 l 325 240 l 325 332 l 121 332 l 121 457 l 317 457 l 21 972 l 185 972 l 397 590 l 610 972 l 775 972 l 476 457 z "},"µ":{"ha":785,"x_min":97,"x_max":681,"o":"m 536 0 l 536 68 q 458 4 501 25 q 367 -17 414 -17 q 294 -3 325 -17 q 242 40 264 11 l 242 -210 l 97 -278 l 97 710 l 242 710 l 242 286 q 281 154 242 189 q 383 119 319 119 q 492 156 447 119 q 536 283 536 192 l 536 710 l 681 710 l 681 0 l 536 0 z "},"∂":{"ha":810,"x_min":42,"x_max":733,"o":"m 346 -17 q 125 63 208 -17 q 42 275 42 142 q 144 520 42 429 q 376 611 246 611 q 508 583 460 611 q 589 511 557 556 q 585 578 589 547 q 474 785 567 724 q 271 853 381 847 l 306 989 q 635 831 536 965 q 733 463 733 697 q 695 229 733 339 q 572 51 657 119 q 346 -17 486 -17 m 351 122 q 503 176 446 122 q 560 314 560 229 q 515 433 560 393 q 388 472 469 472 q 243 421 297 472 q 189 286 189 369 q 233 165 189 208 q 351 122 278 122 z "},"∑":{"ha":850,"x_min":63,"x_max":801,"o":"m 63 -194 l 63 -64 l 404 403 l 82 842 l 82 972 l 775 972 l 775 833 l 267 833 l 585 403 l 249 -56 l 801 -56 l 801 -194 l 63 -194 z "},"∏":{"ha":996,"x_min":125,"x_max":871,"o":"m 726 -194 l 726 833 l 269 833 l 269 -194 l 125 -194 l 125 972 l 871 972 l 871 -194 l 726 -194 z "},"π":{"ha":915,"x_min":42,"x_max":867,"o":"m 706 -17 q 584 31 621 -17 q 547 160 547 79 l 547 560 l 354 560 l 354 507 q 321 180 354 321 q 164 -31 288 39 l 42 65 q 126 132 86 92 q 192 247 167 172 q 217 451 217 322 l 217 560 l 88 560 l 88 710 l 857 710 l 857 560 l 692 560 l 692 194 q 706 136 692 158 q 761 114 719 114 q 867 147 813 114 l 846 15 q 783 -8 817 0 q 706 -17 749 -17 z "},"∫":{"ha":583,"x_min":56,"x_max":528,"o":"m 201 -194 q 122 -185 157 -194 q 56 -161 86 -176 l 56 -47 q 111 -64 88 -58 q 157 -69 135 -69 q 206 -51 192 -69 q 219 -6 219 -33 l 219 824 q 269 956 219 922 q 382 989 318 989 q 462 980 426 989 q 528 956 497 971 l 528 842 q 472 858 496 853 q 426 864 449 864 q 378 846 392 864 q 364 800 364 828 l 364 -29 q 315 -161 364 -128 q 201 -194 265 -194 z "},"ª":{"ha":607,"x_min":49,"x_max":531,"o":"m 408 393 l 408 435 q 345 397 386 414 q 256 379 304 379 q 108 428 167 379 q 49 575 49 478 q 120 723 49 676 q 272 769 192 769 q 408 740 347 769 l 408 764 q 380 853 408 828 q 292 879 351 879 q 201 865 242 879 q 128 825 161 850 l 92 928 q 183 972 128 954 q 307 989 239 989 q 409 975 357 989 q 496 914 461 961 q 531 769 531 867 l 531 393 l 408 393 m 278 489 q 351 506 317 489 q 408 543 386 522 l 408 635 q 292 661 353 661 q 210 641 246 661 q 174 575 174 621 q 201 513 174 536 q 278 489 229 489 z "},"º":{"ha":644,"x_min":56,"x_max":589,"o":"m 321 379 q 127 459 199 379 q 56 683 56 539 q 127 908 56 828 q 321 989 199 989 q 516 908 443 989 q 589 683 589 828 q 516 459 589 539 q 321 379 443 379 m 321 497 q 463 683 463 497 q 426 822 463 772 q 321 871 389 871 q 218 822 256 871 q 181 683 181 772 q 218 547 181 596 q 321 497 256 497 z "},"Ω":{"ha":1042,"x_min":111,"x_max":931,"o":"m 593 0 l 593 126 q 728 315 683 224 q 774 540 774 406 q 750 687 774 615 q 671 804 726 758 q 521 850 615 850 q 371 803 426 850 q 292 685 315 757 q 268 539 268 614 q 313 314 268 404 q 449 126 358 224 l 449 0 l 111 0 l 111 139 l 308 139 q 169 306 219 206 q 118 542 118 407 q 156 749 118 646 q 283 921 194 853 q 521 989 372 989 q 758 921 669 989 q 885 749 847 853 q 924 542 924 646 q 873 306 924 407 q 732 139 822 206 l 931 139 l 931 0 l 593 0 z "},"æ":{"ha":1192,"x_min":63,"x_max":1129,"o":"m 315 -17 q 135 43 207 -17 q 63 221 63 103 q 147 400 63 344 q 335 456 231 456 q 429 445 383 456 q 510 414 475 435 l 510 453 q 473 566 510 533 q 358 599 436 599 q 243 581 292 599 q 156 535 194 564 l 113 653 q 223 705 156 683 q 378 726 290 726 q 494 710 433 726 q 594 635 556 693 q 824 726 682 726 q 1040 645 950 726 q 1129 394 1129 564 q 1128 346 1129 372 q 1124 301 1126 319 l 647 301 q 703 163 650 214 q 825 111 756 111 q 907 129 869 111 q 972 183 944 147 l 1067 86 q 967 12 1028 40 q 824 -17 907 -17 q 681 13 743 -17 q 575 96 618 42 q 440 6 511 29 q 315 -17 368 -17 m 342 111 q 439 133 396 111 q 510 188 482 156 q 510 242 510 214 q 510 296 510 269 q 358 331 444 331 q 248 305 294 331 q 201 221 201 279 q 237 141 201 171 q 342 111 272 111 m 647 424 l 983 424 q 931 558 981 518 q 824 599 881 599 q 704 558 756 599 q 647 424 653 518 z "},"ø":{"ha":788,"x_min":69,"x_max":718,"o":"m 200 -17 l 69 -17 l 586 726 l 718 726 l 200 -17 m 393 -17 q 157 81 244 -17 q 69 354 69 179 q 157 628 69 529 q 393 726 244 726 q 630 628 542 726 q 718 354 718 529 q 630 81 718 179 q 393 -17 542 -17 m 393 119 q 525 182 476 119 q 574 354 574 244 q 525 527 574 464 q 393 590 476 590 q 263 527 311 590 q 214 354 214 464 q 263 182 214 244 q 393 119 311 119 z "},"¿":{"ha":696,"x_min":49,"x_max":668,"o":"m 346 -278 q 125 -199 201 -278 q 49 -3 49 -119 q 85 133 49 83 q 169 219 121 182 q 253 300 217 256 q 289 421 289 344 l 289 447 l 433 447 l 433 419 q 397 265 433 321 q 313 174 361 210 q 229 99 265 138 q 193 -3 193 61 q 233 -103 193 -64 q 346 -142 272 -142 q 477 -92 431 -142 q 524 47 524 -42 l 668 47 q 578 -192 668 -106 q 346 -278 488 -278 m 363 522 q 288 552 318 522 q 258 624 258 582 q 288 696 258 665 q 363 726 318 726 q 437 696 406 726 q 468 624 468 665 q 437 552 468 582 q 363 522 406 522 z "},"¡":{"ha":383,"x_min":88,"x_max":297,"o":"m 264 -278 l 119 -278 l 119 29 l 160 442 l 224 442 l 264 29 l 264 -278 m 192 522 q 117 552 147 522 q 88 624 88 582 q 117 696 88 665 q 192 726 147 726 q 267 696 236 726 q 297 624 297 665 q 267 552 297 582 q 192 522 236 522 z "},"¬":{"ha":875,"x_min":111,"x_max":764,"o":"m 619 233 l 619 518 l 111 518 l 111 657 l 764 657 l 764 233 l 619 233 z "},"√":{"ha":772,"x_min":63,"x_max":731,"o":"m 731 972 l 435 0 l 313 0 l 63 475 l 215 475 l 358 197 l 582 972 l 731 972 z "},"ƒ":{"ha":507,"x_min":-24,"x_max":479,"o":"m 51 -339 l -24 -224 q 131 -157 86 -200 q 175 -35 175 -114 l 175 585 l 69 585 l 69 710 l 175 710 l 175 824 q 226 956 175 922 q 338 989 278 989 q 413 980 379 989 q 479 956 447 971 l 479 839 q 424 856 447 850 q 378 861 400 861 q 331 843 342 861 q 319 797 319 825 l 319 710 l 479 710 l 479 585 l 319 585 l 319 -22 q 254 -232 319 -156 q 51 -339 189 -308 z "},"≈":{"ha":875,"x_min":111,"x_max":764,"o":"m 578 510 q 424 550 489 510 q 299 590 358 590 q 240 567 261 590 q 215 510 218 544 l 111 510 q 153 663 111 596 q 297 729 196 729 q 451 689 386 729 q 576 649 517 649 q 635 672 614 649 q 660 729 657 694 l 764 729 q 722 576 764 643 q 578 510 679 510 m 578 225 q 424 265 489 225 q 299 306 358 306 q 240 283 261 306 q 215 225 218 261 l 111 225 q 153 378 111 311 q 297 444 196 444 q 451 404 386 444 q 576 364 517 364 q 635 386 614 364 q 660 444 657 408 l 764 444 q 722 292 764 358 q 578 225 679 225 z "},"∆":{"ha":967,"x_min":58,"x_max":908,"o":"m 58 0 l 410 972 l 558 972 l 908 0 l 58 0 m 257 139 l 711 139 l 518 682 q 501 735 511 704 q 485 792 490 767 q 469 737 478 767 q 451 682 461 707 l 257 139 z "},"«":{"ha":728,"x_min":42,"x_max":707,"o":"m 253 0 l 42 356 l 253 710 l 410 710 l 199 356 l 410 0 l 253 0 m 550 0 l 339 356 l 550 710 l 707 710 l 496 356 l 707 0 l 550 0 z "},"»":{"ha":728,"x_min":21,"x_max":686,"o":"m 318 0 l 529 356 l 318 710 l 475 710 l 686 356 l 475 0 l 318 0 m 21 0 l 232 356 l 21 710 l 178 710 l 389 356 l 178 0 l 21 0 z "},"…":{"ha":1296,"x_min":125,"x_max":1171,"o":"m 215 -17 q 151 9 176 -17 q 125 71 125 35 q 151 133 125 107 q 215 160 176 160 q 281 133 254 160 q 307 71 307 107 q 281 9 307 35 q 215 -17 254 -17 m 647 -17 q 583 9 608 -17 q 557 71 557 35 q 583 133 557 107 q 647 160 608 160 q 713 133 686 160 q 739 71 739 107 q 713 9 739 35 q 647 -17 686 -17 m 1079 -17 q 1015 9 1040 -17 q 989 71 989 35 q 1015 133 989 107 q 1079 160 1040 160 q 1144 133 1118 160 q 1171 71 1171 107 q 1144 9 1171 35 q 1079 -17 1118 -17 z "},"À":{"ha":967,"x_min":58,"x_max":908,"o":"m 758 0 l 681 224 l 288 224 l 208 0 l 58 0 l 410 972 l 558 972 l 908 0 l 758 0 m 636 351 l 518 682 q 500 736 510 706 q 485 792 490 767 q 469 736 478 767 q 451 682 460 706 l 332 351 l 636 351 m 511 1063 l 264 1279 l 461 1279 l 658 1063 l 511 1063 z "},"Ã":{"ha":967,"x_min":58,"x_max":908,"o":"m 758 0 l 681 224 l 288 224 l 208 0 l 58 0 l 410 972 l 558 972 l 908 0 l 758 0 m 636 351 l 518 682 q 500 736 510 706 q 485 792 490 767 q 469 736 478 767 q 451 682 460 706 l 332 351 l 636 351 m 593 1078 q 468 1111 519 1078 q 364 1144 417 1144 q 319 1130 338 1144 q 299 1083 300 1115 l 228 1083 q 261 1215 228 1167 q 374 1264 294 1264 q 499 1231 447 1264 q 603 1197 550 1197 q 648 1212 629 1197 q 668 1258 667 1226 l 739 1258 q 706 1126 739 1175 q 593 1078 672 1078 z "},"Õ":{"ha":1028,"x_min":90,"x_max":938,"o":"m 514 -17 q 265 59 358 -17 q 131 251 172 135 q 90 486 90 367 q 131 722 90 606 q 265 913 172 838 q 514 989 358 989 q 763 913 669 989 q 897 722 856 838 q 938 486 938 606 q 897 251 938 367 q 763 59 856 135 q 514 -17 669 -17 m 514 122 q 675 181 615 122 q 761 323 735 239 q 788 486 788 407 q 761 655 788 571 q 675 794 735 739 q 514 850 615 850 q 353 792 413 850 q 267 649 293 733 q 240 486 240 565 q 267 317 240 401 q 353 178 293 233 q 514 122 413 122 m 624 1078 q 499 1111 550 1078 q 394 1144 447 1144 q 349 1130 368 1144 q 329 1083 331 1115 l 258 1083 q 292 1215 258 1167 q 404 1264 325 1264 q 529 1231 478 1264 q 633 1197 581 1197 q 678 1212 660 1197 q 699 1258 697 1226 l 769 1258 q 736 1126 769 1175 q 624 1078 703 1078 z "},"Œ":{"ha":1242,"x_min":90,"x_max":1224,"o":"m 660 0 l 660 7 q 592 -10 628 -4 q 514 -17 556 -17 q 265 59 358 -17 q 131 251 172 135 q 90 486 90 367 q 129 714 90 597 q 260 910 168 831 q 514 989 353 989 q 593 982 558 989 q 660 965 628 975 l 660 972 l 1193 972 l 1193 836 l 804 836 l 804 569 l 1031 569 l 1031 433 l 804 433 l 804 136 l 1224 136 l 1224 0 l 660 0 m 514 122 q 594 134 560 122 q 660 168 629 146 l 660 806 q 597 838 633 825 q 514 850 561 850 q 351 792 411 850 q 266 649 292 733 q 240 486 240 564 q 267 316 240 400 q 353 177 293 232 q 514 122 413 122 z "},"œ":{"ha":1261,"x_min":69,"x_max":1199,"o":"m 393 -17 q 157 81 244 -17 q 69 354 69 179 q 157 628 69 529 q 393 726 244 726 q 538 697 475 726 q 644 610 601 667 q 749 697 686 667 q 893 726 813 726 q 1109 645 1019 726 q 1199 394 1199 564 q 1197 346 1199 372 q 1193 301 1196 319 l 715 301 q 771 163 717 214 q 894 111 825 111 q 976 129 939 111 q 1042 183 1014 147 l 1136 86 q 1037 12 1097 40 q 893 -17 976 -17 q 750 13 813 -17 q 644 99 688 42 q 538 13 601 42 q 393 -17 475 -17 m 393 119 q 525 182 476 119 q 574 354 574 244 q 525 527 574 464 q 393 590 476 590 q 263 527 311 590 q 214 354 214 464 q 263 182 214 244 q 393 119 311 119 m 715 418 l 1054 418 q 1001 558 1053 517 q 893 599 950 599 q 773 558 825 599 q 715 418 721 517 z "},"–":{"ha":688,"x_min":69,"x_max":618,"o":"m 69 336 l 69 461 l 618 461 l 618 336 l 69 336 z "},"—":{"ha":799,"x_min":-7,"x_max":806,"o":"m -7 336 l -7 461 l 806 461 l 806 336 l -7 336 z "},"“":{"ha":619,"x_min":49,"x_max":571,"o":"m 158 607 q 81 638 114 607 q 49 733 49 669 q 93 882 49 814 q 199 989 138 950 l 253 954 q 204 897 233 938 q 168 810 175 856 q 233 781 204 807 q 261 713 261 754 q 230 635 261 664 q 158 607 199 607 m 468 607 q 392 638 425 607 q 358 733 358 669 q 403 882 358 814 q 508 989 447 950 l 563 954 q 514 897 544 938 q 478 810 483 856 q 542 781 514 807 q 571 713 571 754 q 540 635 571 664 q 468 607 508 607 z "},"”":{"ha":619,"x_min":49,"x_max":571,"o":"m 57 642 q 106 699 75 658 q 142 786 136 740 q 77 815 106 789 q 49 883 49 842 q 80 960 49 931 q 151 989 111 989 q 228 958 194 989 q 261 863 261 926 q 217 714 261 782 q 111 607 172 646 l 57 642 m 367 642 q 415 699 386 658 q 451 786 444 740 q 387 815 415 789 q 358 883 358 842 q 390 960 358 931 q 461 989 421 989 q 538 958 506 989 q 571 863 571 926 q 526 714 571 782 q 421 607 482 646 l 367 642 z "},"‘":{"ha":310,"x_min":49,"x_max":261,"o":"m 158 607 q 81 638 114 607 q 49 733 49 669 q 93 882 49 814 q 199 989 138 950 l 253 954 q 204 897 233 938 q 168 810 175 856 q 233 781 204 807 q 261 713 261 754 q 230 635 261 664 q 158 607 199 607 z "},"’":{"ha":310,"x_min":49,"x_max":261,"o":"m 57 642 q 106 699 75 658 q 142 786 136 740 q 77 815 106 789 q 49 883 49 842 q 80 960 49 931 q 151 989 111 989 q 228 958 194 989 q 261 863 261 926 q 217 714 261 782 q 111 607 172 646 l 57 642 z "},"÷":{"ha":875,"x_min":111,"x_max":764,"o":"m 111 407 l 111 546 l 764 546 l 764 407 l 111 407 m 436 654 q 372 680 397 654 q 346 742 346 706 q 372 804 346 778 q 436 831 397 831 q 501 804 475 831 q 528 742 528 778 q 501 680 528 706 q 436 654 475 654 m 436 122 q 372 148 397 122 q 346 210 346 174 q 372 272 346 246 q 436 299 397 299 q 501 272 475 299 q 528 210 528 246 q 501 148 528 174 q 436 122 475 122 z "},"◊":{"ha":833,"x_min":76,"x_max":757,"o":"m 356 -17 l 76 486 l 356 989 l 478 989 l 757 486 l 478 -17 l 356 -17 m 417 806 l 225 486 l 417 167 l 608 486 l 417 806 z "},"ÿ":{"ha":747,"x_min":35,"x_max":713,"o":"m 190 -269 l 300 13 l 35 710 l 178 710 l 353 246 q 364 213 360 226 q 372 183 368 200 q 381 213 376 200 q 392 246 385 226 l 568 710 l 713 710 l 338 -269 l 190 -269 m 247 821 q 185 847 211 821 q 160 908 160 872 q 185 970 160 944 q 247 996 211 996 q 309 970 283 996 q 335 908 335 944 q 309 847 335 872 q 247 821 283 821 m 497 821 q 435 847 461 821 q 410 908 410 872 q 435 970 410 944 q 497 996 461 996 q 559 970 533 996 q 585 908 585 944 q 559 847 585 872 q 497 821 533 821 z "},"Ÿ":{"ha":925,"x_min":49,"x_max":876,"o":"m 390 0 l 390 381 l 49 972 l 214 972 l 463 528 l 711 972 l 876 972 l 535 382 l 535 0 l 390 0 m 338 1083 q 276 1109 301 1083 q 250 1171 250 1135 q 276 1233 250 1207 q 338 1258 301 1258 q 399 1233 374 1258 q 425 1171 425 1207 q 399 1109 425 1135 q 338 1083 374 1083 m 588 1083 q 526 1109 551 1083 q 500 1171 500 1135 q 526 1233 500 1207 q 588 1258 551 1258 q 649 1233 624 1258 q 675 1171 675 1207 q 649 1109 675 1135 q 588 1083 624 1083 z "},"⁄":{"ha":463,"x_min":-167,"x_max":629,"o":"m -167 -17 l 497 989 l 629 989 l -35 -17 l -167 -17 z "},"€":{"ha":875,"x_min":54,"x_max":819,"o":"m 529 -17 q 287 77 365 -17 q 182 301 208 171 l 54 301 l 106 424 l 167 424 q 165 455 165 439 q 165 486 165 471 q 165 508 165 497 q 167 529 165 518 l 56 529 l 107 651 l 182 651 q 292 886 208 783 q 543 989 376 989 q 671 971 608 989 q 797 906 733 953 l 740 768 q 658 824 706 799 q 543 850 611 850 q 402 792 451 850 q 333 651 353 733 l 692 651 l 640 529 l 317 529 q 315 507 315 518 q 315 486 315 496 q 315 455 315 471 q 317 424 315 439 l 600 424 l 549 301 l 336 301 q 401 174 356 225 q 529 122 447 122 q 624 149 582 122 q 699 222 667 176 l 819 147 q 703 28 775 74 q 529 -17 631 -17 z "},"‹":{"ha":431,"x_min":42,"x_max":410,"o":"m 253 0 l 42 356 l 253 710 l 410 710 l 199 356 l 410 0 l 253 0 z "},"›":{"ha":431,"x_min":21,"x_max":389,"o":"m 21 0 l 232 356 l 21 710 l 178 710 l 389 356 l 178 0 l 21 0 z "},"ﬁ":{"ha":821,"x_min":49,"x_max":731,"o":"m 299 585 l 299 0 l 154 0 l 154 585 l 49 585 l 49 710 l 154 710 l 154 824 q 205 956 154 922 q 317 989 256 989 q 393 980 358 989 q 458 956 428 971 l 458 836 q 403 856 426 850 q 357 861 379 861 q 310 843 322 861 q 299 797 299 825 l 299 710 l 458 710 l 458 585 l 299 585 m 571 0 l 571 710 l 715 710 l 715 0 l 571 0 m 643 821 q 581 847 607 821 q 556 908 556 872 q 581 970 556 944 q 643 996 607 996 q 705 970 679 996 q 731 908 731 944 q 705 847 731 872 q 643 821 679 821 z "},"ﬂ":{"ha":832,"x_min":49,"x_max":721,"o":"m 299 585 l 299 0 l 154 0 l 154 585 l 49 585 l 49 710 l 154 710 l 154 824 q 205 956 154 922 q 317 989 256 989 q 393 980 358 989 q 458 956 428 971 l 458 836 q 403 856 426 850 q 357 861 379 861 q 310 843 322 861 q 299 797 299 825 l 299 710 l 458 710 l 458 585 l 299 585 m 576 0 l 576 935 l 721 1003 l 721 0 l 576 0 z "},"‡":{"ha":778,"x_min":90,"x_max":688,"o":"m 688 67 l 611 67 l 449 90 l 461 -22 l 461 -196 l 317 -196 l 317 -22 l 328 90 l 167 67 l 90 67 l 90 206 l 167 206 l 329 183 l 317 326 l 317 467 l 329 610 l 167 588 l 90 588 l 90 726 l 167 726 l 328 703 l 317 815 l 317 989 l 461 989 l 461 815 l 449 703 l 611 726 l 688 726 l 688 588 l 611 588 l 447 610 l 461 467 l 461 326 l 447 183 l 611 206 l 688 206 l 688 67 z "},"·":{"ha":310,"x_min":50,"x_max":260,"o":"m 154 383 q 80 413 110 383 q 50 485 50 443 q 80 557 50 526 q 154 588 110 588 q 228 557 197 588 q 260 485 260 526 q 228 413 260 443 q 154 383 197 383 z "},"‚":{"ha":310,"x_min":49,"x_max":261,"o":"m 57 -161 q 106 -103 75 -144 q 142 -17 136 -62 q 77 13 106 -14 q 49 81 49 39 q 80 157 49 128 q 151 186 111 186 q 228 155 194 186 q 261 60 261 124 q 217 -89 261 -21 q 111 -196 172 -157 l 57 -161 z "},"„":{"ha":619,"x_min":49,"x_max":571,"o":"m 57 -161 q 106 -103 75 -144 q 142 -17 136 -62 q 77 13 106 -14 q 49 81 49 39 q 80 157 49 128 q 151 186 111 186 q 228 155 194 186 q 261 60 261 124 q 217 -89 261 -21 q 111 -196 172 -157 l 57 -161 m 367 -161 q 415 -103 386 -144 q 451 -17 444 -62 q 387 13 415 -14 q 358 81 358 39 q 390 157 358 128 q 461 186 421 186 q 538 155 506 186 q 571 60 571 124 q 526 -89 571 -21 q 421 -196 482 -157 l 367 -161 z "},"‰":{"ha":1724,"x_min":63,"x_max":1661,"o":"m 290 494 q 114 574 165 494 q 63 742 63 654 q 85 853 63 796 q 156 950 107 911 q 290 989 206 989 q 467 909 415 989 q 518 742 518 829 q 497 631 518 689 q 425 534 475 574 q 290 494 375 494 m 290 606 q 374 646 347 606 q 401 742 401 686 q 374 840 401 801 q 290 878 347 878 q 206 838 233 878 q 179 742 179 797 q 206 644 179 682 q 290 606 233 606 m 325 -17 l 193 -17 l 857 989 l 989 989 l 325 -17 m 892 -17 q 715 63 767 -17 q 664 231 664 143 q 686 342 664 285 q 758 439 708 400 q 892 478 808 478 q 1068 398 1017 478 q 1119 231 1119 318 q 1069 67 1119 150 q 892 -17 1019 -17 m 892 94 q 976 135 949 94 q 1003 231 1003 175 q 975 328 1003 290 q 892 367 947 367 q 808 326 835 367 q 781 231 781 286 q 808 133 781 171 q 892 94 836 94 m 1433 -17 q 1257 63 1308 -17 q 1206 231 1206 143 q 1228 342 1206 285 q 1300 439 1250 400 q 1433 478 1350 478 q 1610 398 1558 478 q 1661 231 1661 318 q 1611 67 1661 150 q 1433 -17 1561 -17 m 1433 94 q 1517 135 1490 94 q 1544 231 1544 175 q 1517 328 1544 290 q 1433 367 1489 367 q 1349 326 1376 367 q 1322 231 1322 286 q 1350 133 1322 171 q 1433 94 1378 94 z "},"Â":{"ha":967,"x_min":58,"x_max":908,"o":"m 758 0 l 681 224 l 288 224 l 208 0 l 58 0 l 410 972 l 558 972 l 908 0 l 758 0 m 636 351 l 518 682 q 500 736 510 706 q 485 792 490 767 q 469 736 478 767 q 451 682 460 706 l 332 351 l 636 351 m 614 1063 l 483 1172 l 353 1063 l 214 1063 l 411 1279 l 557 1279 l 753 1063 l 614 1063 z "},"Ê":{"ha":835,"x_min":125,"x_max":758,"o":"m 125 0 l 125 972 l 728 972 l 728 836 l 269 836 l 269 569 l 565 569 l 565 433 l 269 433 l 269 136 l 758 136 l 758 0 l 125 0 m 561 1063 l 431 1172 l 300 1063 l 161 1063 l 358 1279 l 504 1279 l 700 1063 l 561 1063 z "},"Á":{"ha":967,"x_min":58,"x_max":908,"o":"m 758 0 l 681 224 l 288 224 l 208 0 l 58 0 l 410 972 l 558 972 l 908 0 l 758 0 m 636 351 l 518 682 q 500 736 510 706 q 485 792 490 767 q 469 736 478 767 q 451 682 460 706 l 332 351 l 636 351 m 310 1063 l 507 1279 l 704 1279 l 457 1063 l 310 1063 z "},"Ë":{"ha":835,"x_min":125,"x_max":758,"o":"m 125 0 l 125 972 l 728 972 l 728 836 l 269 836 l 269 569 l 565 569 l 565 433 l 269 433 l 269 136 l 758 136 l 758 0 l 125 0 m 314 1083 q 252 1109 278 1083 q 226 1171 226 1135 q 252 1233 226 1207 q 314 1258 278 1258 q 376 1233 350 1258 q 401 1171 401 1207 q 376 1109 401 1135 q 314 1083 350 1083 m 564 1083 q 502 1109 528 1083 q 476 1171 476 1135 q 502 1233 476 1207 q 564 1258 528 1258 q 626 1233 600 1258 q 651 1171 651 1207 q 626 1109 651 1135 q 564 1083 600 1083 z "},"È":{"ha":835,"x_min":125,"x_max":758,"o":"m 125 0 l 125 972 l 728 972 l 728 836 l 269 836 l 269 569 l 565 569 l 565 433 l 269 433 l 269 136 l 758 136 l 758 0 l 125 0 m 425 1063 l 178 1279 l 375 1279 l 572 1063 l 425 1063 z "},"Í":{"ha":408,"x_min":44,"x_max":439,"o":"m 132 0 l 132 972 l 276 972 l 276 0 l 132 0 m 44 1063 l 242 1279 l 439 1279 l 192 1063 l 44 1063 z "},"Î":{"ha":408,"x_min":-65,"x_max":474,"o":"m 132 0 l 132 972 l 276 972 l 276 0 l 132 0 m 335 1063 l 204 1172 l 74 1063 l -65 1063 l 132 1279 l 278 1279 l 474 1063 l 335 1063 z "},"Ï":{"ha":408,"x_min":-8,"x_max":417,"o":"m 132 0 l 132 972 l 276 972 l 276 0 l 132 0 m 79 1083 q 17 1109 43 1083 q -8 1171 -8 1135 q 17 1233 -8 1207 q 79 1258 43 1258 q 141 1233 115 1258 q 167 1171 167 1207 q 141 1109 167 1135 q 79 1083 115 1083 m 329 1083 q 267 1109 293 1083 q 242 1171 242 1135 q 267 1233 242 1207 q 329 1258 293 1258 q 391 1233 365 1258 q 417 1171 417 1207 q 391 1109 417 1135 q 329 1083 365 1083 z "},"Ì":{"ha":408,"x_min":-15,"x_max":379,"o":"m 132 0 l 132 972 l 276 972 l 276 0 l 132 0 m 232 1063 l -15 1279 l 182 1279 l 379 1063 l 232 1063 z "},"Ó":{"ha":1028,"x_min":90,"x_max":938,"o":"m 514 -17 q 265 59 358 -17 q 131 251 172 135 q 90 486 90 367 q 131 722 90 606 q 265 913 172 838 q 514 989 358 989 q 763 913 669 989 q 897 722 856 838 q 938 486 938 606 q 897 251 938 367 q 763 59 856 135 q 514 -17 669 -17 m 514 122 q 675 181 615 122 q 761 323 735 239 q 788 486 788 407 q 761 655 788 571 q 675 794 735 739 q 514 850 615 850 q 353 792 413 850 q 267 649 293 733 q 240 486 240 565 q 267 317 240 401 q 353 178 293 233 q 514 122 413 122 m 340 1063 l 538 1279 l 735 1279 l 488 1063 l 340 1063 z "},"Ô":{"ha":1028,"x_min":90,"x_max":938,"o":"m 514 -17 q 265 59 358 -17 q 131 251 172 135 q 90 486 90 367 q 131 722 90 606 q 265 913 172 838 q 514 989 358 989 q 763 913 669 989 q 897 722 856 838 q 938 486 938 606 q 897 251 938 367 q 763 59 856 135 q 514 -17 669 -17 m 514 122 q 675 181 615 122 q 761 323 735 239 q 788 486 788 407 q 761 655 788 571 q 675 794 735 739 q 514 850 615 850 q 353 792 413 850 q 267 649 293 733 q 240 486 240 565 q 267 317 240 401 q 353 178 293 233 q 514 122 413 122 m 644 1063 l 514 1172 l 383 1063 l 244 1063 l 442 1279 l 588 1279 l 783 1063 l 644 1063 z "},"Ò":{"ha":1028,"x_min":90,"x_max":938,"o":"m 514 -17 q 265 59 358 -17 q 131 251 172 135 q 90 486 90 367 q 131 722 90 606 q 265 913 172 838 q 514 989 358 989 q 763 913 669 989 q 897 722 856 838 q 938 486 938 606 q 897 251 938 367 q 763 59 856 135 q 514 -17 669 -17 m 514 122 q 675 181 615 122 q 761 323 735 239 q 788 486 788 407 q 761 655 788 571 q 675 794 735 739 q 514 850 615 850 q 353 792 413 850 q 267 649 293 733 q 240 486 240 565 q 267 317 240 401 q 353 178 293 233 q 514 122 413 122 m 515 1064 l 268 1281 l 465 1281 l 663 1064 l 515 1064 z "},"Ú":{"ha":968,"x_min":118,"x_max":850,"o":"m 483 -17 q 300 19 383 -17 q 167 140 217 56 q 118 368 118 224 l 118 972 l 263 972 l 263 368 q 326 172 263 222 q 483 122 389 122 q 642 172 578 122 q 706 368 706 222 l 706 972 l 850 972 l 850 368 q 801 141 850 225 q 670 20 753 57 q 483 -17 588 -17 m 335 1063 l 532 1279 l 729 1279 l 482 1063 l 335 1063 z "},"Û":{"ha":968,"x_min":118,"x_max":850,"o":"m 483 -17 q 300 19 383 -17 q 167 140 217 56 q 118 368 118 224 l 118 972 l 263 972 l 263 368 q 326 172 263 222 q 483 122 389 122 q 642 172 578 122 q 706 368 706 222 l 706 972 l 850 972 l 850 368 q 801 141 850 225 q 670 20 753 57 q 483 -17 588 -17 m 615 1063 l 485 1172 l 354 1063 l 215 1063 l 413 1279 l 558 1279 l 754 1063 l 615 1063 z "},"Ù":{"ha":968,"x_min":118,"x_max":850,"o":"m 483 -17 q 300 19 383 -17 q 167 140 217 56 q 118 368 118 224 l 118 972 l 263 972 l 263 368 q 326 172 263 222 q 483 122 389 122 q 642 172 578 122 q 706 368 706 222 l 706 972 l 850 972 l 850 368 q 801 141 850 225 q 670 20 753 57 q 483 -17 588 -17 m 513 1063 l 265 1279 l 463 1279 l 660 1063 l 513 1063 z "},"ı":{"ha":356,"x_min":106,"x_max":250,"o":"m 106 0 l 106 710 l 250 710 l 250 0 l 106 0 z "},"ˆ":{"ha":556,"x_min":8,"x_max":547,"o":"m 408 800 l 278 910 l 147 800 l 8 800 l 206 1017 l 351 1017 l 547 800 l 408 800 z "},"˜":{"ha":556,"x_min":22,"x_max":533,"o":"m 388 815 q 263 849 314 815 q 158 882 211 882 q 113 867 132 882 q 93 821 94 853 l 22 821 q 56 953 22 904 q 168 1001 89 1001 q 293 968 242 1001 q 397 935 344 935 q 442 949 424 935 q 463 996 461 964 l 533 996 q 500 864 533 913 q 388 815 467 815 z "},"¯":{"ha":556,"x_min":49,"x_max":507,"o":"m 49 829 l 49 949 l 507 949 l 507 829 l 49 829 z "},"˘":{"ha":556,"x_min":21,"x_max":536,"o":"m 278 800 q 83 869 144 800 q 21 1031 21 938 l 143 1031 q 178 950 143 983 q 278 917 214 917 q 378 950 342 917 q 414 1031 414 983 l 536 1031 q 474 868 536 936 q 278 800 411 800 z "},"˙":{"ha":556,"x_min":190,"x_max":365,"o":"m 278 821 q 216 847 242 821 q 190 908 190 872 q 216 970 190 944 q 278 996 242 996 q 340 970 314 996 q 365 908 365 944 q 340 847 365 872 q 278 821 314 821 z "},"˚":{"ha":556,"x_min":107,"x_max":449,"o":"m 278 739 q 158 789 208 739 q 107 908 107 839 q 158 1027 107 978 q 278 1076 208 1076 q 398 1027 347 1076 q 449 908 449 978 q 398 789 449 839 q 278 739 347 739 m 278 843 q 322 862 304 843 q 340 908 340 881 q 322 955 340 936 q 278 974 304 974 q 233 955 251 974 q 215 908 215 936 q 233 862 215 881 q 278 843 251 843 z "},"¸":{"ha":556,"x_min":132,"x_max":446,"o":"m 271 -332 q 187 -317 221 -332 q 132 -279 153 -303 l 203 -228 q 257 -249 219 -249 q 308 -231 289 -249 q 326 -187 326 -214 q 305 -144 326 -161 q 251 -128 283 -128 q 196 -142 218 -128 l 168 -107 l 265 14 l 344 14 l 293 -69 q 410 -106 375 -69 q 446 -189 446 -142 q 399 -292 446 -251 q 271 -332 351 -332 z "},"˝":{"ha":556,"x_min":11,"x_max":697,"o":"m 158 800 l 11 800 l 208 1017 l 406 1017 l 158 800 m 450 800 l 303 800 l 500 1017 l 697 1017 l 450 800 z "},"˛":{"ha":556,"x_min":119,"x_max":436,"o":"m 288 -332 q 166 -294 213 -332 q 119 -189 119 -257 q 170 -67 119 -119 q 310 14 221 -15 l 414 14 q 279 -76 319 -25 q 239 -176 239 -128 q 259 -230 239 -211 q 308 -249 279 -249 q 342 -241 328 -249 q 365 -222 357 -233 l 436 -274 q 379 -315 415 -297 q 288 -332 343 -332 z "},"ˇ":{"ha":556,"x_min":8,"x_max":547,"o":"m 350 800 l 204 800 l 8 1017 l 147 1017 l 278 907 l 408 1017 l 547 1017 l 350 800 z "},"¤":{"ha":875,"x_min":50,"x_max":825,"o":"m 438 119 q 337 132 383 119 q 251 169 290 144 l 158 75 l 50 183 l 149 282 q 107 463 107 357 q 118 560 107 514 q 150 644 129 606 l 50 744 l 154 849 l 249 754 q 335 793 288 779 q 438 807 382 807 q 624 756 544 807 l 717 849 l 825 740 l 728 643 q 758 559 747 604 q 769 463 769 514 q 725 278 769 356 l 825 179 l 721 75 l 625 171 q 438 119 546 119 m 438 258 q 572 316 521 258 q 622 463 622 374 q 572 610 622 551 q 438 668 521 668 q 305 610 356 668 q 254 463 254 551 q 305 316 254 374 q 438 258 356 258 z "},"­":{"ha":549,"x_min":104,"x_max":444,"o":"m 104 343 l 104 482 l 444 482 l 444 343 l 104 343 z "},"Ā":{"ha":967,"x_min":58,"x_max":908,"o":"m 758 0 l 681 224 l 288 224 l 208 0 l 58 0 l 410 972 l 558 972 l 908 0 l 758 0 m 636 351 l 518 682 q 500 736 510 706 q 485 792 490 767 q 469 736 478 767 q 451 682 460 706 l 332 351 l 636 351 m 254 1092 l 254 1211 l 713 1211 l 713 1092 l 254 1092 z "},"ā":{"ha":739,"x_min":63,"x_max":649,"o":"m 510 0 l 510 61 q 435 8 483 33 q 315 -17 386 -17 q 135 43 207 -17 q 63 221 63 103 q 147 400 63 344 q 335 456 231 456 q 429 445 383 456 q 510 414 475 435 l 510 453 q 473 566 510 533 q 358 599 436 599 q 243 581 292 599 q 156 535 194 564 l 113 653 q 223 705 156 683 q 378 726 290 726 q 501 709 439 726 q 606 635 564 692 q 649 460 649 578 l 649 0 l 510 0 m 342 111 q 440 133 397 111 q 510 188 482 156 l 510 296 q 440 321 481 311 q 358 331 400 331 q 248 305 294 331 q 201 221 201 279 q 237 141 201 171 q 342 111 272 111 m 149 829 l 149 949 l 607 949 l 607 829 l 149 829 z "},"Ă":{"ha":967,"x_min":58,"x_max":908,"o":"m 758 0 l 681 224 l 288 224 l 208 0 l 58 0 l 410 972 l 558 972 l 908 0 l 758 0 m 636 351 l 518 682 q 500 736 510 706 q 485 792 490 767 q 469 736 478 767 q 451 682 460 706 l 332 351 l 636 351 m 483 1063 q 288 1131 350 1063 q 226 1293 226 1200 l 349 1293 q 384 1213 349 1246 q 483 1179 419 1179 q 583 1213 547 1179 q 619 1293 619 1246 l 742 1293 q 679 1131 742 1199 q 483 1063 617 1063 z "},"ă":{"ha":739,"x_min":63,"x_max":649,"o":"m 510 0 l 510 61 q 435 8 483 33 q 315 -17 386 -17 q 135 43 207 -17 q 63 221 63 103 q 147 400 63 344 q 335 456 231 456 q 429 445 383 456 q 510 414 475 435 l 510 453 q 473 566 510 533 q 358 599 436 599 q 243 581 292 599 q 156 535 194 564 l 113 653 q 223 705 156 683 q 378 726 290 726 q 501 709 439 726 q 606 635 564 692 q 649 460 649 578 l 649 0 l 510 0 m 342 111 q 440 133 397 111 q 510 188 482 156 l 510 296 q 440 321 481 311 q 358 331 400 331 q 248 305 294 331 q 201 221 201 279 q 237 141 201 171 q 342 111 272 111 m 378 800 q 183 869 244 800 q 121 1031 121 938 l 243 1031 q 278 950 243 983 q 378 917 314 917 q 478 950 442 917 q 514 1031 514 983 l 636 1031 q 574 868 636 936 q 378 800 511 800 z "},"Ą":{"ha":967,"x_min":58,"x_max":908,"o":"m 760 -332 q 638 -294 685 -332 q 592 -189 592 -257 q 634 -79 592 -128 q 758 0 676 -31 l 681 224 l 288 224 l 208 0 l 58 0 l 410 972 l 558 972 l 908 0 q 774 -54 836 0 q 711 -176 711 -108 q 731 -230 711 -211 q 781 -249 751 -249 q 815 -241 800 -249 q 838 -222 829 -233 l 908 -274 q 851 -315 888 -297 q 760 -332 815 -332 m 332 351 l 636 351 l 518 682 q 500 736 510 706 q 485 792 490 767 q 469 736 478 767 q 451 682 460 706 l 332 351 z "},"ą":{"ha":739,"x_min":63,"x_max":671,"o":"m 522 -332 q 401 -294 447 -332 q 354 -189 354 -257 q 395 -78 354 -126 q 510 0 436 -31 l 510 61 q 435 8 483 33 q 315 -17 386 -17 q 135 43 207 -17 q 63 221 63 103 q 147 400 63 344 q 335 456 231 456 q 429 445 383 456 q 510 414 475 435 l 510 453 q 473 566 510 533 q 358 599 436 599 q 243 581 292 599 q 156 535 194 564 l 113 653 q 223 705 156 683 q 378 726 290 726 q 501 709 439 726 q 606 635 564 692 q 649 460 649 578 l 649 0 q 551 -41 589 -11 q 493 -108 513 -71 q 474 -176 474 -144 q 494 -230 474 -211 q 543 -249 514 -249 q 577 -241 563 -249 q 600 -222 592 -233 l 671 -274 q 614 -315 650 -297 q 522 -332 578 -332 m 342 111 q 440 133 397 111 q 510 188 482 156 l 510 296 q 440 321 481 311 q 358 331 400 331 q 248 305 294 331 q 201 221 201 279 q 237 141 201 171 q 342 111 272 111 z "},"Ǎ":{"ha":967,"x_min":58,"x_max":908,"o":"m 758 0 l 681 224 l 288 224 l 208 0 l 58 0 l 410 972 l 558 972 l 908 0 l 758 0 m 636 351 l 518 682 q 500 736 510 706 q 485 792 490 767 q 469 736 478 767 q 451 682 460 706 l 332 351 l 636 351 m 556 1063 l 410 1063 l 214 1279 l 353 1279 l 483 1169 l 614 1279 l 753 1279 l 556 1063 z "},"ǎ":{"ha":739,"x_min":63,"x_max":649,"o":"m 510 0 l 510 61 q 435 8 483 33 q 315 -17 386 -17 q 135 43 207 -17 q 63 221 63 103 q 147 400 63 344 q 335 456 231 456 q 429 445 383 456 q 510 414 475 435 l 510 453 q 473 566 510 533 q 358 599 436 599 q 243 581 292 599 q 156 535 194 564 l 113 653 q 223 705 156 683 q 378 726 290 726 q 501 709 439 726 q 606 635 564 692 q 649 460 649 578 l 649 0 l 510 0 m 342 111 q 440 133 397 111 q 510 188 482 156 l 510 296 q 440 321 481 311 q 358 331 400 331 q 248 305 294 331 q 201 221 201 279 q 237 141 201 171 q 342 111 272 111 m 450 800 l 304 800 l 108 1017 l 247 1017 l 378 907 l 508 1017 l 647 1017 l 450 800 z "},"Ǽ":{"ha":1178,"x_min":-17,"x_max":1121,"o":"m -17 0 l 547 972 l 1090 972 l 1090 836 l 710 836 l 710 569 l 928 569 l 928 433 l 710 433 l 710 136 l 1121 136 l 1121 0 l 565 0 l 565 224 l 265 224 l 139 0 l -17 0 m 340 353 l 565 353 l 565 758 q 538 703 554 733 q 508 649 522 672 l 340 353 m 535 1063 l 732 1279 l 929 1279 l 682 1063 l 535 1063 z "},"ǽ":{"ha":1192,"x_min":63,"x_max":1129,"o":"m 315 -17 q 135 43 207 -17 q 63 221 63 103 q 147 400 63 344 q 335 456 231 456 q 429 445 383 456 q 510 414 475 435 l 510 453 q 473 566 510 533 q 358 599 436 599 q 243 581 292 599 q 156 535 194 564 l 113 653 q 223 705 156 683 q 378 726 290 726 q 494 710 433 726 q 594 635 556 693 q 824 726 682 726 q 1040 645 950 726 q 1129 394 1129 564 q 1128 346 1129 372 q 1124 301 1126 319 l 647 301 q 703 163 650 214 q 825 111 756 111 q 907 129 869 111 q 972 183 944 147 l 1067 86 q 967 12 1028 40 q 824 -17 907 -17 q 681 13 743 -17 q 575 96 618 42 q 440 6 511 29 q 315 -17 368 -17 m 342 111 q 439 133 396 111 q 510 188 482 156 q 510 242 510 214 q 510 296 510 269 q 358 331 444 331 q 248 305 294 331 q 201 221 201 279 q 237 141 201 171 q 342 111 272 111 m 647 424 l 983 424 q 931 558 981 518 q 824 599 881 599 q 704 558 756 599 q 647 424 653 518 m 456 800 l 653 1017 l 850 1017 l 603 800 l 456 800 z "},"Ć":{"ha":903,"x_min":90,"x_max":826,"o":"m 494 -17 q 256 59 344 -17 q 128 251 167 135 q 90 486 90 367 q 129 714 90 597 q 256 910 168 831 q 494 989 344 989 q 714 928 632 989 q 825 796 796 868 l 693 735 q 614 820 658 790 q 494 850 569 850 q 342 792 397 850 q 263 651 286 735 q 240 486 240 567 q 267 316 240 400 q 349 177 293 232 q 494 122 406 122 q 613 157 567 122 q 692 247 658 192 l 826 196 q 705 42 786 101 q 494 -17 624 -17 m 346 1063 l 543 1279 l 740 1279 l 493 1063 l 346 1063 z "},"ć":{"ha":719,"x_min":69,"x_max":650,"o":"m 379 -17 q 153 81 236 -17 q 69 354 69 179 q 153 628 69 529 q 379 726 236 726 q 547 682 478 726 q 647 543 617 638 l 510 496 q 463 562 494 536 q 385 588 431 588 q 260 525 303 588 q 217 354 217 463 q 260 184 217 246 q 379 122 303 122 q 513 226 482 122 l 650 183 q 553 34 622 85 q 379 -17 485 -17 m 204 800 l 401 1017 l 599 1017 l 351 800 l 204 800 z "},"Ĉ":{"ha":903,"x_min":90,"x_max":826,"o":"m 494 -17 q 256 59 344 -17 q 128 251 167 135 q 90 486 90 367 q 129 714 90 597 q 256 910 168 831 q 494 989 344 989 q 714 928 632 989 q 825 796 796 868 l 693 735 q 614 820 658 790 q 494 850 569 850 q 342 792 397 850 q 263 651 286 735 q 240 486 240 567 q 267 316 240 400 q 349 177 293 232 q 494 122 406 122 q 613 157 567 122 q 692 247 658 192 l 826 196 q 705 42 786 101 q 494 -17 624 -17 m 624 1063 l 493 1172 l 363 1063 l 224 1063 l 421 1279 l 567 1279 l 763 1063 l 624 1063 z "},"ĉ":{"ha":719,"x_min":69,"x_max":650,"o":"m 379 -17 q 153 81 236 -17 q 69 354 69 179 q 153 628 69 529 q 379 726 236 726 q 547 682 478 726 q 647 543 617 638 l 510 496 q 463 562 494 536 q 385 588 431 588 q 260 525 303 588 q 217 354 217 463 q 260 184 217 246 q 379 122 303 122 q 513 226 482 122 l 650 183 q 553 34 622 85 q 379 -17 485 -17 m 508 800 l 378 910 l 247 800 l 108 800 l 306 1017 l 451 1017 l 647 800 l 508 800 z "},"Ċ":{"ha":903,"x_min":90,"x_max":826,"o":"m 494 -17 q 256 59 344 -17 q 128 251 167 135 q 90 486 90 367 q 129 714 90 597 q 256 910 168 831 q 494 989 344 989 q 714 928 632 989 q 825 796 796 868 l 693 735 q 614 820 658 790 q 494 850 569 850 q 342 792 397 850 q 263 651 286 735 q 240 486 240 567 q 267 316 240 400 q 349 177 293 232 q 494 122 406 122 q 613 157 567 122 q 692 247 658 192 l 826 196 q 705 42 786 101 q 494 -17 624 -17 m 493 1083 q 431 1109 457 1083 q 406 1171 406 1135 q 431 1233 406 1207 q 493 1258 457 1258 q 555 1233 529 1258 q 581 1171 581 1207 q 555 1109 581 1135 q 493 1083 529 1083 z "},"ċ":{"ha":719,"x_min":69,"x_max":650,"o":"m 379 -17 q 153 81 236 -17 q 69 354 69 179 q 153 628 69 529 q 379 726 236 726 q 547 682 478 726 q 647 543 617 638 l 510 496 q 463 562 494 536 q 385 588 431 588 q 260 525 303 588 q 217 354 217 463 q 260 184 217 246 q 379 122 303 122 q 513 226 482 122 l 650 183 q 553 34 622 85 q 379 -17 485 -17 m 378 821 q 316 847 342 821 q 290 908 290 872 q 316 970 290 944 q 378 996 342 996 q 440 970 414 996 q 465 908 465 944 q 440 847 465 872 q 378 821 414 821 z "},"Č":{"ha":903,"x_min":90,"x_max":826,"o":"m 494 -17 q 256 59 344 -17 q 128 251 167 135 q 90 486 90 367 q 129 714 90 597 q 256 910 168 831 q 494 989 344 989 q 714 928 632 989 q 825 796 796 868 l 693 735 q 614 820 658 790 q 494 850 569 850 q 342 792 397 850 q 263 651 286 735 q 240 486 240 567 q 267 316 240 400 q 349 177 293 232 q 494 122 406 122 q 613 157 567 122 q 692 247 658 192 l 826 196 q 705 42 786 101 q 494 -17 624 -17 m 565 1063 l 419 1063 l 224 1279 l 363 1279 l 493 1169 l 624 1279 l 763 1279 l 565 1063 z "},"č":{"ha":719,"x_min":69,"x_max":650,"o":"m 379 -17 q 153 81 236 -17 q 69 354 69 179 q 153 628 69 529 q 379 726 236 726 q 547 682 478 726 q 647 543 617 638 l 510 496 q 463 562 494 536 q 385 588 431 588 q 260 525 303 588 q 217 354 217 463 q 260 184 217 246 q 379 122 303 122 q 513 226 482 122 l 650 183 q 553 34 622 85 q 379 -17 485 -17 m 450 800 l 304 800 l 108 1017 l 247 1017 l 378 907 l 508 1017 l 647 1017 l 450 800 z "},"Ď":{"ha":951,"x_min":125,"x_max":861,"o":"m 125 972 l 397 972 q 669 901 567 972 q 816 717 771 829 q 861 486 861 606 q 818 263 861 375 q 672 75 775 150 q 392 0 569 0 l 125 0 l 125 972 m 415 136 q 591 190 526 136 q 683 324 656 243 q 711 486 711 404 q 683 653 711 574 q 592 785 654 733 q 431 836 531 836 l 269 836 l 269 136 l 415 136 m 501 1063 l 356 1063 l 160 1279 l 299 1279 l 429 1169 l 560 1279 l 699 1279 l 501 1063 z "},"ď":{"ha":1003,"x_min":69,"x_max":968,"o":"m 364 -17 q 149 82 229 -17 q 69 356 69 181 q 151 628 69 531 q 364 726 233 726 q 464 707 422 726 q 532 660 506 688 l 532 936 l 676 1003 l 676 0 l 532 0 l 532 50 q 464 1 504 19 q 364 -17 424 -17 m 385 119 q 532 200 482 119 l 532 513 q 478 565 515 539 q 385 590 440 590 q 214 356 214 590 q 259 186 214 253 q 385 119 304 119 m 968 989 l 968 978 q 934 795 968 875 q 832 649 900 715 l 788 682 q 817 810 806 721 q 828 989 828 900 l 968 989 z "},"Đ":{"ha":951,"x_min":35,"x_max":861,"o":"m 125 419 l 35 419 l 35 553 l 125 553 l 125 972 l 397 972 q 669 901 567 972 q 816 717 771 829 q 861 486 861 606 q 818 263 861 375 q 672 75 775 150 q 392 0 569 0 l 125 0 l 125 419 m 415 136 q 591 190 526 136 q 683 324 656 243 q 711 486 711 404 q 683 653 711 574 q 592 785 654 733 q 431 836 531 836 l 269 836 l 269 553 l 479 553 l 479 419 l 269 419 l 269 136 l 415 136 z "},"đ":{"ha":781,"x_min":69,"x_max":760,"o":"m 676 753 l 676 0 l 532 0 l 532 50 q 464 1 504 19 q 364 -17 424 -17 q 149 79 229 -17 q 69 335 69 175 q 151 588 69 494 q 364 682 233 682 q 464 663 422 682 q 532 615 506 643 l 532 753 l 356 753 l 356 875 l 532 875 l 532 936 l 676 1003 l 676 875 l 760 875 l 760 753 l 676 753 m 385 119 q 532 200 482 119 l 532 468 q 478 520 515 494 q 385 546 440 546 q 258 490 303 546 q 214 335 214 433 q 259 183 214 247 q 385 119 304 119 z "},"Ē":{"ha":835,"x_min":125,"x_max":758,"o":"m 125 0 l 125 972 l 728 972 l 728 836 l 269 836 l 269 569 l 565 569 l 565 433 l 269 433 l 269 136 l 758 136 l 758 0 l 125 0 m 197 1092 l 197 1211 l 656 1211 l 656 1092 l 197 1092 z "},"ē":{"ha":760,"x_min":69,"x_max":697,"o":"m 392 -17 q 157 82 244 -17 q 69 356 69 181 q 158 628 69 531 q 392 726 246 726 q 608 645 518 726 q 697 394 697 564 q 696 346 697 372 q 692 301 694 319 l 214 301 q 271 163 217 214 q 393 111 325 111 q 475 129 436 111 q 540 183 514 147 l 635 86 q 535 12 596 40 q 392 -17 475 -17 m 214 418 l 553 418 q 499 558 550 517 q 392 599 449 599 q 272 558 324 599 q 214 418 219 517 m 163 829 l 163 949 l 621 949 l 621 829 l 163 829 z "},"Ĕ":{"ha":835,"x_min":125,"x_max":758,"o":"m 125 0 l 125 972 l 728 972 l 728 836 l 269 836 l 269 569 l 565 569 l 565 433 l 269 433 l 269 136 l 758 136 l 758 0 l 125 0 m 426 1063 q 231 1131 293 1063 q 169 1293 169 1200 l 292 1293 q 327 1213 292 1246 q 426 1179 363 1179 q 526 1213 490 1179 q 563 1293 563 1246 l 685 1293 q 622 1131 685 1199 q 426 1063 560 1063 z "},"ĕ":{"ha":760,"x_min":69,"x_max":697,"o":"m 392 -17 q 157 82 244 -17 q 69 356 69 181 q 158 628 69 531 q 392 726 246 726 q 608 645 518 726 q 697 394 697 564 q 696 346 697 372 q 692 301 694 319 l 214 301 q 271 163 217 214 q 393 111 325 111 q 475 129 436 111 q 540 183 514 147 l 635 86 q 535 12 596 40 q 392 -17 475 -17 m 214 418 l 553 418 q 499 558 550 517 q 392 599 449 599 q 272 558 324 599 q 214 418 219 517 m 392 800 q 197 869 258 800 q 135 1031 135 938 l 257 1031 q 292 950 257 983 q 392 917 328 917 q 492 950 456 917 q 528 1031 528 983 l 650 1031 q 588 868 650 936 q 392 800 525 800 z "},"Ė":{"ha":835,"x_min":125,"x_max":758,"o":"m 125 0 l 125 972 l 728 972 l 728 836 l 269 836 l 269 569 l 565 569 l 565 433 l 269 433 l 269 136 l 758 136 l 758 0 l 125 0 m 426 1083 q 365 1109 390 1083 q 339 1171 339 1135 q 365 1233 339 1207 q 426 1258 390 1258 q 488 1233 463 1258 q 514 1171 514 1207 q 488 1109 514 1135 q 426 1083 463 1083 z "},"ė":{"ha":760,"x_min":69,"x_max":697,"o":"m 392 -17 q 157 82 244 -17 q 69 356 69 181 q 158 628 69 531 q 392 726 246 726 q 608 645 518 726 q 697 394 697 564 q 696 346 697 372 q 692 301 694 319 l 214 301 q 271 163 217 214 q 393 111 325 111 q 475 129 436 111 q 540 183 514 147 l 635 86 q 535 12 596 40 q 392 -17 475 -17 m 214 418 l 553 418 q 499 558 550 517 q 392 599 449 599 q 272 558 324 599 q 214 418 219 517 m 392 821 q 330 847 356 821 q 304 908 304 872 q 330 970 304 944 q 392 996 356 996 q 453 970 428 996 q 479 908 479 944 q 453 847 479 872 q 392 821 428 821 z "},"Ę":{"ha":835,"x_min":125,"x_max":758,"o":"m 564 -332 q 442 -294 489 -332 q 396 -189 396 -257 q 438 -78 396 -128 q 549 0 479 -28 l 125 0 l 125 972 l 728 972 l 728 836 l 269 836 l 269 569 l 565 569 l 565 433 l 269 433 l 269 136 l 758 136 l 758 0 l 721 0 q 568 -63 621 0 q 515 -176 515 -126 q 535 -230 515 -211 q 585 -249 556 -249 q 619 -241 604 -249 q 642 -222 633 -233 l 713 -274 q 656 -315 692 -297 q 564 -332 619 -332 z "},"ę":{"ha":760,"x_min":69,"x_max":697,"o":"m 414 -332 q 292 -294 339 -332 q 246 -189 246 -257 q 368 -17 246 -79 q 149 90 229 -7 q 69 356 69 188 q 158 628 69 531 q 392 726 246 726 q 608 645 518 726 q 697 394 697 564 q 696 346 697 372 q 692 301 694 319 l 214 301 q 271 163 217 214 q 393 111 325 111 q 475 129 436 111 q 540 183 514 147 l 635 86 q 581 38 613 58 q 515 -3 550 17 q 413 -73 460 -35 q 365 -176 365 -111 q 385 -230 365 -211 q 435 -249 406 -249 q 469 -241 454 -249 q 492 -222 483 -233 l 563 -274 q 506 -315 542 -297 q 414 -332 469 -332 m 392 599 q 272 558 324 599 q 214 418 219 517 l 553 418 q 499 558 550 517 q 392 599 449 599 z "},"Ě":{"ha":835,"x_min":125,"x_max":758,"o":"m 125 0 l 125 972 l 728 972 l 728 836 l 269 836 l 269 569 l 565 569 l 565 433 l 269 433 l 269 136 l 758 136 l 758 0 l 125 0 m 499 1063 l 353 1063 l 157 1279 l 296 1279 l 426 1169 l 557 1279 l 696 1279 l 499 1063 z "},"ě":{"ha":760,"x_min":69,"x_max":697,"o":"m 392 -17 q 157 82 244 -17 q 69 356 69 181 q 158 628 69 531 q 392 726 246 726 q 608 645 518 726 q 697 394 697 564 q 696 346 697 372 q 692 301 694 319 l 214 301 q 271 163 217 214 q 393 111 325 111 q 475 129 436 111 q 540 183 514 147 l 635 86 q 535 12 596 40 q 392 -17 475 -17 m 214 418 l 553 418 q 499 558 550 517 q 392 599 449 599 q 272 558 324 599 q 214 418 219 517 m 464 800 l 318 800 l 122 1017 l 261 1017 l 392 907 l 522 1017 l 661 1017 l 464 800 z "},"Ĝ":{"ha":958,"x_min":90,"x_max":868,"o":"m 514 -17 q 271 56 364 -17 q 134 244 178 129 q 90 486 90 358 q 135 721 90 606 q 275 913 181 836 q 514 989 369 989 q 727 933 653 989 q 846 804 801 876 l 715 729 q 635 813 682 778 q 514 847 589 847 q 349 790 408 847 q 265 650 289 733 q 240 486 240 567 q 269 310 240 393 q 357 176 297 228 q 514 125 417 125 q 663 185 606 125 q 719 331 719 244 l 719 350 l 544 350 l 544 486 l 868 486 l 868 360 q 766 80 868 176 q 514 -17 664 -17 m 644 1063 l 514 1172 l 383 1063 l 244 1063 l 442 1279 l 588 1279 l 783 1063 l 644 1063 z "},"ĝ":{"ha":781,"x_min":69,"x_max":676,"o":"m 342 -278 l 269 -167 q 478 -114 425 -157 q 532 -6 532 -71 l 532 57 q 459 1 501 19 q 361 -17 417 -17 q 154 76 239 -17 q 69 356 69 169 q 151 628 69 531 q 364 726 233 726 q 467 705 426 726 q 532 660 508 683 l 532 710 l 676 710 l 676 46 q 638 -135 676 -67 q 526 -236 600 -203 q 342 -278 451 -269 m 388 119 q 469 142 431 119 q 532 203 508 164 l 532 510 q 470 567 510 544 q 388 590 431 590 q 214 356 214 590 q 260 183 214 247 q 388 119 307 119 m 533 800 l 403 910 l 272 800 l 133 800 l 331 1017 l 476 1017 l 672 800 l 533 800 z "},"Ğ":{"ha":958,"x_min":90,"x_max":868,"o":"m 514 -17 q 271 56 364 -17 q 134 244 178 129 q 90 486 90 358 q 135 721 90 606 q 275 913 181 836 q 514 989 369 989 q 727 933 653 989 q 846 804 801 876 l 715 729 q 635 813 682 778 q 514 847 589 847 q 349 790 408 847 q 265 650 289 733 q 240 486 240 567 q 269 310 240 393 q 357 176 297 228 q 514 125 417 125 q 663 185 606 125 q 719 331 719 244 l 719 350 l 544 350 l 544 486 l 868 486 l 868 360 q 766 80 868 176 q 514 -17 664 -17 m 514 1063 q 319 1131 381 1063 q 257 1293 257 1200 l 379 1293 q 415 1213 379 1246 q 514 1179 450 1179 q 614 1213 578 1179 q 650 1293 650 1246 l 772 1293 q 710 1131 772 1199 q 514 1063 647 1063 z "},"ğ":{"ha":781,"x_min":69,"x_max":676,"o":"m 342 -278 l 269 -167 q 478 -114 425 -157 q 532 -6 532 -71 l 532 57 q 459 1 501 19 q 361 -17 417 -17 q 154 76 239 -17 q 69 356 69 169 q 151 628 69 531 q 364 726 233 726 q 467 705 426 726 q 532 660 508 683 l 532 710 l 676 710 l 676 46 q 638 -135 676 -67 q 526 -236 600 -203 q 342 -278 451 -269 m 388 119 q 469 142 431 119 q 532 203 508 164 l 532 510 q 470 567 510 544 q 388 590 431 590 q 214 356 214 590 q 260 183 214 247 q 388 119 307 119 m 403 800 q 208 869 269 800 q 146 1031 146 938 l 268 1031 q 303 950 268 983 q 403 917 339 917 q 503 950 467 917 q 539 1031 539 983 l 661 1031 q 599 868 661 936 q 403 800 536 800 z "},"Ġ":{"ha":958,"x_min":90,"x_max":868,"o":"m 514 -17 q 271 56 364 -17 q 134 244 178 129 q 90 486 90 358 q 135 721 90 606 q 275 913 181 836 q 514 989 369 989 q 727 933 653 989 q 846 804 801 876 l 715 729 q 635 813 682 778 q 514 847 589 847 q 349 790 408 847 q 265 650 289 733 q 240 486 240 567 q 269 310 240 393 q 357 176 297 228 q 514 125 417 125 q 663 185 606 125 q 719 331 719 244 l 719 350 l 544 350 l 544 486 l 868 486 l 868 360 q 766 80 868 176 q 514 -17 664 -17 m 514 1083 q 452 1109 478 1083 q 426 1171 426 1135 q 452 1233 426 1207 q 514 1258 478 1258 q 576 1233 550 1258 q 601 1171 601 1207 q 576 1109 601 1135 q 514 1083 550 1083 z "},"ġ":{"ha":781,"x_min":69,"x_max":676,"o":"m 342 -278 l 269 -167 q 478 -114 425 -157 q 532 -6 532 -71 l 532 57 q 459 1 501 19 q 361 -17 417 -17 q 154 76 239 -17 q 69 356 69 169 q 151 628 69 531 q 364 726 233 726 q 467 705 426 726 q 532 660 508 683 l 532 710 l 676 710 l 676 46 q 638 -135 676 -67 q 526 -236 600 -203 q 342 -278 451 -269 m 388 119 q 469 142 431 119 q 532 203 508 164 l 532 510 q 470 567 510 544 q 388 590 431 590 q 214 356 214 590 q 260 183 214 247 q 388 119 307 119 m 403 821 q 341 847 367 821 q 315 908 315 872 q 341 970 315 944 q 403 996 367 996 q 465 970 439 996 q 490 908 490 944 q 465 847 490 872 q 403 821 439 821 z "},"Ģ":{"ha":958,"x_min":90,"x_max":868,"o":"m 514 -17 q 271 56 364 -17 q 134 244 178 129 q 90 486 90 358 q 135 721 90 606 q 275 913 181 836 q 514 989 369 989 q 727 933 653 989 q 846 804 801 876 l 715 729 q 635 813 682 778 q 514 847 589 847 q 349 790 408 847 q 265 650 289 733 q 240 486 240 567 q 269 310 240 393 q 357 176 297 228 q 514 125 417 125 q 663 185 606 125 q 719 331 719 244 l 719 350 l 544 350 l 544 486 l 868 486 l 868 360 q 766 80 868 176 q 514 -17 664 -17 m 444 -336 q 482 -296 461 -322 q 514 -239 503 -269 q 450 -215 476 -239 q 424 -154 424 -190 q 450 -87 424 -112 q 513 -62 476 -62 q 578 -88 551 -62 q 606 -162 606 -114 q 576 -271 606 -219 q 492 -367 547 -322 l 444 -336 z "},"ģ":{"ha":781,"x_min":69,"x_max":676,"o":"m 342 -278 l 269 -167 q 478 -114 425 -157 q 532 -6 532 -71 l 532 57 q 459 1 501 19 q 361 -17 417 -17 q 154 76 239 -17 q 69 356 69 169 q 151 628 69 531 q 364 726 233 726 q 467 705 426 726 q 532 660 508 683 l 532 710 l 676 710 l 676 46 q 638 -135 676 -67 q 526 -236 600 -203 q 342 -278 451 -269 m 388 119 q 469 142 431 119 q 532 203 508 164 l 532 510 q 470 567 510 544 q 388 590 431 590 q 214 356 214 590 q 260 183 214 247 q 388 119 307 119 m 404 821 q 338 847 365 821 q 311 921 311 872 q 340 1029 311 978 q 425 1125 369 1081 l 472 1094 q 435 1054 456 1081 q 403 997 414 1028 q 467 973 440 997 q 493 913 493 949 q 467 846 493 871 q 404 821 440 821 z "},"Ĥ":{"ha":982,"x_min":125,"x_max":857,"o":"m 713 0 l 713 433 l 269 433 l 269 0 l 125 0 l 125 972 l 269 972 l 269 569 l 713 569 l 713 972 l 857 972 l 857 0 l 713 0 m 622 1063 l 492 1172 l 361 1063 l 222 1063 l 419 1279 l 565 1279 l 761 1063 l 622 1063 z "},"ĥ":{"ha":785,"x_min":104,"x_max":688,"o":"m 104 0 l 104 936 l 249 1003 l 249 642 q 432 726 315 726 q 564 697 506 726 q 655 601 622 668 q 688 424 688 535 l 688 0 l 543 0 l 543 424 q 502 552 543 514 q 401 590 461 590 q 292 554 336 590 q 249 426 249 518 l 249 0 l 104 0 m 532 1063 l 401 1172 l 271 1063 l 132 1063 l 329 1279 l 475 1279 l 671 1063 l 532 1063 z "},"Ħ":{"ha":982,"x_min":0,"x_max":982,"o":"m 713 0 l 713 433 l 269 433 l 269 0 l 125 0 l 125 714 l 0 714 l 0 850 l 125 850 l 125 972 l 269 972 l 269 850 l 713 850 l 713 972 l 857 972 l 857 850 l 982 850 l 982 714 l 857 714 l 857 0 l 713 0 m 713 569 l 713 714 l 269 714 l 269 569 l 713 569 z "},"ħ":{"ha":785,"x_min":21,"x_max":688,"o":"m 104 0 l 104 753 l 21 753 l 21 875 l 104 875 l 104 936 l 249 1003 l 249 875 l 446 875 l 446 753 l 249 753 l 249 600 q 432 685 315 685 q 564 656 506 685 q 655 560 622 626 q 688 382 688 493 l 688 0 l 543 0 l 543 382 q 502 510 543 472 q 401 549 461 549 q 292 513 336 549 q 249 385 249 476 l 249 0 l 104 0 z "},"Ĩ":{"ha":408,"x_min":-51,"x_max":460,"o":"m 132 0 l 132 972 l 276 972 l 276 0 l 132 0 m 314 1078 q 189 1111 240 1078 q 85 1144 138 1144 q 40 1130 58 1144 q 19 1083 21 1115 l -51 1083 q -18 1215 -51 1167 q 94 1264 15 1264 q 219 1231 168 1264 q 324 1197 271 1197 q 369 1212 350 1197 q 389 1258 388 1226 l 460 1258 q 426 1126 460 1175 q 314 1078 393 1078 z "},"ĩ":{"ha":356,"x_min":-78,"x_max":433,"o":"m 106 0 l 106 710 l 250 710 l 250 0 l 106 0 m 288 815 q 163 849 214 815 q 58 882 111 882 q 13 867 32 882 q -7 821 -6 853 l -78 821 q -44 953 -78 904 q 68 1001 -11 1001 q 193 968 142 1001 q 297 935 244 935 q 342 949 324 935 q 363 996 361 964 l 433 996 q 400 864 433 913 q 288 815 367 815 z "},"Ī":{"ha":408,"x_min":-25,"x_max":433,"o":"m 132 0 l 132 972 l 276 972 l 276 0 l 132 0 m -25 1092 l -25 1211 l 433 1211 l 433 1092 l -25 1092 z "},"ī":{"ha":356,"x_min":-51,"x_max":407,"o":"m 106 0 l 106 710 l 250 710 l 250 0 l 106 0 m -51 829 l -51 949 l 407 949 l 407 829 l -51 829 z "},"Ĭ":{"ha":408,"x_min":-53,"x_max":463,"o":"m 132 0 l 132 972 l 276 972 l 276 0 l 132 0 m 204 1063 q 9 1131 71 1063 q -53 1293 -53 1200 l 69 1293 q 105 1213 69 1246 q 204 1179 140 1179 q 304 1213 268 1179 q 340 1293 340 1246 l 463 1293 q 400 1131 463 1199 q 204 1063 338 1063 z "},"ĭ":{"ha":356,"x_min":-79,"x_max":436,"o":"m 106 0 l 106 710 l 250 710 l 250 0 l 106 0 m 178 800 q -17 869 44 800 q -79 1031 -79 938 l 43 1031 q 78 950 43 983 q 178 917 114 917 q 278 950 242 917 q 314 1031 314 983 l 436 1031 q 374 868 436 936 q 178 800 311 800 z "},"Į":{"ha":408,"x_min":-25,"x_max":292,"o":"m 143 -332 q 22 -294 68 -332 q -25 -189 -25 -257 q 17 -78 -25 -126 q 132 0 58 -29 l 132 972 l 276 972 l 276 0 q 136 -78 178 -28 q 94 -176 94 -128 q 115 -230 94 -211 q 164 -249 135 -249 q 198 -241 183 -249 q 221 -222 213 -233 l 292 -274 q 235 -315 271 -297 q 143 -332 199 -332 z "},"į":{"ha":356,"x_min":-49,"x_max":268,"o":"m 119 -332 q -2 -294 44 -332 q -49 -189 -49 -257 q -8 -79 -49 -128 q 106 0 33 -31 l 106 710 l 250 710 l 250 0 q 112 -78 153 -28 q 71 -176 71 -128 q 91 -230 71 -211 q 140 -249 111 -249 q 174 -241 160 -249 q 197 -222 189 -233 l 268 -274 q 211 -315 247 -297 q 119 -332 175 -332 m 178 821 q 116 847 142 821 q 90 908 90 872 q 116 970 90 944 q 178 996 142 996 q 240 970 214 996 q 265 908 265 944 q 240 847 265 872 q 178 821 214 821 z "},"İ":{"ha":408,"x_min":117,"x_max":292,"o":"m 132 0 l 132 972 l 276 972 l 276 0 l 132 0 m 204 1083 q 142 1109 168 1083 q 117 1171 117 1135 q 142 1233 117 1207 q 204 1258 168 1258 q 266 1233 240 1258 q 292 1171 292 1207 q 266 1109 292 1135 q 204 1083 240 1083 z "},"Ǐ":{"ha":408,"x_min":-65,"x_max":474,"o":"m 132 0 l 132 972 l 276 972 l 276 0 l 132 0 m 276 1063 l 131 1063 l -65 1279 l 74 1279 l 204 1169 l 335 1279 l 474 1279 l 276 1063 z "},"ǐ":{"ha":356,"x_min":-92,"x_max":447,"o":"m 106 0 l 106 710 l 250 710 l 250 0 l 106 0 m 250 800 l 104 800 l -92 1017 l 47 1017 l 178 907 l 308 1017 l 447 1017 l 250 800 z "},"Ĳ":{"ha":1193,"x_min":132,"x_max":1075,"o":"m 132 0 l 132 972 l 276 972 l 276 0 l 132 0 m 751 -17 q 566 30 647 -17 q 443 167 485 76 l 568 228 q 641 148 594 174 q 751 122 688 122 q 875 164 819 122 q 931 346 931 206 l 931 972 l 1075 972 l 1075 326 q 1025 116 1075 190 q 900 13 975 42 q 751 -17 825 -17 z "},"ĳ":{"ha":711,"x_min":90,"x_max":621,"o":"m 106 0 l 106 710 l 250 710 l 250 0 l 106 0 m 178 821 q 116 847 142 821 q 90 908 90 872 q 116 970 90 944 q 178 996 142 996 q 240 970 214 996 q 265 908 265 944 q 240 847 265 872 q 178 821 214 821 m 338 -297 l 268 -190 q 419 -129 378 -167 q 461 -15 461 -92 l 461 710 l 606 710 l 606 33 q 593 -88 606 -29 q 539 -192 581 -147 q 438 -265 490 -243 q 338 -297 385 -286 m 533 821 q 472 847 497 821 q 446 908 446 872 q 472 970 446 944 q 533 996 497 996 q 595 970 569 996 q 621 908 621 944 q 595 847 621 872 q 533 821 569 821 z "},"ȷ":{"ha":356,"x_min":-87,"x_max":250,"o":"m -18 -297 l -87 -190 q 64 -129 22 -167 q 106 -15 106 -92 l 106 710 l 250 710 l 250 33 q 238 -88 250 -29 q 183 -192 225 -147 q 82 -265 135 -243 q -18 -297 29 -286 z "},"Ĵ":{"ha":785,"x_min":35,"x_max":865,"o":"m 343 -17 q 158 30 239 -17 q 35 167 76 76 l 160 228 q 233 148 186 174 q 343 122 279 122 q 467 164 411 122 q 522 346 522 206 l 522 972 l 667 972 l 667 326 q 617 116 667 190 q 492 13 567 42 q 343 -17 417 -17 m 726 1063 l 596 1172 l 465 1063 l 326 1063 l 524 1279 l 669 1279 l 865 1063 l 726 1063 z "},"ĵ":{"ha":356,"x_min":-92,"x_max":447,"o":"m -18 -297 l -87 -190 q 64 -129 22 -167 q 106 -15 106 -92 l 106 710 l 250 710 l 250 33 q 238 -88 250 -29 q 183 -192 225 -147 q 82 -265 135 -243 q -18 -297 29 -286 m 308 800 l 178 910 l 47 800 l -92 800 l 106 1017 l 251 1017 l 447 800 l 308 800 z "},"Ķ":{"ha":940,"x_min":125,"x_max":885,"o":"m 715 0 l 442 508 l 269 300 l 269 0 l 125 0 l 125 972 l 269 972 l 269 501 l 644 972 l 811 972 l 539 631 l 885 0 l 715 0 m 403 -336 q 440 -296 419 -322 q 472 -239 461 -269 q 408 -215 435 -239 q 382 -154 382 -190 q 408 -87 382 -112 q 471 -62 435 -62 q 537 -88 510 -62 q 564 -162 564 -114 q 535 -271 564 -219 q 450 -367 506 -322 l 403 -336 z "},"ķ":{"ha":764,"x_min":104,"x_max":708,"o":"m 708 0 l 550 0 l 340 408 l 249 317 l 249 0 l 104 0 l 104 935 l 249 1003 l 249 490 l 458 710 l 636 710 l 442 513 l 708 0 m 314 -336 q 351 -296 331 -322 q 383 -239 372 -269 q 319 -215 346 -239 q 293 -154 293 -190 q 319 -87 293 -112 q 382 -62 346 -62 q 448 -88 421 -62 q 475 -162 475 -114 q 446 -271 475 -219 q 361 -367 417 -322 l 314 -336 z "},"ĸ":{"ha":757,"x_min":104,"x_max":701,"o":"m 542 0 l 365 329 l 249 188 l 249 0 l 104 0 l 104 710 l 249 710 l 249 381 l 511 710 l 675 710 l 460 444 l 701 0 l 542 0 z "},"Ĺ":{"ha":779,"x_min":54,"x_max":744,"o":"m 125 0 l 125 972 l 269 972 l 269 139 l 744 139 l 744 0 l 125 0 m 54 1063 l 251 1279 l 449 1279 l 201 1063 l 54 1063 z "},"ĺ":{"ha":367,"x_min":10,"x_max":404,"o":"m 111 0 l 111 935 l 256 1003 l 256 0 l 111 0 m 10 1050 l 207 1267 l 404 1267 l 157 1050 l 10 1050 z "},"Ļ":{"ha":779,"x_min":125,"x_max":744,"o":"m 125 0 l 125 972 l 269 972 l 269 139 l 744 139 l 744 0 l 125 0 m 369 -336 q 407 -296 386 -322 q 439 -239 428 -269 q 375 -215 401 -239 q 349 -154 349 -190 q 375 -87 349 -112 q 438 -62 401 -62 q 503 -88 476 -62 q 531 -162 531 -114 q 501 -271 531 -219 q 417 -367 472 -322 l 369 -336 z "},"ļ":{"ha":367,"x_min":94,"x_max":276,"o":"m 111 0 l 111 935 l 256 1003 l 256 0 l 111 0 m 115 -336 q 153 -296 132 -322 q 185 -239 174 -269 q 121 -215 147 -239 q 94 -154 94 -190 q 121 -87 94 -112 q 183 -62 147 -62 q 249 -88 222 -62 q 276 -162 276 -114 q 247 -271 276 -219 q 163 -367 218 -322 l 115 -336 z "},"Ľ":{"ha":779,"x_min":-71,"x_max":744,"o":"m 125 0 l 125 972 l 269 972 l 269 139 l 744 139 l 744 0 l 125 0 m 271 1063 l 125 1063 l -71 1279 l 68 1279 l 199 1169 l 329 1279 l 468 1279 l 271 1063 z "},"ľ":{"ha":582,"x_min":111,"x_max":547,"o":"m 111 0 l 111 935 l 256 1003 l 256 0 l 111 0 m 547 989 l 547 978 q 513 795 547 875 q 411 649 479 715 l 367 682 q 396 810 385 721 q 407 989 407 900 l 547 989 z "},"Ŀ":{"ha":779,"x_min":125,"x_max":744,"o":"m 125 0 l 125 972 l 269 972 l 269 139 l 744 139 l 744 0 l 125 0 m 601 383 q 527 413 557 383 q 497 485 497 443 q 527 557 497 526 q 601 588 557 588 q 676 557 644 588 q 707 485 707 526 q 676 413 707 443 q 601 383 644 383 z "},"ŀ":{"ha":532,"x_min":111,"x_max":546,"o":"m 111 0 l 111 935 l 256 1003 l 256 0 l 111 0 m 440 338 q 366 367 396 338 q 336 439 336 397 q 366 511 336 481 q 440 542 396 542 q 515 511 483 542 q 546 439 546 481 q 515 367 546 397 q 440 338 483 338 z "},"Ń":{"ha":986,"x_min":125,"x_max":861,"o":"m 861 0 l 725 0 l 304 660 q 285 694 294 676 q 265 732 275 713 q 268 697 267 715 q 269 660 269 678 l 269 0 l 125 0 l 125 972 l 271 972 l 681 324 q 701 288 692 306 q 721 249 711 269 q 718 287 719 269 q 717 322 717 304 l 717 972 l 861 972 l 861 0 m 361 1064 l 558 1281 l 756 1281 l 508 1064 l 361 1064 z "},"ń":{"ha":785,"x_min":104,"x_max":688,"o":"m 543 0 l 543 424 q 502 552 543 514 q 401 590 461 590 q 292 554 336 590 q 249 426 249 518 l 249 0 l 104 0 l 104 710 l 249 710 l 249 642 q 432 726 315 726 q 564 697 506 726 q 655 601 622 668 q 688 424 688 535 l 688 0 l 543 0 m 228 800 l 425 1017 l 622 1017 l 375 800 l 228 800 z "},"Ņ":{"ha":986,"x_min":125,"x_max":861,"o":"m 861 0 l 725 0 l 304 660 q 285 694 294 676 q 265 732 275 713 q 268 697 267 715 q 269 660 269 678 l 269 0 l 125 0 l 125 972 l 271 972 l 681 324 q 701 288 692 306 q 721 249 711 269 q 718 287 719 269 q 717 322 717 304 l 717 972 l 861 972 l 861 0 m 425 -336 q 463 -296 442 -322 q 494 -239 483 -269 q 431 -215 457 -239 q 404 -154 404 -190 q 431 -87 404 -112 q 493 -62 457 -62 q 559 -88 532 -62 q 586 -162 586 -114 q 557 -271 586 -219 q 472 -367 528 -322 l 425 -336 z "},"ņ":{"ha":785,"x_min":104,"x_max":688,"o":"m 543 0 l 543 424 q 502 552 543 514 q 401 590 461 590 q 292 554 336 590 q 249 426 249 518 l 249 0 l 104 0 l 104 710 l 249 710 l 249 642 q 432 726 315 726 q 564 697 506 726 q 655 601 622 668 q 688 424 688 535 l 688 0 l 543 0 m 325 -336 q 363 -296 342 -322 q 394 -239 383 -269 q 331 -215 357 -239 q 304 -154 304 -190 q 331 -87 304 -112 q 393 -62 357 -62 q 459 -88 432 -62 q 486 -162 486 -114 q 457 -271 486 -219 q 372 -367 428 -322 l 325 -336 z "},"Ň":{"ha":986,"x_min":125,"x_max":861,"o":"m 861 0 l 725 0 l 304 660 q 285 694 294 676 q 265 732 275 713 q 268 697 267 715 q 269 660 269 678 l 269 0 l 125 0 l 125 972 l 271 972 l 681 324 q 701 288 692 306 q 721 249 711 269 q 718 287 719 269 q 717 322 717 304 l 717 972 l 861 972 l 861 0 m 579 1063 l 433 1063 l 238 1279 l 376 1279 l 507 1169 l 638 1279 l 776 1279 l 579 1063 z "},"ň":{"ha":785,"x_min":104,"x_max":688,"o":"m 543 0 l 543 424 q 502 552 543 514 q 401 590 461 590 q 292 554 336 590 q 249 426 249 518 l 249 0 l 104 0 l 104 710 l 249 710 l 249 642 q 432 726 315 726 q 564 697 506 726 q 655 601 622 668 q 688 424 688 535 l 688 0 l 543 0 m 474 800 l 328 800 l 132 1017 l 271 1017 l 401 907 l 532 1017 l 671 1017 l 474 800 z "},"ŉ":{"ha":1046,"x_min":49,"x_max":949,"o":"m 804 0 l 804 424 q 763 552 804 514 q 663 590 722 590 q 553 554 597 590 q 510 426 510 518 l 510 0 l 365 0 l 365 710 l 510 710 l 510 642 q 693 726 576 726 q 825 697 767 726 q 916 601 883 668 q 949 424 949 535 l 949 0 l 804 0 m 57 642 q 106 699 75 658 q 142 786 136 740 q 77 815 106 789 q 49 883 49 842 q 80 960 49 931 q 151 989 111 989 q 228 958 194 989 q 261 863 261 926 q 217 714 261 782 q 111 607 172 646 l 57 642 z "},"Ŋ":{"ha":986,"x_min":125,"x_max":861,"o":"m 585 -339 l 515 -232 q 667 -171 625 -208 q 708 -57 708 -133 l 708 26 l 303 663 q 283 696 292 679 q 265 732 275 713 q 268 697 267 715 q 269 660 269 678 l 269 0 l 125 0 l 125 972 l 271 972 l 681 324 q 701 288 692 306 q 721 249 711 269 q 718 287 719 269 q 717 322 717 304 l 717 972 l 861 972 l 861 -8 q 847 -130 861 -71 q 790 -233 832 -189 q 687 -306 742 -285 q 585 -339 632 -328 z "},"ŋ":{"ha":785,"x_min":104,"x_max":688,"o":"m 419 -339 l 350 -232 q 501 -171 460 -208 q 543 -57 543 -133 l 543 424 q 502 552 543 514 q 401 590 461 590 q 292 554 336 590 q 249 426 249 518 l 249 0 l 104 0 l 104 710 l 249 710 l 249 642 q 432 726 315 726 q 564 697 506 726 q 655 601 622 668 q 688 424 688 535 l 688 -8 q 675 -130 688 -71 q 621 -233 663 -189 q 519 -306 572 -285 q 419 -339 467 -328 z "},"Ō":{"ha":1028,"x_min":90,"x_max":938,"o":"m 514 -17 q 265 59 358 -17 q 131 251 172 135 q 90 486 90 367 q 131 722 90 606 q 265 913 172 838 q 514 989 358 989 q 763 913 669 989 q 897 722 856 838 q 938 486 938 606 q 897 251 938 367 q 763 59 856 135 q 514 -17 669 -17 m 514 122 q 675 181 615 122 q 761 323 735 239 q 788 486 788 407 q 761 655 788 571 q 675 794 735 739 q 514 850 615 850 q 353 792 413 850 q 267 649 293 733 q 240 486 240 565 q 267 317 240 401 q 353 178 293 233 q 514 122 413 122 m 285 1092 l 285 1211 l 743 1211 l 743 1092 l 285 1092 z "},"ō":{"ha":788,"x_min":69,"x_max":718,"o":"m 393 -17 q 157 81 244 -17 q 69 354 69 179 q 157 628 69 529 q 393 726 244 726 q 630 628 542 726 q 718 354 718 529 q 630 81 718 179 q 393 -17 542 -17 m 393 119 q 525 182 476 119 q 574 354 574 244 q 525 527 574 464 q 393 590 476 590 q 263 527 311 590 q 214 354 214 464 q 263 182 214 244 q 393 119 311 119 m 165 829 l 165 949 l 624 949 l 624 829 l 165 829 z "},"Ŏ":{"ha":1028,"x_min":90,"x_max":938,"o":"m 514 -17 q 265 59 358 -17 q 131 251 172 135 q 90 486 90 367 q 131 722 90 606 q 265 913 172 838 q 514 989 358 989 q 763 913 669 989 q 897 722 856 838 q 938 486 938 606 q 897 251 938 367 q 763 59 856 135 q 514 -17 669 -17 m 514 122 q 675 181 615 122 q 761 323 735 239 q 788 486 788 407 q 761 655 788 571 q 675 794 735 739 q 514 850 615 850 q 353 792 413 850 q 267 649 293 733 q 240 486 240 565 q 267 317 240 401 q 353 178 293 233 q 514 122 413 122 m 514 1063 q 319 1131 381 1063 q 257 1293 257 1200 l 379 1293 q 415 1213 379 1246 q 514 1179 450 1179 q 614 1213 578 1179 q 650 1293 650 1246 l 772 1293 q 710 1131 772 1199 q 514 1063 647 1063 z "},"ŏ":{"ha":788,"x_min":69,"x_max":718,"o":"m 393 -17 q 157 81 244 -17 q 69 354 69 179 q 157 628 69 529 q 393 726 244 726 q 630 628 542 726 q 718 354 718 529 q 630 81 718 179 q 393 -17 542 -17 m 393 119 q 525 182 476 119 q 574 354 574 244 q 525 527 574 464 q 393 590 476 590 q 263 527 311 590 q 214 354 214 464 q 263 182 214 244 q 393 119 311 119 m 394 800 q 199 869 261 800 q 138 1031 138 938 l 260 1031 q 295 950 260 983 q 394 917 331 917 q 494 950 458 917 q 531 1031 531 983 l 653 1031 q 590 868 653 936 q 394 800 528 800 z "},"Ő":{"ha":1028,"x_min":90,"x_max":938,"o":"m 514 -17 q 265 59 358 -17 q 131 251 172 135 q 90 486 90 367 q 131 722 90 606 q 265 913 172 838 q 514 989 358 989 q 763 913 669 989 q 897 722 856 838 q 938 486 938 606 q 897 251 938 367 q 763 59 856 135 q 514 -17 669 -17 m 514 122 q 675 181 615 122 q 761 323 735 239 q 788 486 788 407 q 761 655 788 571 q 675 794 735 739 q 514 850 615 850 q 353 792 413 850 q 267 649 293 733 q 240 486 240 565 q 267 317 240 401 q 353 178 293 233 q 514 122 413 122 m 394 1063 l 247 1063 l 444 1279 l 642 1279 l 394 1063 m 686 1063 l 539 1063 l 736 1279 l 933 1279 l 686 1063 z "},"ő":{"ha":788,"x_min":69,"x_max":811,"o":"m 393 -17 q 157 81 244 -17 q 69 354 69 179 q 157 628 69 529 q 393 726 244 726 q 630 628 542 726 q 718 354 718 529 q 630 81 718 179 q 393 -17 542 -17 m 393 119 q 525 182 476 119 q 574 354 574 244 q 525 527 574 464 q 393 590 476 590 q 263 527 311 590 q 214 354 214 464 q 263 182 214 244 q 393 119 311 119 m 272 800 l 125 800 l 322 1017 l 519 1017 l 272 800 m 564 800 l 417 800 l 614 1017 l 811 1017 l 564 800 z "},"Ǒ":{"ha":1028,"x_min":90,"x_max":938,"o":"m 514 -17 q 265 59 358 -17 q 131 251 172 135 q 90 486 90 367 q 131 722 90 606 q 265 913 172 838 q 514 989 358 989 q 763 913 669 989 q 897 722 856 838 q 938 486 938 606 q 897 251 938 367 q 763 59 856 135 q 514 -17 669 -17 m 514 122 q 675 181 615 122 q 761 323 735 239 q 788 486 788 407 q 761 655 788 571 q 675 794 735 739 q 514 850 615 850 q 353 792 413 850 q 267 649 293 733 q 240 486 240 565 q 267 317 240 401 q 353 178 293 233 q 514 122 413 122 m 586 1063 l 440 1063 l 244 1279 l 383 1279 l 514 1169 l 644 1279 l 783 1279 l 586 1063 z "},"ǒ":{"ha":788,"x_min":69,"x_max":718,"o":"m 393 -17 q 157 81 244 -17 q 69 354 69 179 q 157 628 69 529 q 393 726 244 726 q 630 628 542 726 q 718 354 718 529 q 630 81 718 179 q 393 -17 542 -17 m 393 119 q 525 182 476 119 q 574 354 574 244 q 525 527 574 464 q 393 590 476 590 q 263 527 311 590 q 214 354 214 464 q 263 182 214 244 q 393 119 311 119 m 467 800 l 321 800 l 125 1017 l 264 1017 l 394 907 l 525 1017 l 664 1017 l 467 800 z "},"Ǿ":{"ha":1014,"x_min":83,"x_max":931,"o":"m 90 -17 l 189 128 q 108 295 133 200 q 83 486 83 390 q 124 722 83 606 q 258 913 165 838 q 507 989 350 989 q 633 972 576 989 q 735 926 690 956 l 778 989 l 924 989 l 824 843 q 906 675 881 769 q 931 486 931 581 q 890 251 931 367 q 756 59 849 135 q 507 -17 664 -17 q 381 0 438 -17 q 279 46 324 17 l 236 -17 l 90 -17 m 507 122 q 668 181 608 122 q 754 323 728 239 q 781 486 781 407 q 769 601 781 542 q 732 708 758 660 l 361 167 q 507 122 424 122 m 282 263 l 653 806 q 507 850 590 850 q 346 792 406 850 q 260 649 286 733 q 233 486 233 565 q 244 371 233 429 q 282 263 256 313 m 332 1063 l 529 1279 l 726 1279 l 479 1063 l 332 1063 z "},"ǿ":{"ha":788,"x_min":69,"x_max":718,"o":"m 200 -17 l 69 -17 l 586 726 l 718 726 l 200 -17 m 393 -17 q 157 81 244 -17 q 69 354 69 179 q 157 628 69 529 q 393 726 244 726 q 630 628 542 726 q 718 354 718 529 q 630 81 718 179 q 393 -17 542 -17 m 393 119 q 525 182 476 119 q 574 354 574 244 q 525 527 574 464 q 393 590 476 590 q 263 527 311 590 q 214 354 214 464 q 263 182 214 244 q 393 119 311 119 m 219 800 l 417 1017 l 614 1017 l 367 800 l 219 800 z "},"Ŕ":{"ha":939,"x_min":125,"x_max":849,"o":"m 125 0 l 125 972 l 535 972 q 781 883 714 972 q 849 685 849 794 q 799 519 849 600 q 638 410 749 439 l 838 0 l 672 0 l 481 397 l 269 397 l 269 0 l 125 0 m 269 536 l 538 536 q 663 582 628 536 q 699 685 699 628 q 666 785 699 736 q 538 833 633 833 l 269 833 l 269 536 m 282 1063 l 479 1279 l 676 1279 l 429 1063 l 282 1063 z "},"ŕ":{"ha":551,"x_min":104,"x_max":553,"o":"m 104 0 l 104 710 l 249 710 l 249 624 q 314 702 274 678 q 407 726 354 726 q 472 715 442 726 q 526 683 503 704 l 506 550 q 459 574 486 564 q 393 585 432 585 q 297 547 344 585 q 249 399 249 508 l 249 0 l 104 0 m 158 800 l 356 1017 l 553 1017 l 306 800 l 158 800 z "},"Ŗ":{"ha":939,"x_min":125,"x_max":849,"o":"m 125 0 l 125 972 l 535 972 q 781 883 714 972 q 849 685 849 794 q 799 519 849 600 q 638 410 749 439 l 838 0 l 672 0 l 481 397 l 269 397 l 269 0 l 125 0 m 269 536 l 538 536 q 663 582 628 536 q 699 685 699 628 q 666 785 699 736 q 538 833 633 833 l 269 833 l 269 536 m 401 -336 q 439 -296 418 -322 q 471 -239 460 -269 q 407 -215 433 -239 q 381 -154 381 -190 q 407 -87 381 -112 q 469 -62 433 -62 q 535 -88 508 -62 q 563 -162 563 -114 q 533 -271 563 -219 q 449 -367 504 -322 l 401 -336 z "},"ŗ":{"ha":551,"x_min":86,"x_max":526,"o":"m 104 0 l 104 710 l 249 710 l 249 624 q 314 702 274 678 q 407 726 354 726 q 472 715 442 726 q 526 683 503 704 l 506 550 q 459 574 486 564 q 393 585 432 585 q 297 547 344 585 q 249 399 249 508 l 249 0 l 104 0 m 107 -364 q 144 -324 124 -350 q 176 -267 165 -297 q 113 -242 139 -267 q 86 -182 86 -218 q 113 -115 86 -140 q 175 -90 139 -90 q 241 -116 214 -90 q 268 -190 268 -142 q 239 -299 268 -247 q 154 -394 210 -350 l 107 -364 z "},"Ř":{"ha":939,"x_min":125,"x_max":849,"o":"m 125 0 l 125 972 l 535 972 q 781 883 714 972 q 849 685 849 794 q 799 519 849 600 q 638 410 749 439 l 838 0 l 672 0 l 481 397 l 269 397 l 269 0 l 125 0 m 269 536 l 538 536 q 663 582 628 536 q 699 685 699 628 q 666 785 699 736 q 538 833 633 833 l 269 833 l 269 536 m 528 1063 l 382 1063 l 186 1279 l 325 1279 l 456 1169 l 586 1279 l 725 1279 l 528 1063 z "},"ř":{"ha":551,"x_min":63,"x_max":601,"o":"m 104 0 l 104 710 l 249 710 l 249 624 q 314 702 274 678 q 407 726 354 726 q 472 715 442 726 q 526 683 503 704 l 506 550 q 459 574 486 564 q 393 585 432 585 q 297 547 344 585 q 249 399 249 508 l 249 0 l 104 0 m 404 800 l 258 800 l 63 1017 l 201 1017 l 332 907 l 463 1017 l 601 1017 l 404 800 z "},"Ś":{"ha":839,"x_min":69,"x_max":756,"o":"m 424 -17 q 199 47 293 -17 q 69 219 106 111 l 206 269 q 294 163 236 204 q 429 122 351 122 q 557 160 508 122 q 606 272 606 199 q 539 388 606 351 q 386 456 472 425 q 254 511 319 481 q 146 594 189 542 q 103 735 103 646 q 183 913 103 838 q 413 989 264 989 q 612 934 536 989 q 713 796 688 879 l 579 751 q 517 822 561 793 q 401 850 472 850 q 292 819 332 850 q 253 733 253 789 q 311 644 253 674 q 449 586 369 614 q 590 526 519 561 q 708 433 661 492 q 756 274 756 375 q 660 58 756 133 q 424 -17 564 -17 m 265 1063 l 463 1279 l 660 1279 l 413 1063 l 265 1063 z "},"ś":{"ha":660,"x_min":56,"x_max":590,"o":"m 324 -17 q 167 15 240 -17 q 56 99 93 46 l 158 186 q 221 140 181 165 q 321 114 261 114 q 410 131 375 114 q 446 190 446 147 q 402 257 446 233 q 299 303 358 281 q 129 392 186 340 q 72 531 72 444 q 144 676 72 625 q 319 726 217 726 q 472 694 411 726 q 568 619 533 661 l 464 536 q 410 576 444 556 q 319 596 375 596 q 247 578 274 596 q 219 531 219 561 q 260 474 219 494 q 357 431 300 453 q 485 374 433 406 q 564 298 538 342 q 590 190 590 254 q 517 36 590 89 q 324 -17 444 -17 m 160 800 l 357 1017 l 554 1017 l 307 800 l 160 800 z "},"Ŝ":{"ha":839,"x_min":69,"x_max":756,"o":"m 424 -17 q 199 47 293 -17 q 69 219 106 111 l 206 269 q 294 163 236 204 q 429 122 351 122 q 557 160 508 122 q 606 272 606 199 q 539 388 606 351 q 386 456 472 425 q 254 511 319 481 q 146 594 189 542 q 103 735 103 646 q 183 913 103 838 q 413 989 264 989 q 612 934 536 989 q 713 796 688 879 l 579 751 q 517 822 561 793 q 401 850 472 850 q 292 819 332 850 q 253 733 253 789 q 311 644 253 674 q 449 586 369 614 q 590 526 519 561 q 708 433 661 492 q 756 274 756 375 q 660 58 756 133 q 424 -17 564 -17 m 544 1063 l 414 1172 l 283 1063 l 144 1063 l 342 1279 l 488 1279 l 683 1063 l 544 1063 z "},"ŝ":{"ha":660,"x_min":50,"x_max":590,"o":"m 324 -17 q 167 15 240 -17 q 56 99 93 46 l 158 186 q 221 140 181 165 q 321 114 261 114 q 410 131 375 114 q 446 190 446 147 q 402 257 446 233 q 299 303 358 281 q 129 392 186 340 q 72 531 72 444 q 144 676 72 625 q 319 726 217 726 q 472 694 411 726 q 568 619 533 661 l 464 536 q 410 576 444 556 q 319 596 375 596 q 247 578 274 596 q 219 531 219 561 q 260 474 219 494 q 357 431 300 453 q 485 374 433 406 q 564 298 538 342 q 590 190 590 254 q 517 36 590 89 q 324 -17 444 -17 m 450 800 l 319 910 l 189 800 l 50 800 l 247 1017 l 393 1017 l 589 800 l 450 800 z "},"Ş":{"ha":839,"x_min":69,"x_max":756,"o":"m 417 -332 q 333 -317 367 -332 q 278 -279 299 -303 l 349 -228 q 403 -249 365 -249 q 453 -231 433 -249 q 472 -187 472 -214 q 451 -144 472 -161 q 397 -128 429 -128 q 342 -142 364 -128 l 314 -107 l 388 -15 q 187 56 271 -6 q 69 219 103 118 l 206 269 q 294 163 236 204 q 429 122 351 122 q 557 160 508 122 q 606 272 606 199 q 539 388 606 351 q 386 456 472 425 q 254 511 319 481 q 146 594 189 542 q 103 735 103 646 q 183 913 103 838 q 413 989 264 989 q 612 934 536 989 q 713 796 688 879 l 579 751 q 517 822 561 793 q 401 850 472 850 q 253 733 253 850 q 311 644 253 674 q 449 586 369 614 q 590 526 519 561 q 708 433 661 492 q 756 274 756 375 q 675 72 756 147 q 472 -14 594 -3 l 439 -69 q 556 -106 519 -69 q 592 -189 592 -142 q 544 -292 592 -251 q 417 -332 497 -332 z "},"ş":{"ha":660,"x_min":56,"x_max":590,"o":"m 304 -332 q 220 -317 254 -332 q 165 -279 186 -303 l 236 -228 q 290 -249 253 -249 q 341 -231 322 -249 q 360 -187 360 -214 q 338 -144 360 -161 q 285 -128 317 -128 q 229 -142 251 -128 l 201 -107 l 276 -14 q 147 24 207 -6 q 56 99 88 53 l 158 186 q 221 140 181 165 q 321 114 261 114 q 410 131 375 114 q 446 190 446 147 q 383 266 446 240 q 249 322 321 292 q 127 394 182 351 q 72 531 72 436 q 144 676 72 625 q 319 726 217 726 q 472 694 411 726 q 568 619 533 661 l 464 536 q 410 576 444 556 q 319 596 375 596 q 247 578 274 596 q 219 531 219 561 q 272 467 219 490 q 394 417 325 444 q 529 341 468 388 q 590 190 590 294 q 528 44 590 96 q 360 -15 465 -8 l 326 -69 q 444 -106 408 -69 q 479 -189 479 -142 q 432 -292 479 -251 q 304 -332 385 -332 z "},"ș":{"ha":660,"x_min":56,"x_max":590,"o":"m 324 -17 q 167 15 240 -17 q 56 99 93 46 l 158 186 q 221 140 181 165 q 321 114 261 114 q 410 131 375 114 q 446 190 446 147 q 402 257 446 233 q 299 303 358 281 q 129 392 186 340 q 72 531 72 444 q 144 676 72 625 q 319 726 217 726 q 472 694 411 726 q 568 619 533 661 l 464 536 q 410 576 444 556 q 319 596 375 596 q 247 578 274 596 q 219 531 219 561 q 260 474 219 494 q 357 431 300 453 q 485 374 433 406 q 564 298 538 342 q 590 190 590 254 q 517 36 590 89 q 324 -17 444 -17 m 260 -336 q 297 -296 276 -322 q 329 -239 318 -269 q 265 -215 292 -239 q 239 -154 239 -190 q 265 -87 239 -112 q 328 -62 292 -62 q 394 -88 367 -62 q 421 -162 421 -114 q 392 -271 421 -219 q 307 -367 363 -322 l 260 -336 z "},"Ș":{"ha":839,"x_min":69,"x_max":756,"o":"m 424 -17 q 199 47 293 -17 q 69 219 106 111 l 206 269 q 294 163 236 204 q 429 122 351 122 q 557 160 508 122 q 606 272 606 199 q 539 388 606 351 q 386 456 472 425 q 254 511 319 481 q 146 594 189 542 q 103 735 103 646 q 183 913 103 838 q 413 989 264 989 q 612 934 536 989 q 713 796 688 879 l 579 751 q 517 822 561 793 q 401 850 472 850 q 292 819 332 850 q 253 733 253 789 q 311 644 253 674 q 449 586 369 614 q 590 526 519 561 q 708 433 661 492 q 756 274 756 375 q 660 58 756 133 q 424 -17 564 -17 m 351 -336 q 389 -296 368 -322 q 421 -239 410 -269 q 357 -215 383 -239 q 331 -154 331 -190 q 357 -87 331 -112 q 419 -62 383 -62 q 485 -88 458 -62 q 513 -162 513 -114 q 483 -271 513 -219 q 399 -367 454 -322 l 351 -336 z "},"Ţ":{"ha":819,"x_min":63,"x_max":757,"o":"m 386 -332 q 302 -317 336 -332 q 247 -279 268 -303 l 318 -228 q 372 -249 335 -249 q 422 -231 403 -249 q 442 -187 442 -214 q 420 -144 442 -161 q 367 -128 399 -128 q 311 -142 333 -128 l 283 -107 l 369 0 l 338 0 l 338 833 l 63 833 l 63 972 l 757 972 l 757 833 l 482 833 l 482 0 l 451 0 l 408 -69 q 525 -106 489 -69 q 561 -189 561 -142 q 514 -292 561 -251 q 386 -332 467 -332 z "},"ţ":{"ha":526,"x_min":42,"x_max":471,"o":"m 271 -332 q 187 -317 221 -332 q 132 -279 153 -303 l 203 -228 q 257 -249 219 -249 q 308 -231 289 -249 q 326 -187 326 -214 q 305 -144 326 -161 q 251 -128 283 -128 q 196 -142 218 -128 l 168 -107 l 247 -7 q 174 52 196 8 q 151 160 151 96 l 151 585 l 42 585 l 42 710 l 151 710 l 151 933 l 296 1003 l 296 710 l 464 710 l 464 585 l 296 585 l 296 197 q 310 139 296 161 q 365 117 324 117 q 418 125 392 117 q 471 150 444 133 l 453 15 q 401 -4 429 4 q 343 -15 374 -12 q 325 -17 331 -17 l 293 -69 q 410 -106 375 -69 q 446 -189 446 -142 q 399 -292 446 -251 q 271 -332 351 -332 z "},"Ț":{"ha":819,"x_min":63,"x_max":757,"o":"m 482 833 l 482 0 l 338 0 l 338 833 l 63 833 l 63 972 l 757 972 l 757 833 l 482 833 m 342 -336 q 379 -296 358 -322 q 411 -239 400 -269 q 347 -215 374 -239 q 321 -154 321 -190 q 347 -87 321 -112 q 410 -62 374 -62 q 476 -88 449 -62 q 503 -162 503 -114 q 474 -271 503 -219 q 389 -367 444 -322 l 342 -336 z "},"ț":{"ha":526,"x_min":42,"x_max":471,"o":"m 310 -17 q 188 31 225 -17 q 151 160 151 79 l 151 585 l 42 585 l 42 710 l 151 710 l 151 933 l 296 1003 l 296 710 l 464 710 l 464 585 l 296 585 l 296 197 q 310 139 296 161 q 365 117 324 117 q 418 125 392 117 q 471 150 444 133 l 453 15 q 388 -8 424 0 q 310 -17 353 -17 m 233 -336 q 271 -296 250 -322 q 303 -239 292 -269 q 239 -215 265 -239 q 213 -154 213 -190 q 239 -87 213 -112 q 301 -62 265 -62 q 367 -88 340 -62 q 394 -162 394 -114 q 365 -271 394 -219 q 281 -367 336 -322 l 233 -336 z "},"Ť":{"ha":819,"x_min":63,"x_max":757,"o":"m 482 833 l 482 0 l 338 0 l 338 833 l 63 833 l 63 972 l 757 972 l 757 833 l 482 833 m 482 1063 l 336 1063 l 140 1279 l 279 1279 l 410 1169 l 540 1279 l 679 1279 l 482 1063 z "},"ť":{"ha":617,"x_min":42,"x_max":582,"o":"m 310 -17 q 188 31 225 -17 q 151 160 151 79 l 151 585 l 42 585 l 42 710 l 151 710 l 151 933 l 296 1003 l 296 710 l 464 710 l 464 585 l 296 585 l 296 197 q 310 139 296 161 q 365 117 324 117 q 418 125 392 117 q 471 150 444 133 l 453 15 q 388 -8 424 0 q 310 -17 353 -17 m 582 1167 l 582 1156 q 548 973 582 1053 q 446 826 514 893 l 401 860 q 431 988 419 899 q 442 1167 442 1078 l 582 1167 z "},"Ŧ":{"ha":806,"x_min":63,"x_max":743,"o":"m 743 833 l 475 833 l 475 510 l 642 510 l 642 374 l 475 374 l 475 0 l 331 0 l 331 374 l 163 374 l 163 510 l 331 510 l 331 833 l 63 833 l 63 972 l 743 972 l 743 833 z "},"ŧ":{"ha":540,"x_min":49,"x_max":478,"o":"m 317 -17 q 195 31 232 -17 q 158 160 158 79 l 158 299 l 49 299 l 49 424 l 158 424 l 158 585 l 49 585 l 49 710 l 158 710 l 158 933 l 303 1003 l 303 710 l 471 710 l 471 585 l 303 585 l 303 424 l 471 424 l 471 299 l 303 299 l 303 197 q 317 139 303 161 q 372 117 331 117 q 424 125 399 117 q 478 150 450 133 l 460 15 q 395 -8 431 0 q 317 -17 360 -17 z "},"Ũ":{"ha":968,"x_min":118,"x_max":850,"o":"m 483 -17 q 300 19 383 -17 q 167 140 217 56 q 118 368 118 224 l 118 972 l 263 972 l 263 368 q 326 172 263 222 q 483 122 389 122 q 642 172 578 122 q 706 368 706 222 l 706 972 l 850 972 l 850 368 q 801 141 850 225 q 670 20 753 57 q 483 -17 588 -17 m 594 1078 q 469 1111 521 1078 q 365 1144 418 1144 q 320 1130 339 1144 q 300 1083 301 1115 l 229 1083 q 263 1215 229 1167 q 375 1264 296 1264 q 500 1231 449 1264 q 604 1197 551 1197 q 649 1212 631 1197 q 669 1258 668 1226 l 740 1258 q 707 1126 740 1175 q 594 1078 674 1078 z "},"ũ":{"ha":785,"x_min":97,"x_max":681,"o":"m 536 0 l 536 68 q 456 4 501 25 q 353 -17 411 -17 q 220 13 278 -17 q 130 108 163 42 q 97 286 97 175 l 97 710 l 242 710 l 242 286 q 282 158 242 197 q 383 119 322 119 q 492 156 447 119 q 536 283 536 192 l 536 710 l 681 710 l 681 0 l 536 0 m 496 815 q 371 849 422 815 q 267 882 319 882 q 222 867 240 882 q 201 821 203 853 l 131 821 q 164 953 131 904 q 276 1001 197 1001 q 401 968 350 1001 q 506 935 453 935 q 551 949 532 935 q 571 996 569 964 l 642 996 q 608 864 642 913 q 496 815 575 815 z "},"Ū":{"ha":968,"x_min":118,"x_max":850,"o":"m 483 -17 q 300 19 383 -17 q 167 140 217 56 q 118 368 118 224 l 118 972 l 263 972 l 263 368 q 326 172 263 222 q 483 122 389 122 q 642 172 578 122 q 706 368 706 222 l 706 972 l 850 972 l 850 368 q 801 141 850 225 q 670 20 753 57 q 483 -17 588 -17 m 256 1092 l 256 1211 l 714 1211 l 714 1092 l 256 1092 z "},"ū":{"ha":785,"x_min":97,"x_max":681,"o":"m 536 0 l 536 68 q 456 4 501 25 q 353 -17 411 -17 q 220 13 278 -17 q 130 108 163 42 q 97 286 97 175 l 97 710 l 242 710 l 242 286 q 282 158 242 197 q 383 119 322 119 q 492 156 447 119 q 536 283 536 192 l 536 710 l 681 710 l 681 0 l 536 0 m 157 829 l 157 949 l 615 949 l 615 829 l 157 829 z "},"Ŭ":{"ha":968,"x_min":118,"x_max":850,"o":"m 483 -17 q 300 19 383 -17 q 167 140 217 56 q 118 368 118 224 l 118 972 l 263 972 l 263 368 q 326 172 263 222 q 483 122 389 122 q 642 172 578 122 q 706 368 706 222 l 706 972 l 850 972 l 850 368 q 801 141 850 225 q 670 20 753 57 q 483 -17 588 -17 m 485 1063 q 290 1131 351 1063 q 228 1293 228 1200 l 350 1293 q 385 1213 350 1246 q 485 1179 421 1179 q 585 1213 549 1179 q 621 1293 621 1246 l 743 1293 q 681 1131 743 1199 q 485 1063 618 1063 z "},"ŭ":{"ha":785,"x_min":97,"x_max":681,"o":"m 536 0 l 536 68 q 456 4 501 25 q 353 -17 411 -17 q 220 13 278 -17 q 130 108 163 42 q 97 286 97 175 l 97 710 l 242 710 l 242 286 q 282 158 242 197 q 383 119 322 119 q 492 156 447 119 q 536 283 536 192 l 536 710 l 681 710 l 681 0 l 536 0 m 386 800 q 191 869 253 800 q 129 1031 129 938 l 251 1031 q 287 950 251 983 q 386 917 322 917 q 486 950 450 917 q 522 1031 522 983 l 644 1031 q 582 868 644 936 q 386 800 519 800 z "},"Ů":{"ha":968,"x_min":118,"x_max":850,"o":"m 483 -17 q 300 19 383 -17 q 167 140 217 56 q 118 368 118 224 l 118 972 l 263 972 l 263 368 q 326 172 263 222 q 483 122 389 122 q 642 172 578 122 q 706 368 706 222 l 706 972 l 850 972 l 850 368 q 801 141 850 225 q 670 20 753 57 q 483 -17 588 -17 m 485 1001 q 365 1051 415 1001 q 314 1171 314 1101 q 365 1290 314 1240 q 485 1339 415 1339 q 605 1290 554 1339 q 656 1171 656 1240 q 605 1051 656 1101 q 485 1001 554 1001 m 485 1106 q 529 1124 511 1106 q 547 1171 547 1143 q 529 1217 547 1199 q 485 1236 511 1236 q 440 1217 458 1236 q 422 1171 422 1199 q 440 1124 422 1143 q 485 1106 458 1106 z "},"ů":{"ha":785,"x_min":97,"x_max":681,"o":"m 536 0 l 536 68 q 456 4 501 25 q 353 -17 411 -17 q 220 13 278 -17 q 130 108 163 42 q 97 286 97 175 l 97 710 l 242 710 l 242 286 q 282 158 242 197 q 383 119 322 119 q 492 156 447 119 q 536 283 536 192 l 536 710 l 681 710 l 681 0 l 536 0 m 386 739 q 266 789 317 739 q 215 908 215 839 q 266 1027 215 978 q 386 1076 317 1076 q 506 1027 456 1076 q 557 908 557 978 q 506 789 557 839 q 386 739 456 739 m 386 843 q 431 862 413 843 q 449 908 449 881 q 431 955 449 936 q 386 974 413 974 q 342 955 360 974 q 324 908 324 936 q 342 862 324 881 q 386 843 360 843 z "},"Ű":{"ha":968,"x_min":118,"x_max":904,"o":"m 483 -17 q 300 19 383 -17 q 167 140 217 56 q 118 368 118 224 l 118 972 l 263 972 l 263 368 q 326 172 263 222 q 483 122 389 122 q 642 172 578 122 q 706 368 706 222 l 706 972 l 850 972 l 850 368 q 801 141 850 225 q 670 20 753 57 q 483 -17 588 -17 m 365 1063 l 218 1063 l 415 1279 l 613 1279 l 365 1063 m 657 1063 l 510 1063 l 707 1279 l 904 1279 l 657 1063 z "},"ű":{"ha":785,"x_min":97,"x_max":806,"o":"m 536 0 l 536 68 q 456 4 501 25 q 353 -17 411 -17 q 220 13 278 -17 q 130 108 163 42 q 97 286 97 175 l 97 710 l 242 710 l 242 286 q 282 158 242 197 q 383 119 322 119 q 492 156 447 119 q 536 283 536 192 l 536 710 l 681 710 l 681 0 l 536 0 m 267 800 l 119 800 l 317 1017 l 514 1017 l 267 800 m 558 800 l 411 800 l 608 1017 l 806 1017 l 558 800 z "},"Ų":{"ha":968,"x_min":118,"x_max":850,"o":"m 521 -332 q 399 -294 446 -332 q 353 -189 353 -257 q 385 -91 353 -135 q 472 -17 417 -47 q 467 -17 469 -17 q 463 -17 464 -17 q 289 24 367 -14 q 165 146 211 63 q 118 368 118 229 l 118 972 l 263 972 l 263 368 q 326 172 263 222 q 483 122 389 122 q 642 172 578 122 q 706 368 706 222 l 706 972 l 850 972 l 850 368 q 791 123 850 204 q 639 4 732 42 q 513 -78 553 -31 q 472 -176 472 -125 q 492 -230 472 -211 q 542 -249 513 -249 q 576 -241 561 -249 q 599 -222 590 -233 l 669 -274 q 613 -315 649 -297 q 521 -332 576 -332 z "},"ų":{"ha":785,"x_min":97,"x_max":699,"o":"m 550 -332 q 428 -294 475 -332 q 382 -189 382 -257 q 423 -79 382 -128 q 536 0 464 -31 l 536 68 q 456 4 501 25 q 353 -17 411 -17 q 220 13 278 -17 q 130 108 163 42 q 97 286 97 175 l 97 710 l 242 710 l 242 286 q 282 158 242 197 q 383 119 322 119 q 492 156 447 119 q 536 283 536 192 l 536 710 l 681 710 l 681 0 q 542 -78 583 -28 q 501 -176 501 -128 q 522 -230 501 -211 q 571 -249 542 -249 q 605 -241 590 -249 q 628 -222 619 -233 l 699 -274 q 642 -315 678 -297 q 550 -332 606 -332 z "},"Ǔ":{"ha":968,"x_min":118,"x_max":850,"o":"m 483 -17 q 300 19 383 -17 q 167 140 217 56 q 118 368 118 224 l 118 972 l 263 972 l 263 368 q 326 172 263 222 q 483 122 389 122 q 642 172 578 122 q 706 368 706 222 l 706 972 l 850 972 l 850 368 q 801 141 850 225 q 670 20 753 57 q 483 -17 588 -17 m 557 1063 l 411 1063 l 215 1279 l 354 1279 l 485 1169 l 615 1279 l 754 1279 l 557 1063 z "},"ǔ":{"ha":785,"x_min":97,"x_max":681,"o":"m 536 0 l 536 68 q 456 4 501 25 q 353 -17 411 -17 q 220 13 278 -17 q 130 108 163 42 q 97 286 97 175 l 97 710 l 242 710 l 242 286 q 282 158 242 197 q 383 119 322 119 q 492 156 447 119 q 536 283 536 192 l 536 710 l 681 710 l 681 0 l 536 0 m 458 800 l 313 800 l 117 1017 l 256 1017 l 386 907 l 517 1017 l 656 1017 l 458 800 z "},"Ŵ":{"ha":1183,"x_min":63,"x_max":1121,"o":"m 271 0 l 63 972 l 211 972 l 332 374 q 345 306 340 332 q 353 261 350 281 q 361 306 356 281 q 378 374 367 331 l 531 972 l 651 972 l 808 375 q 825 308 819 333 q 833 264 831 283 q 840 309 836 283 q 853 375 844 335 l 975 972 l 1121 972 l 911 0 l 781 0 l 613 631 q 597 693 603 669 q 589 736 592 717 q 581 693 586 717 q 565 631 575 669 l 401 0 l 271 0 m 722 1063 l 592 1172 l 461 1063 l 322 1063 l 519 1279 l 665 1279 l 861 1063 l 722 1063 z "},"ŵ":{"ha":1008,"x_min":49,"x_max":960,"o":"m 238 0 l 49 710 l 190 710 l 290 268 q 299 228 296 244 q 304 196 303 211 q 310 229 306 211 q 319 268 314 247 l 438 710 l 571 710 l 689 268 q 699 229 694 247 q 704 196 703 211 q 709 228 706 211 q 718 268 713 244 l 818 710 l 960 710 l 771 0 l 643 0 l 525 413 q 512 462 518 436 q 503 501 506 488 q 494 461 500 488 q 482 411 489 435 l 365 0 l 238 0 m 635 800 l 504 910 l 374 800 l 235 800 l 432 1017 l 578 1017 l 774 800 l 635 800 z "},"Ẁ":{"ha":1183,"x_min":63,"x_max":1121,"o":"m 271 0 l 63 972 l 211 972 l 332 374 q 345 306 340 332 q 353 261 350 281 q 361 306 356 281 q 378 374 367 331 l 531 972 l 651 972 l 808 375 q 825 308 819 333 q 833 264 831 283 q 840 309 836 283 q 853 375 844 335 l 975 972 l 1121 972 l 911 0 l 781 0 l 613 631 q 597 693 603 669 q 589 736 592 717 q 581 693 586 717 q 565 631 575 669 l 401 0 l 271 0 m 619 1063 l 372 1279 l 569 1279 l 767 1063 l 619 1063 z "},"ẁ":{"ha":1008,"x_min":49,"x_max":960,"o":"m 238 0 l 49 710 l 190 710 l 290 268 q 299 228 296 244 q 304 196 303 211 q 310 229 306 211 q 319 268 314 247 l 438 710 l 571 710 l 689 268 q 699 229 694 247 q 704 196 703 211 q 709 228 706 211 q 718 268 713 244 l 818 710 l 960 710 l 771 0 l 643 0 l 525 413 q 512 462 518 436 q 503 501 506 488 q 494 461 500 488 q 482 411 489 435 l 365 0 l 238 0 m 532 800 l 285 1017 l 482 1017 l 679 800 l 532 800 z "},"Ẃ":{"ha":1183,"x_min":63,"x_max":1121,"o":"m 271 0 l 63 972 l 211 972 l 332 374 q 345 306 340 332 q 353 261 350 281 q 361 306 356 281 q 378 374 367 331 l 531 972 l 651 972 l 808 375 q 825 308 819 333 q 833 264 831 283 q 840 309 836 283 q 853 375 844 335 l 975 972 l 1121 972 l 911 0 l 781 0 l 613 631 q 597 693 603 669 q 589 736 592 717 q 581 693 586 717 q 565 631 575 669 l 401 0 l 271 0 m 418 1063 l 615 1279 l 813 1279 l 565 1063 l 418 1063 z "},"ẃ":{"ha":1008,"x_min":49,"x_max":960,"o":"m 238 0 l 49 710 l 190 710 l 290 268 q 299 228 296 244 q 304 196 303 211 q 310 229 306 211 q 319 268 314 247 l 438 710 l 571 710 l 689 268 q 699 229 694 247 q 704 196 703 211 q 709 228 706 211 q 718 268 713 244 l 818 710 l 960 710 l 771 0 l 643 0 l 525 413 q 512 462 518 436 q 503 501 506 488 q 494 461 500 488 q 482 411 489 435 l 365 0 l 238 0 m 331 800 l 528 1017 l 725 1017 l 478 800 l 331 800 z "},"Ẅ":{"ha":1183,"x_min":63,"x_max":1121,"o":"m 271 0 l 63 972 l 211 972 l 332 374 q 345 306 340 332 q 353 261 350 281 q 361 306 356 281 q 378 374 367 331 l 531 972 l 651 972 l 808 375 q 825 308 819 333 q 833 264 831 283 q 840 309 836 283 q 853 375 844 335 l 975 972 l 1121 972 l 911 0 l 781 0 l 613 631 q 597 693 603 669 q 589 736 592 717 q 581 693 586 717 q 565 631 575 669 l 401 0 l 271 0 m 467 1083 q 405 1109 431 1083 q 379 1171 379 1135 q 405 1233 379 1207 q 467 1258 431 1258 q 528 1233 503 1258 q 554 1171 554 1207 q 528 1109 554 1135 q 467 1083 503 1083 m 717 1083 q 655 1109 681 1083 q 629 1171 629 1135 q 655 1233 629 1207 q 717 1258 681 1258 q 778 1233 753 1258 q 804 1171 804 1207 q 778 1109 804 1135 q 717 1083 753 1083 z "},"ẅ":{"ha":1008,"x_min":49,"x_max":960,"o":"m 238 0 l 49 710 l 190 710 l 290 268 q 299 228 296 244 q 304 196 303 211 q 310 229 306 211 q 319 268 314 247 l 438 710 l 571 710 l 689 268 q 699 229 694 247 q 704 196 703 211 q 709 228 706 211 q 718 268 713 244 l 818 710 l 960 710 l 771 0 l 643 0 l 525 413 q 512 462 518 436 q 503 501 506 488 q 494 461 500 488 q 482 411 489 435 l 365 0 l 238 0 m 379 821 q 317 847 343 821 q 292 908 292 872 q 317 970 292 944 q 379 996 343 996 q 441 970 415 996 q 467 908 467 944 q 441 847 467 872 q 379 821 415 821 m 629 821 q 567 847 593 821 q 542 908 542 872 q 567 970 542 944 q 629 996 593 996 q 691 970 665 996 q 717 908 717 944 q 691 847 717 872 q 629 821 665 821 z "},"Ỳ":{"ha":925,"x_min":49,"x_max":876,"o":"m 390 0 l 390 381 l 49 972 l 214 972 l 463 528 l 711 972 l 876 972 l 535 382 l 535 0 l 390 0 m 444 1063 l 197 1279 l 394 1279 l 592 1063 l 444 1063 z "},"ỳ":{"ha":747,"x_min":35,"x_max":713,"o":"m 190 -269 l 300 13 l 35 710 l 178 710 l 353 246 q 364 213 360 226 q 372 183 368 200 q 381 213 376 200 q 392 246 385 226 l 568 710 l 713 710 l 338 -269 l 190 -269 m 400 800 l 153 1017 l 350 1017 l 547 800 l 400 800 z "},"Ŷ":{"ha":925,"x_min":49,"x_max":876,"o":"m 390 0 l 390 381 l 49 972 l 214 972 l 463 528 l 711 972 l 876 972 l 535 382 l 535 0 l 390 0 m 593 1063 l 463 1172 l 332 1063 l 193 1063 l 390 1279 l 536 1279 l 732 1063 l 593 1063 z "},"ŷ":{"ha":747,"x_min":35,"x_max":713,"o":"m 190 -269 l 300 13 l 35 710 l 178 710 l 353 246 q 364 213 360 226 q 372 183 368 200 q 381 213 376 200 q 392 246 385 226 l 568 710 l 713 710 l 338 -269 l 190 -269 m 503 800 l 372 910 l 242 800 l 103 800 l 300 1017 l 446 1017 l 642 800 l 503 800 z "},"Ź":{"ha":919,"x_min":76,"x_max":829,"o":"m 76 0 l 76 117 l 638 833 l 108 833 l 108 972 l 829 972 l 829 856 l 267 139 l 829 139 l 829 0 l 76 0 m 317 1063 l 514 1279 l 711 1279 l 464 1063 l 317 1063 z "},"ź":{"ha":710,"x_min":76,"x_max":626,"o":"m 76 0 l 76 118 l 453 582 l 104 582 l 104 710 l 626 710 l 626 596 l 250 128 l 625 128 l 625 0 l 76 0 m 210 800 l 407 1017 l 604 1017 l 357 800 l 210 800 z "},"Ż":{"ha":919,"x_min":76,"x_max":829,"o":"m 76 0 l 76 117 l 638 833 l 108 833 l 108 972 l 829 972 l 829 856 l 267 139 l 829 139 l 829 0 l 76 0 m 469 1083 q 408 1109 433 1083 q 382 1171 382 1135 q 408 1233 382 1207 q 469 1258 433 1258 q 531 1233 506 1258 q 557 1171 557 1207 q 531 1109 557 1135 q 469 1083 506 1083 z "},"ż":{"ha":710,"x_min":76,"x_max":626,"o":"m 76 0 l 76 118 l 453 582 l 104 582 l 104 710 l 626 710 l 626 596 l 250 128 l 625 128 l 625 0 l 76 0 m 356 821 q 294 847 319 821 q 268 908 268 872 q 294 970 268 944 q 356 996 319 996 q 417 970 392 996 q 443 908 443 944 q 417 847 443 872 q 356 821 392 821 z "},"ſ":{"ha":422,"x_min":111,"x_max":415,"o":"m 111 0 l 111 824 q 163 956 111 922 q 274 989 214 989 q 349 980 315 989 q 415 956 383 971 l 415 836 q 360 856 383 850 q 314 861 336 861 q 267 843 278 861 q 256 797 256 825 l 256 0 l 111 0 z "},"ˉ":{"ha":556,"x_min":49,"x_max":507,"o":"m 49 829 l 49 949 l 507 949 l 507 829 l 49 829 z "},"μ":{"ha":785,"x_min":97,"x_max":681,"o":"m 536 0 l 536 68 q 458 4 501 25 q 367 -17 414 -17 q 294 -3 325 -17 q 242 40 264 11 l 242 -210 l 97 -278 l 97 710 l 242 710 l 242 286 q 281 154 242 189 q 383 119 319 119 q 492 156 447 119 q 536 283 536 192 l 536 710 l 681 710 l 681 0 l 536 0 z "},"―":{"ha":799,"x_min":-7,"x_max":806,"o":"m -7 336 l -7 461 l 806 461 l 806 336 l -7 336 z "},"‛":{"ha":310,"x_min":49,"x_max":261,"o":"m 199 607 q 93 714 138 646 q 49 863 49 782 q 81 958 49 926 q 158 989 114 989 q 230 960 199 989 q 261 883 261 931 q 233 815 261 842 q 168 786 204 789 q 204 699 175 740 q 253 642 233 658 l 199 607 z "},"′":{"ha":306,"x_min":49,"x_max":257,"o":"m 49 569 l 76 1014 l 257 1014 l 171 569 l 49 569 z "},"″":{"ha":583,"x_min":49,"x_max":535,"o":"m 326 569 l 354 1014 l 535 1014 l 449 569 l 326 569 m 49 569 l 76 1014 l 257 1014 l 171 569 l 49 569 z "},"̦":{"ha":556,"x_min":189,"x_max":371,"o":"m 210 -336 q 247 -296 226 -322 q 279 -239 268 -269 q 215 -215 242 -239 q 189 -154 189 -190 q 215 -87 189 -112 q 278 -62 242 -62 q 344 -88 317 -62 q 371 -162 371 -114 q 342 -271 371 -219 q 257 -367 313 -322 l 210 -336 z "},"̒":{"ha":556,"x_min":185,"x_max":367,"o":"m 278 821 q 212 847 239 821 q 185 921 185 872 q 214 1029 185 978 q 299 1125 243 1081 l 346 1094 q 308 1054 329 1081 q 276 997 288 1028 q 340 973 314 997 q 367 913 367 949 q 340 846 367 871 q 278 821 314 821 z "},"ⁿ":{"ha":638,"x_min":83,"x_max":561,"o":"m 435 393 l 435 735 q 404 840 435 808 q 328 871 374 871 q 244 842 278 871 q 211 738 211 813 l 211 393 l 83 393 l 83 975 l 211 975 l 211 914 q 274 969 236 949 q 367 989 313 989 q 506 933 451 989 q 561 740 561 876 l 561 393 l 435 393 z "},"₤":{"ha":818,"x_min":104,"x_max":776,"o":"m 111 0 l 111 129 q 179 192 150 150 q 218 289 208 233 l 104 289 l 104 411 l 228 411 q 219 460 225 438 q 204 503 213 482 l 104 503 l 104 625 l 156 625 q 148 664 150 643 q 146 710 146 685 q 224 903 146 817 q 468 989 303 989 q 632 964 564 989 q 764 892 700 939 l 707 754 q 619 817 672 785 q 468 850 567 850 q 336 806 376 850 q 296 710 296 761 q 301 665 296 686 q 314 625 306 644 l 589 625 l 589 503 l 363 503 q 373 460 369 482 q 378 411 376 438 l 589 411 l 589 289 l 365 289 q 329 212 353 249 q 263 139 306 175 l 776 139 l 776 0 l 111 0 z "},"℅":{"ha":1442,"x_min":69,"x_max":1372,"o":"m 326 378 q 137 458 204 378 q 69 683 69 539 q 139 908 69 828 q 325 989 208 989 q 440 966 394 989 q 512 908 486 943 q 550 835 538 872 l 429 794 q 396 847 419 824 q 332 871 372 871 q 231 820 267 871 q 194 683 194 769 q 229 547 194 597 q 325 497 264 497 q 395 519 371 497 q 432 582 419 542 l 549 546 q 471 419 525 461 q 326 378 417 378 m 1104 -17 q 910 64 982 -17 q 839 288 839 144 q 910 512 839 431 q 1104 593 982 593 q 1299 512 1226 593 q 1372 288 1372 431 q 1299 64 1372 144 q 1104 -17 1226 -17 m 1104 101 q 1209 151 1172 101 q 1246 288 1246 200 q 1209 426 1246 376 q 1104 475 1172 475 q 1001 426 1039 475 q 964 288 964 376 q 1001 151 964 200 q 1104 101 1039 101 m 303 -17 l 967 989 l 1099 989 l 435 -17 l 303 -17 z "},"ℓ":{"ha":646,"x_min":76,"x_max":583,"o":"m 340 -17 q 230 22 275 -17 q 185 156 185 61 l 185 308 q 150 290 167 297 q 122 276 133 282 l 76 392 q 133 419 101 403 q 185 449 164 435 l 185 699 q 239 926 185 864 q 383 989 293 989 q 526 936 468 989 q 583 779 583 883 q 541 604 583 678 q 440 478 499 531 q 329 388 381 425 l 329 207 q 348 133 329 149 q 401 117 367 117 q 448 129 421 117 q 496 169 475 142 l 536 75 q 451 9 504 35 q 340 -17 399 -17 m 385 871 q 342 840 354 871 q 329 707 329 808 l 329 535 q 411 639 383 585 q 439 758 439 693 q 426 840 439 810 q 385 871 414 871 z "},"№":{"ha":1644,"x_min":125,"x_max":1540,"o":"m 861 0 l 725 0 l 304 660 q 285 694 294 676 q 265 732 275 713 q 268 697 267 715 q 269 660 269 678 l 269 0 l 125 0 l 125 972 l 271 972 l 681 324 q 701 288 692 306 q 721 249 711 269 q 718 287 719 269 q 717 322 717 304 l 717 972 l 861 972 l 861 0 m 1272 379 q 1078 459 1150 379 q 1007 683 1007 539 q 1078 908 1007 828 q 1272 989 1150 989 q 1467 908 1394 989 q 1540 683 1540 828 q 1467 459 1540 539 q 1272 379 1394 379 m 1272 497 q 1414 683 1414 497 q 1377 822 1414 772 q 1272 871 1340 871 q 1169 822 1207 871 q 1132 683 1132 772 q 1169 547 1132 596 q 1272 497 1207 497 m 1007 164 l 1007 272 l 1540 272 l 1540 164 l 1007 164 z "},"Ω":{"ha":1042,"x_min":111,"x_max":931,"o":"m 593 0 l 593 126 q 728 315 683 224 q 774 540 774 406 q 750 687 774 615 q 671 804 726 758 q 521 850 615 850 q 371 803 426 850 q 292 685 315 757 q 268 539 268 614 q 313 314 268 404 q 449 126 358 224 l 449 0 l 111 0 l 111 139 l 308 139 q 169 306 219 206 q 118 542 118 407 q 156 749 118 646 q 283 921 194 853 q 521 989 372 989 q 758 921 669 989 q 885 749 847 853 q 924 542 924 646 q 873 306 924 407 q 732 139 822 206 l 931 139 l 931 0 l 593 0 z "},"℮":{"ha":1125,"x_min":90,"x_max":1035,"o":"m 569 -17 q 330 45 439 -17 q 156 220 221 107 q 90 486 90 333 q 159 769 90 656 q 339 938 228 882 q 574 993 450 993 q 794 936 692 993 q 962 765 896 879 q 1035 478 1028 650 l 328 478 l 328 178 q 420 110 358 140 q 571 79 482 79 q 750 122 667 79 q 897 265 833 164 l 976 217 q 813 47 907 111 q 569 -17 718 -17 m 328 574 l 804 575 l 804 797 q 706 868 769 839 q 569 897 642 897 q 433 874 493 897 q 328 808 372 851 l 328 574 z "},"⅓":{"ha":1007,"x_min":14,"x_max":961,"o":"m 14 -17 l 678 989 l 810 989 l 146 -17 l 14 -17 m 97 393 l 97 857 l 21 857 l 21 942 q 85 951 64 942 q 119 979 107 960 l 211 979 l 211 393 l 97 393 m 754 -11 q 619 34 674 -11 q 542 160 564 79 l 656 190 q 697 119 667 142 q 758 97 726 97 q 818 117 794 97 q 842 172 842 136 q 821 224 842 201 q 753 247 800 247 l 710 247 l 710 356 l 751 356 q 804 375 788 356 q 821 421 821 394 q 803 468 821 449 q 754 488 786 488 q 703 469 722 488 q 674 419 683 450 l 563 460 q 638 558 588 521 q 757 596 688 596 q 892 545 843 596 q 940 426 940 494 q 922 358 940 392 q 872 306 903 325 q 938 250 914 286 q 961 171 961 214 q 903 38 961 88 q 754 -11 846 -11 z "},"⅔":{"ha":1229,"x_min":33,"x_max":1183,"o":"m 236 -17 l 900 989 l 1032 989 l 368 -17 l 236 -17 m 35 393 q 96 599 35 518 q 239 722 157 679 q 297 759 272 740 q 322 813 322 778 q 302 860 322 839 q 243 881 282 881 q 178 857 203 881 q 146 790 154 833 l 33 817 q 106 940 47 890 q 243 989 164 989 q 390 938 336 989 q 443 810 443 888 q 397 695 443 733 q 285 622 351 657 q 210 566 236 597 q 169 501 183 535 l 442 501 l 442 393 l 35 393 m 976 -11 q 841 34 896 -11 q 764 160 786 79 l 878 190 q 919 119 889 142 q 981 97 949 97 q 1040 117 1017 97 q 1064 172 1064 136 q 1043 224 1064 201 q 975 247 1022 247 l 932 247 l 932 356 l 974 356 q 1026 375 1010 356 q 1043 421 1043 394 q 1026 468 1043 449 q 976 488 1008 488 q 925 469 944 488 q 896 419 906 450 l 785 460 q 860 558 810 521 q 979 596 910 596 q 1114 545 1065 596 q 1163 426 1163 494 q 1144 358 1163 392 q 1094 306 1125 325 q 1160 250 1136 286 q 1183 171 1183 214 q 1126 38 1183 88 q 976 -11 1068 -11 z "},"⅛":{"ha":1007,"x_min":14,"x_max":961,"o":"m 14 -17 l 678 989 l 810 989 l 146 -17 l 14 -17 m 97 393 l 97 857 l 21 857 l 21 942 q 85 951 64 942 q 119 979 107 960 l 211 979 l 211 393 l 97 393 m 753 -11 q 602 40 660 -11 q 544 178 544 92 q 568 260 544 224 q 629 319 592 297 q 585 369 600 340 q 569 433 569 397 q 620 551 569 506 q 753 596 671 596 q 886 551 836 596 q 936 433 936 506 q 921 371 936 401 q 878 319 906 340 q 938 260 915 297 q 961 178 961 222 q 904 40 961 92 q 753 -11 847 -11 m 753 94 q 820 118 794 94 q 846 178 846 142 q 820 240 846 214 q 753 265 794 265 q 686 240 713 265 q 660 178 660 214 q 686 118 660 142 q 753 94 713 94 m 753 371 q 824 433 824 371 q 805 477 824 458 q 753 496 786 496 q 702 477 722 496 q 682 433 682 458 q 702 389 682 407 q 753 371 722 371 z "},"⅜":{"ha":1174,"x_min":17,"x_max":1128,"o":"m 181 -17 l 844 989 l 976 989 l 313 -17 l 181 -17 m 229 382 q 94 427 149 382 q 17 553 39 472 l 131 583 q 172 513 142 535 q 233 490 201 490 q 293 510 269 490 q 317 565 317 529 q 296 617 317 594 q 228 640 275 640 l 185 640 l 185 749 l 226 749 q 279 767 263 749 q 296 814 296 786 q 278 861 296 842 q 229 881 261 881 q 178 862 197 881 q 149 813 158 843 l 38 853 q 113 951 63 914 q 232 989 163 989 q 367 939 318 989 q 415 819 415 889 q 397 751 415 783 q 347 699 378 718 q 413 644 389 681 q 436 564 436 607 q 378 431 436 481 q 229 382 321 382 m 919 -11 q 769 40 826 -11 q 711 178 711 92 q 735 260 711 224 q 796 319 758 297 q 751 369 767 340 q 736 433 736 397 q 787 551 736 506 q 919 596 838 596 q 1053 551 1003 596 q 1103 433 1103 506 q 1088 371 1103 401 q 1044 319 1072 340 q 1105 260 1082 297 q 1128 178 1128 222 q 1071 40 1128 92 q 919 -11 1014 -11 m 919 94 q 987 118 961 94 q 1013 178 1013 142 q 987 240 1013 214 q 919 265 961 265 q 853 240 879 265 q 826 178 826 214 q 853 118 826 142 q 919 94 879 94 m 919 371 q 990 433 990 371 q 972 477 990 458 q 919 496 953 496 q 869 477 889 496 q 849 433 849 458 q 869 389 849 407 q 919 371 889 371 z "},"⅝":{"ha":1174,"x_min":29,"x_max":1128,"o":"m 181 -17 l 844 989 l 976 989 l 313 -17 l 181 -17 m 221 383 q 101 403 149 383 q 29 444 54 424 l 94 539 q 147 507 117 522 q 221 492 176 492 q 300 519 269 492 q 331 589 331 546 q 307 653 331 632 q 244 675 283 675 q 190 658 213 675 q 153 611 168 640 l 50 664 l 67 979 l 411 979 l 411 871 l 171 871 l 164 760 q 206 777 183 771 q 251 783 228 783 q 399 722 351 783 q 447 592 447 661 q 384 440 447 496 q 221 383 321 383 m 919 -11 q 769 40 826 -11 q 711 178 711 92 q 735 260 711 224 q 796 319 758 297 q 751 369 767 340 q 736 433 736 397 q 787 551 736 506 q 919 596 838 596 q 1053 551 1003 596 q 1103 433 1103 506 q 1088 371 1103 401 q 1044 319 1072 340 q 1105 260 1082 297 q 1128 178 1128 222 q 1071 40 1128 92 q 919 -11 1014 -11 m 919 94 q 987 118 961 94 q 1013 178 1013 142 q 987 240 1013 214 q 919 265 961 265 q 853 240 879 265 q 826 178 826 214 q 853 118 826 142 q 919 94 879 94 m 919 371 q 990 433 990 371 q 972 477 990 458 q 919 496 953 496 q 869 477 889 496 q 849 433 849 458 q 869 389 849 407 q 919 371 889 371 z "},"⅞":{"ha":1049,"x_min":7,"x_max":1003,"o":"m 56 -17 l 719 989 l 851 989 l 188 -17 l 56 -17 m 129 393 q 169 654 131 542 q 274 871 207 767 l 7 871 l 7 979 l 407 979 l 407 878 q 309 717 344 806 q 259 542 274 628 q 244 393 244 456 l 129 393 m 794 -11 q 644 40 701 -11 q 586 178 586 92 q 610 260 586 224 q 671 319 633 297 q 626 369 642 340 q 611 433 611 397 q 662 551 611 506 q 794 596 713 596 q 928 551 878 596 q 978 433 978 506 q 963 371 978 401 q 919 319 947 340 q 980 260 957 297 q 1003 178 1003 222 q 946 40 1003 92 q 794 -11 889 -11 m 794 94 q 862 118 836 94 q 888 178 888 142 q 862 240 888 214 q 794 265 836 265 q 728 240 754 265 q 701 178 701 214 q 728 118 701 142 q 794 94 754 94 m 794 371 q 865 433 865 371 q 847 477 865 458 q 794 496 828 496 q 744 477 764 496 q 724 433 724 458 q 744 389 724 407 q 794 371 764 371 z "},"∕":{"ha":463,"x_min":-167,"x_max":629,"o":"m -167 -17 l 497 989 l 629 989 l -35 -17 l -167 -17 z "},"∙":{"ha":310,"x_min":50,"x_max":260,"o":"m 154 383 q 80 413 110 383 q 50 485 50 443 q 80 557 50 526 q 154 588 110 588 q 228 557 197 588 q 260 485 260 526 q 228 413 260 443 q 154 383 197 383 z "},"◌":{"ha":894,"x_min":76,"x_max":818,"o":"m 76 499 q 121 542 76 542 q 163 499 163 542 q 121 457 163 457 q 76 499 76 457 m 732 499 q 774 542 732 542 q 818 499 818 542 q 774 457 818 457 q 732 499 732 457 m 406 172 q 447 215 406 215 q 489 172 489 215 q 447 129 489 129 q 406 172 406 129 m 406 825 q 447 869 406 869 q 489 825 489 869 q 447 783 489 783 q 406 825 406 783 m 636 731 q 678 772 636 772 q 721 731 721 772 q 678 688 721 688 q 636 731 636 688 m 174 731 q 217 772 174 772 q 258 731 258 772 q 217 688 258 688 q 174 731 174 688 m 636 268 q 678 311 636 311 q 721 268 721 311 q 678 226 721 226 q 636 268 636 226 m 174 268 q 217 311 174 311 q 258 268 258 311 q 217 226 258 226 q 174 268 174 226 m 103 374 q 146 417 103 417 q 188 374 188 417 q 146 331 188 331 q 103 374 103 331 m 707 624 q 749 668 707 668 q 792 624 792 668 q 749 582 792 582 q 707 624 707 582 m 531 197 q 572 240 531 240 q 615 197 615 240 q 572 154 615 154 q 531 197 531 154 m 279 800 q 322 844 279 844 q 364 800 364 844 q 322 758 364 758 q 279 800 279 758 m 529 800 q 571 843 529 843 q 615 800 615 843 q 571 758 615 758 q 529 800 529 758 m 103 624 q 146 667 103 667 q 189 624 189 667 q 176 593 189 606 q 146 581 163 581 q 115 593 128 581 q 103 624 103 606 m 706 375 q 749 417 706 417 q 792 375 792 417 q 749 332 792 332 q 706 375 706 332 m 279 199 q 324 240 279 240 q 365 199 365 240 q 324 154 365 154 q 279 199 279 154 z "},"":{"ha":556,"x_min":188,"x_max":368,"o":"m 368 1014 l 368 1003 q 334 820 368 900 q 232 674 300 740 l 188 707 q 217 835 206 746 q 228 1014 228 925 l 368 1014 z "},"↑":{"ha":638,"x_min":49,"x_max":589,"o":"m 246 0 l 263 639 l 93 581 q 64 572 71 572 q 49 589 49 572 q 60 613 49 594 l 296 957 q 319 972 307 972 q 343 957 333 972 l 578 613 q 589 589 589 594 q 574 572 589 572 q 544 581 567 572 l 375 639 l 392 0 l 246 0 z "},"↗":{"ha":851,"x_min":35,"x_max":782,"o":"m 138 90 l 35 194 l 499 633 l 338 713 q 317 724 328 718 q 306 739 306 729 q 315 753 306 750 q 336 758 325 756 l 732 832 q 747 835 739 833 q 758 836 754 836 q 782 814 782 836 q 780 799 782 808 q 776 779 778 790 l 704 399 q 682 363 697 363 q 667 372 672 363 q 656 393 661 381 l 578 554 l 138 90 z "},"→":{"ha":1083,"x_min":63,"x_max":1035,"o":"m 651 231 q 635 246 635 231 q 643 275 635 253 l 701 444 l 63 428 l 63 574 l 701 557 l 643 726 q 635 756 635 749 q 651 771 635 771 q 675 760 657 771 l 1019 524 q 1035 500 1035 513 q 1019 476 1035 486 l 675 242 q 651 231 657 231 z "},"↘":{"ha":851,"x_min":35,"x_max":782,"o":"m 758 90 q 747 92 754 90 q 732 94 739 93 l 336 168 q 315 174 325 169 q 306 188 306 178 q 317 203 306 197 q 338 214 328 208 l 499 293 l 35 732 l 138 836 l 578 372 l 656 533 q 667 555 661 546 q 682 564 672 564 q 704 528 697 564 l 776 147 q 780 127 778 136 q 782 113 782 118 q 758 90 782 90 z "},"↓":{"ha":678,"x_min":57,"x_max":619,"o":"m 339 0 q 315 15 325 0 l 68 376 q 60 390 63 385 q 57 400 57 394 q 72 417 57 417 q 101 408 79 417 l 282 346 l 265 972 l 411 972 l 394 346 l 575 408 q 604 417 597 417 q 619 400 619 417 q 608 376 619 394 l 363 15 q 339 0 353 0 z "},"↙":{"ha":851,"x_min":69,"x_max":817,"o":"m 93 90 q 69 113 69 90 q 71 127 69 118 q 75 147 72 136 l 147 528 q 155 555 150 546 q 169 564 160 564 q 184 555 179 564 q 196 533 189 546 l 274 372 l 714 836 l 817 732 l 353 293 l 514 214 q 535 203 525 208 q 546 188 546 197 q 535 174 546 178 q 515 168 525 169 l 119 94 q 106 92 114 93 q 93 90 97 90 z "},"←":{"ha":1083,"x_min":49,"x_max":1021,"o":"m 432 231 q 408 242 426 231 l 64 476 q 49 500 49 486 q 64 524 49 513 l 408 760 q 432 771 426 771 q 449 756 449 771 q 440 726 449 749 l 382 557 l 1021 574 l 1021 428 l 382 444 l 440 275 q 449 246 449 253 q 432 231 449 231 z "},"↖":{"ha":851,"x_min":69,"x_max":817,"o":"m 714 90 l 274 554 l 196 393 q 184 372 189 381 q 169 363 179 363 q 155 372 160 363 q 147 399 150 381 l 75 779 q 71 799 72 790 q 69 814 69 808 q 93 836 69 836 q 106 835 97 836 q 119 832 114 833 l 515 758 q 535 753 525 756 q 546 739 546 750 q 535 724 546 729 q 514 713 525 718 l 353 633 l 817 194 l 714 90 z "},"↔":{"ha":1313,"x_min":49,"x_max":1264,"o":"m 881 231 q 864 246 864 231 q 872 275 864 253 l 929 440 l 383 440 l 440 275 q 449 246 449 253 q 432 231 449 231 q 408 242 426 231 l 64 476 q 49 500 49 486 q 64 524 49 513 l 408 760 q 432 771 426 771 q 449 756 449 771 q 440 726 449 749 l 383 561 l 929 561 l 872 726 q 864 756 864 749 q 881 771 864 771 q 904 760 886 771 l 1249 524 q 1264 500 1264 513 q 1249 476 1264 486 l 904 242 q 881 231 886 231 z "},"↕":{"ha":678,"x_min":68,"x_max":608,"o":"m 338 -236 q 314 -221 324 -236 l 79 124 q 68 147 68 142 q 83 164 68 164 q 113 156 90 164 l 278 99 l 278 729 l 113 672 q 83 664 90 664 q 68 681 68 664 q 79 704 68 686 l 314 1049 q 338 1064 324 1064 q 361 1049 350 1064 l 597 704 q 608 681 608 686 q 593 664 608 664 q 564 672 586 664 l 399 729 l 399 99 l 564 156 q 593 164 586 164 q 608 147 608 164 q 597 124 608 142 l 361 -221 q 338 -236 350 -236 z "},"⇤":{"ha":1188,"x_min":106,"x_max":1125,"o":"m 106 144 l 106 854 l 250 854 l 250 144 l 106 144 m 710 231 q 686 242 704 231 l 342 476 q 326 500 326 486 q 342 524 326 513 l 686 760 q 710 771 704 771 q 726 756 726 771 q 718 726 726 749 l 660 557 l 1125 574 l 1125 428 l 660 444 l 718 275 q 726 246 726 253 q 710 231 726 231 z "},"⇥":{"ha":1188,"x_min":63,"x_max":1082,"o":"m 478 231 q 461 246 461 231 q 469 275 461 253 l 528 444 l 63 428 l 63 574 l 528 557 l 469 726 q 461 756 461 749 q 478 771 461 771 q 501 760 483 771 l 846 524 q 861 500 861 513 q 846 476 861 486 l 501 242 q 478 231 483 231 m 938 144 l 938 854 l 1082 854 l 1082 144 l 938 144 z "},"↹":{"ha":1274,"x_min":106,"x_max":1168,"o":"m 106 488 l 106 1000 l 250 1000 l 250 488 l 106 488 m 710 474 q 686 485 704 474 l 342 719 q 326 743 326 729 q 342 767 326 756 l 686 1003 q 710 1014 704 1014 q 726 999 726 1014 q 718 969 726 992 l 660 800 l 1168 817 l 1168 671 l 660 688 l 718 518 q 726 489 726 496 q 710 474 726 474 m 564 -319 q 547 -304 547 -319 q 556 -275 547 -297 l 614 -106 l 106 -122 l 106 24 l 614 7 l 556 176 q 547 206 547 199 q 564 221 547 221 q 588 210 569 221 l 932 -26 q 947 -50 947 -37 q 932 -74 947 -64 l 588 -308 q 564 -319 569 -319 m 1024 -306 l 1024 207 l 1168 207 l 1168 -306 l 1024 -306 z "},"↳":{"ha":1006,"x_min":106,"x_max":957,"o":"m 574 28 q 557 43 557 28 q 565 72 557 50 l 622 238 l 164 238 l 164 358 l 622 358 l 565 524 q 557 553 557 546 q 574 568 557 568 q 597 557 579 568 l 942 321 q 957 297 957 310 q 942 274 957 283 l 597 39 q 574 28 579 28 m 106 238 l 106 972 l 226 972 l 226 238 l 106 238 z "},"↴":{"ha":1006,"x_min":106,"x_max":957,"o":"m 688 47 q 664 63 675 47 l 428 407 q 417 431 417 425 q 432 447 417 447 q 461 439 439 447 l 624 383 l 624 914 l 750 914 l 750 383 l 913 439 q 942 447 935 447 q 957 431 957 447 q 946 407 957 425 l 711 63 q 688 47 701 47 m 106 858 l 106 972 l 750 972 l 750 858 l 106 858 z "},"↵":{"ha":1006,"x_min":49,"x_max":900,"o":"m 432 28 q 408 39 426 28 l 64 274 q 49 297 49 283 q 64 321 49 310 l 408 557 q 432 568 426 568 q 449 553 449 568 q 440 524 449 546 l 383 358 l 842 358 l 842 238 l 383 238 l 440 72 q 449 43 449 50 q 432 28 449 28 m 779 238 l 779 972 l 900 972 l 900 238 l 779 238 z "},"↶":{"ha":1113,"x_min":49,"x_max":994,"o":"m 868 0 l 868 594 q 802 797 868 724 q 625 869 736 869 q 448 797 514 869 q 382 594 382 725 l 382 568 l 256 568 l 256 594 q 302 803 256 715 q 432 940 349 892 q 625 989 515 989 q 818 940 735 989 q 948 803 901 892 q 994 594 994 715 l 994 0 l 868 0 m 319 210 q 296 225 307 210 l 60 569 q 49 593 49 588 q 64 610 49 610 q 93 601 71 610 l 256 546 l 256 579 l 382 579 l 382 546 l 544 601 q 574 610 567 610 q 589 593 589 610 q 578 569 589 588 l 343 225 q 319 210 333 210 z "},"↷":{"ha":1113,"x_min":118,"x_max":1064,"o":"m 118 0 l 118 594 q 165 803 118 715 q 294 940 211 892 q 488 989 378 989 q 681 940 597 989 q 810 803 764 892 q 857 594 857 715 l 857 568 l 731 568 l 731 594 q 665 797 731 725 q 488 869 599 869 q 311 797 378 869 q 244 594 244 724 l 244 0 l 118 0 m 793 210 q 769 225 779 210 l 535 569 q 524 593 524 588 q 539 610 524 610 q 568 601 546 610 l 731 546 l 731 579 l 857 579 l 857 546 l 1019 601 q 1049 610 1042 610 q 1064 593 1064 610 q 1053 569 1064 588 l 817 225 q 793 210 806 210 z "},"↸":{"ha":851,"x_min":69,"x_max":817,"o":"m 714 -24 l 274 440 l 196 279 q 184 258 189 267 q 169 249 179 249 q 147 285 154 249 l 75 665 q 71 685 72 676 q 69 700 69 694 q 93 722 69 722 q 106 721 97 722 q 119 718 114 719 l 515 644 q 535 639 525 642 q 546 625 546 636 q 535 610 546 615 q 514 599 525 604 l 353 519 l 817 81 l 714 -24 m 69 858 l 69 972 l 817 972 l 817 858 l 69 858 z "},"↺":{"ha":1175,"x_min":139,"x_max":1108,"o":"m 588 38 q 362 98 464 38 q 199 260 260 158 q 139 486 139 363 q 173 658 139 575 q 271 803 207 740 l 358 715 q 288 610 313 669 q 263 486 263 550 q 358 256 263 351 q 588 160 454 160 q 817 256 721 160 q 913 486 913 351 q 875 637 913 567 q 774 751 838 707 l 844 853 q 985 694 933 792 q 1036 486 1036 597 q 976 260 1036 363 q 813 98 915 158 q 588 38 711 38 m 732 515 q 717 524 722 515 q 710 551 713 533 l 638 932 q 634 952 636 943 q 632 967 632 961 q 656 989 632 989 q 667 988 660 989 q 682 985 675 986 l 1078 911 q 1099 906 1089 908 q 1108 892 1108 903 q 1097 876 1108 882 q 1076 865 1086 871 l 861 760 l 758 546 q 747 524 753 533 q 732 515 742 515 z "},"⇚":{"ha":1083,"x_min":49,"x_max":1021,"o":"m 432 231 q 408 242 426 231 l 64 476 q 49 500 49 486 q 64 524 49 513 l 408 760 q 432 771 426 771 q 449 756 449 771 q 440 726 449 749 l 363 501 l 440 275 q 449 246 449 253 q 432 231 449 231 m 360 342 l 360 411 l 1021 411 l 1021 342 l 360 342 m 360 467 l 360 536 l 1021 536 l 1021 467 l 360 467 m 360 592 l 360 661 l 1021 661 l 1021 592 l 360 592 z "},"⇛":{"ha":1083,"x_min":63,"x_max":1035,"o":"m 651 231 q 635 246 635 231 q 643 275 635 253 l 721 501 l 643 726 q 635 756 635 749 q 651 771 635 771 q 675 760 657 771 l 1019 524 q 1035 500 1035 513 q 1019 476 1035 486 l 675 242 q 651 231 657 231 m 63 342 l 63 411 l 724 411 l 724 342 l 63 342 m 63 467 l 63 536 l 724 536 l 724 467 l 63 467 m 63 592 l 63 661 l 724 661 l 724 592 l 63 592 z "},"⇜":{"ha":1083,"x_min":49,"x_max":1021,"o":"m 432 231 q 408 242 426 231 l 64 476 q 49 500 49 486 q 64 524 49 513 l 408 760 q 432 771 426 771 q 449 756 449 771 q 440 726 449 749 l 383 561 l 463 561 l 501 440 l 383 440 l 440 275 q 449 246 449 253 q 432 231 449 231 m 510 347 l 440 561 l 529 561 l 554 486 l 608 653 l 697 653 l 599 347 l 510 347 m 707 347 l 608 653 l 697 653 l 751 486 l 806 653 l 894 653 l 796 347 l 707 347 m 874 440 l 806 653 l 894 653 l 924 561 l 1021 561 l 1021 440 l 874 440 z "},"⇝":{"ha":1083,"x_min":63,"x_max":1035,"o":"m 651 231 q 635 246 635 231 q 643 275 635 253 l 700 440 l 582 440 l 621 561 l 700 561 l 643 726 q 635 756 635 749 q 651 771 635 771 q 675 760 657 771 l 1019 524 q 1035 500 1035 513 q 1019 476 1035 486 l 675 242 q 651 231 657 231 m 63 440 l 63 561 l 160 561 l 189 653 l 278 653 l 210 440 l 63 440 m 288 347 l 189 653 l 278 653 l 332 486 l 386 653 l 475 653 l 376 347 l 288 347 m 485 347 l 386 653 l 475 653 l 529 486 l 554 561 l 643 561 l 574 347 l 485 347 z "},"⇠":{"ha":1083,"x_min":49,"x_max":1021,"o":"m 432 231 q 408 242 426 231 l 64 476 q 49 500 49 486 q 64 524 49 513 l 408 760 q 432 771 426 771 q 449 756 449 771 q 440 726 449 749 l 363 500 l 440 275 q 449 246 449 253 q 432 231 449 231 m 314 440 l 314 561 l 493 561 l 493 440 l 314 440 m 604 440 l 604 561 l 757 561 l 757 440 l 604 440 m 868 440 l 868 561 l 1021 561 l 1021 440 l 868 440 z "},"⇡":{"ha":638,"x_min":49,"x_max":589,"o":"m 64 572 q 49 589 49 572 q 60 613 49 594 l 296 957 q 319 972 307 972 q 343 957 333 972 l 578 613 q 589 589 589 594 q 574 572 589 572 q 544 581 567 572 l 318 658 l 93 581 q 64 572 71 572 m 258 0 l 258 150 l 379 150 l 379 0 l 258 0 m 258 261 l 258 411 l 379 411 l 379 261 l 258 261 m 258 522 l 258 707 l 379 707 l 379 522 l 258 522 z "},"⇢":{"ha":1083,"x_min":63,"x_max":1035,"o":"m 651 231 q 635 246 635 231 q 643 275 635 253 l 721 500 l 643 726 q 635 756 635 749 q 651 771 635 771 q 675 760 657 771 l 1019 524 q 1035 500 1035 513 q 1019 476 1035 486 l 675 242 q 651 231 657 231 m 63 440 l 63 561 l 215 561 l 215 440 l 63 440 m 326 440 l 326 561 l 479 561 l 479 440 l 326 440 m 590 440 l 590 561 l 769 561 l 769 440 l 590 440 z "},"⇣":{"ha":638,"x_min":49,"x_max":589,"o":"m 319 0 q 296 15 307 0 l 60 360 q 49 383 49 378 q 64 400 49 400 q 93 392 71 400 l 318 314 l 544 392 q 574 400 567 400 q 589 383 589 400 q 578 360 589 378 l 343 15 q 319 0 333 0 m 258 265 l 258 439 l 379 439 l 379 265 l 258 265 m 258 550 l 258 706 l 379 706 l 379 550 l 258 550 m 258 817 l 258 972 l 379 972 l 379 817 l 258 817 z "},"⇟":{"ha":638,"x_min":49,"x_max":589,"o":"m 319 0 q 296 15 307 0 l 60 360 q 49 383 49 378 q 64 400 49 400 q 93 392 71 400 l 318 314 l 544 392 q 574 400 567 400 q 589 383 589 400 q 578 360 589 378 l 343 15 q 319 0 333 0 m 64 475 l 64 589 l 574 589 l 574 475 l 64 475 m 258 265 l 258 972 l 379 972 l 379 265 l 258 265 m 64 694 l 64 808 l 574 808 l 574 694 l 64 694 z "},"⇞":{"ha":638,"x_min":49,"x_max":589,"o":"m 64 572 q 49 589 49 572 q 60 613 49 594 l 296 957 q 319 972 307 972 q 343 957 333 972 l 578 613 q 589 589 589 594 q 574 572 589 572 q 544 581 567 572 l 318 658 l 93 581 q 64 572 71 572 m 64 164 l 64 278 l 574 278 l 574 164 l 64 164 m 258 0 l 258 707 l 379 707 l 379 0 l 258 0 m 64 383 l 64 497 l 574 497 l 574 383 l 64 383 z "}}}
